<svg width="125" height="125" viewBox="0 0 125 125" fill="none" xmlns="http://www.w3.org/2000/svg">
<path d="M65.9846 54.6646V98.8441C65.4412 98.872 64.8914 98.8943 64.348 98.9167C63.9563 98.9278 63.5645 98.9334 63.1728 98.939C62.0228 98.9558 60.8728 98.9502 59.7228 98.9167C59.331 98.9111 58.9393 98.8999 58.5412 98.8832C57.3912 98.8385 56.2349 98.7658 55.0913 98.6597C54.6932 98.6318 54.3077 98.5983 53.9223 98.5592C52.7597 98.4419 51.6097 98.3022 50.4723 98.129C50.0743 98.0788 49.6888 98.0173 49.2971 97.9559C48.1281 97.766 46.9781 97.5481 45.8471 97.3023C45.4553 97.2185 45.0573 97.1347 44.6655 97.0398C43.4903 96.7661 42.3466 96.47 41.2219 96.1349C40.8301 96.0176 40.432 95.9002 40.0403 95.7718C39.2631 95.526 38.5048 95.269 37.7529 94.9953V58.3234C38.5048 58.0553 39.2631 57.7984 40.0403 57.5582C40.432 57.4353 40.8238 57.318 41.2219 57.2062C42.3466 56.8823 43.4966 56.5862 44.6655 56.3237C45.0573 56.2343 45.449 56.1505 45.8471 56.0667C46.9781 55.8321 48.1345 55.6254 49.2971 55.4411C49.6888 55.3796 50.0743 55.3182 50.4723 55.2679C51.6097 55.1059 52.766 54.9719 53.9223 54.8657C54.314 54.8322 54.7058 54.7931 55.0913 54.7652C56.2349 54.6702 57.3912 54.6088 58.5412 54.5753C58.933 54.5585 59.3247 54.5473 59.7228 54.5418C60.8728 54.5194 62.0228 54.5194 63.1728 54.5473C63.5645 54.5529 63.9563 54.5641 64.348 54.5809C64.8914 54.6032 65.4348 54.6311 65.9846 54.6646Z" fill="#FFB300"/>
<path d="M102.847 68.8249V78.1143C102.834 79.9744 102.329 81.8457 101.343 83.6556C101.008 84.2756 100.616 84.8901 100.161 85.4934C99.2451 86.7223 98.0951 87.9177 96.7113 89.0572C96.3448 89.3644 95.9467 89.6661 95.5423 89.9733C94.4998 90.7274 93.3561 91.4703 92.0924 92.1686C91.7069 92.3864 91.3152 92.5931 90.9108 92.7998C90.8919 92.811 90.8792 92.8166 90.8602 92.8277C89.7734 93.3807 88.6424 93.9002 87.4671 94.3695C87.0754 94.537 86.6836 94.6879 86.2856 94.8331C85.1672 95.2632 84.0109 95.6543 82.8356 96.0118C82.4502 96.1347 82.0584 96.2464 81.6603 96.3581C80.5356 96.6765 79.3793 96.9614 78.2104 97.2183C77.8186 97.3077 77.4332 97.3915 77.0351 97.4641C75.9041 97.7043 74.7477 97.9054 73.5851 98.073C73.1934 98.1344 72.8016 98.1959 72.4036 98.2406C71.2662 98.397 70.1099 98.5254 68.9536 98.6316C68.5682 98.6651 68.1764 98.7042 67.7783 98.7265C67.178 98.7712 66.5714 98.8159 65.9648 98.8438V54.6644C66.5714 54.6979 67.178 54.7426 67.7783 54.7929C68.1701 54.8208 68.5618 54.8544 68.9536 54.8935C70.1099 55.0052 71.2662 55.1392 72.4036 55.3012C72.7953 55.3571 73.1934 55.4185 73.5851 55.48C74.7541 55.6587 75.9041 55.871 77.0351 56.1112C77.4269 56.195 77.8186 56.2732 78.2104 56.3682C79.3793 56.6307 80.5356 56.9267 81.6603 57.2507C82.0584 57.3624 82.4439 57.4797 82.8356 57.597C84.0172 57.9601 85.1672 58.3623 86.2856 58.798C86.6773 58.9433 87.0754 59.0997 87.4671 59.2673C88.5729 59.7141 89.6471 60.2113 90.677 60.7364C90.7591 60.7755 90.835 60.8201 90.9171 60.8593C91.3215 61.0715 91.7133 61.2838 92.0987 61.5016C93.3624 62.2111 94.5124 62.9596 95.5487 63.7304C95.9657 64.0265 96.3511 64.3337 96.7176 64.6465C98.1077 65.8028 99.2514 67.0038 100.168 68.2383C100.319 68.4394 100.458 68.6349 100.591 68.8304L102.847 68.8249Z" fill="#F69503"/>
<path d="M37.7608 58.3235V94.9954C37.369 94.8501 36.9836 94.7049 36.5918 94.5485C36.4086 94.4815 36.2253 94.4088 36.0358 94.3362C35.8273 94.2468 35.6187 94.1686 35.4166 94.0737C34.4245 93.6603 33.4515 93.2134 32.5163 92.733C32.3331 92.6381 32.1498 92.5431 31.9666 92.4426C31.5622 92.2359 31.1705 92.018 30.785 91.789C29.5213 91.0684 28.3713 90.3031 27.3413 89.5155C26.9243 89.2027 26.5389 88.8787 26.1598 88.5603C24.7571 87.3537 23.6071 86.0969 22.7098 84.801C22.2486 84.1362 21.8631 83.4603 21.5345 82.7788C20.7953 81.2427 20.4098 79.6731 20.353 78.109H20.334V68.8251H22.4381C22.5202 68.691 22.6087 68.5626 22.7098 68.4285C23.6008 67.1381 24.7507 65.8757 26.1598 64.6803C26.5326 64.3563 26.9243 64.0379 27.3413 63.7307C28.3713 62.9487 29.5213 62.1946 30.785 61.4796C31.1642 61.2561 31.5622 61.0439 31.9666 60.8372C32.093 60.7701 32.2067 60.7031 32.3331 60.6417C33.3188 60.1389 34.355 59.6697 35.4166 59.234C35.6187 59.1446 35.8336 59.0608 36.0358 58.977C36.219 58.8988 36.4023 58.8318 36.5918 58.7592C36.9773 58.6084 37.3627 58.4631 37.7608 58.3235Z" fill="#FFCC00"/>
<g opacity="0.3">
<path d="M27.3534 63.7308V89.5157C26.9364 89.2029 26.551 88.8789 26.1719 88.5605V64.6805C26.551 64.3565 26.9364 64.0436 27.3534 63.7308Z" fill="#FFA200"/>
<path d="M22.7183 68.4337V84.8062C22.257 84.1415 21.8715 83.4656 21.543 82.7841V68.8247H22.4466C22.535 68.6963 22.6172 68.5678 22.7183 68.4337Z" fill="#FFA200"/>
<path d="M31.9745 60.8369V92.4423C31.5701 92.2356 31.1784 92.0178 30.793 91.7888V61.4793C31.1721 61.2614 31.5701 61.0436 31.9745 60.8369Z" fill="#FFA200"/>
<path d="M41.2256 57.2123V96.1353C40.8338 96.018 40.4357 95.9007 40.0439 95.7722V57.5642C40.4357 57.4413 40.8275 57.324 41.2256 57.2123Z" fill="#FFA200"/>
<path d="M36.5972 58.7594V94.5487C36.4139 94.4817 36.2307 94.409 36.0411 94.3364C35.8326 94.247 35.6241 94.1689 35.4219 94.0739V59.2342C35.6241 59.1448 35.8389 59.061 36.0411 58.9773C36.2307 58.8991 36.4139 58.832 36.5972 58.7594Z" fill="#FFA200"/>
<path d="M50.4692 55.2736V98.1235C50.0712 98.0732 49.6857 98.0118 49.2939 97.9504V55.4467C49.6857 55.3853 50.0775 55.3238 50.4692 55.2736Z" fill="#FFA200"/>
<path d="M45.8534 56.072V97.2965C45.4617 97.2127 45.0636 97.1289 44.6719 97.0339V56.3234C45.0636 56.2396 45.4554 56.1502 45.8534 56.072Z" fill="#FFA200"/>
<path d="M55.0957 54.7709V98.6542C54.6977 98.6263 54.3122 98.5928 53.9268 98.5537V54.8714C54.3122 54.8379 54.704 54.8044 55.0957 54.7709Z" fill="#FFA200"/>
<path d="M59.7323 54.5475V98.9112C59.3406 98.9056 58.9489 98.8945 58.5508 98.8777V54.581C58.9489 54.5642 59.3343 54.5531 59.7323 54.5475Z" fill="#FFA200"/>
<path d="M64.3471 54.5864V98.911C63.9554 98.9222 63.5636 98.9278 63.1719 98.9334V54.5529C63.5636 54.5584 63.9617 54.5696 64.3471 54.5864Z" fill="#FFA200"/>
<path d="M68.9722 54.8876V98.6313C68.5867 98.6648 68.1949 98.7039 67.7969 98.7262V54.7926C68.1886 54.8205 68.5867 54.854 68.9722 54.8876Z" fill="#FFA200"/>
<path d="M73.6005 55.4804V98.0734C73.2088 98.1348 72.817 98.1962 72.4189 98.2409V55.296C72.817 55.3575 73.2088 55.4133 73.6005 55.4804Z" fill="#FFA200"/>
<path d="M87.4795 59.2678V94.37C87.0877 94.5376 86.6959 94.6884 86.2979 94.8336V58.793C86.6959 58.9438 87.0877 59.1002 87.4795 59.2678Z" fill="#FFA200"/>
<path d="M78.2241 56.3629V97.2187C77.8323 97.3081 77.4469 97.3919 77.0488 97.4645V56.1116C77.4469 56.1898 77.8386 56.268 78.2241 56.3629Z" fill="#FFA200"/>
<path d="M82.8452 57.5972V96.0119C82.4598 96.1348 82.068 96.2465 81.6699 96.3582V57.2509C82.068 57.357 82.4598 57.4743 82.8452 57.5972Z" fill="#FFA200"/>
<path d="M92.1073 61.4963V92.1688C91.7219 92.3867 91.3302 92.5934 90.9258 92.8001V60.8595C91.3302 61.0662 91.7219 61.284 92.1073 61.4963Z" fill="#FFA200"/>
<path d="M96.7217 64.6411V89.0573C96.3552 89.3646 95.9571 89.6662 95.5527 89.9734V63.725C95.9634 64.0266 96.3552 64.3339 96.7217 64.6411Z" fill="#FFA200"/>
<path d="M101.355 68.8249V83.6557C101.021 84.2757 100.629 84.8901 100.174 85.4934V68.2328C100.325 68.4339 100.464 68.6294 100.597 68.8249H101.355Z" fill="#FFA200"/>
</g>
<path d="M90.8628 84.3429C74.8008 92.5375 48.6796 92.4984 32.5229 84.2479C16.3598 75.9974 16.2777 62.6693 32.3396 54.4691C48.4016 46.2745 74.5228 46.3136 90.6795 54.5641C106.843 62.8146 106.925 76.1483 90.8628 84.3429Z" fill="#FFD950"/>
<path d="M99.8579 69.5345C99.8579 74.1596 96.1363 78.5949 89.3627 82.047C82.0836 85.7673 72.3087 87.8117 61.864 87.8117C51.3183 87.8117 41.4233 85.7393 34.0115 81.9576C33.3228 81.6001 32.6846 81.2482 32.0654 80.874C26.4165 77.5503 23.3457 73.4781 23.3457 69.2663C23.3457 67.1325 24.1482 65.0098 25.7089 63.0268C27.4718 60.731 30.2203 58.6083 33.822 56.7594C41.1137 53.0503 50.876 50.9946 61.3396 50.9946C69.339 50.9946 76.9655 52.1956 83.4042 54.4188C85.4515 55.1282 87.3786 55.9438 89.1731 56.8655C95.7824 60.2282 99.5546 64.5294 99.82 68.9759C99.8579 69.1658 99.8579 69.3445 99.8579 69.5345Z" fill="#FFC100"/>
<path d="M83.5613 60.3224L83.555 62.6796L79.6943 64.6627L79.7007 62.3054L83.5613 60.3224Z" fill="#E49408"/>
<mask id="mask0_140_105940" style="mask-type:luminance" maskUnits="userSpaceOnUse" x="64" y="62" width="9" height="5">
<path d="M72.1197 64.1718L72.1134 66.5291C71.9302 66.4286 71.7469 66.3336 71.57 66.2442C69.1942 65.0321 67.3807 64.574 64.6953 65.9538L64.7016 63.5965C67.387 62.2167 69.2005 62.6748 71.5763 63.8869C71.7532 63.9819 71.9365 64.0769 72.1197 64.1718Z" fill="white"/>
</mask>
<g mask="url(#mask0_140_105940)">
<path d="M72.1197 64.1718L72.1134 66.5291C71.9302 66.4286 71.7469 66.3336 71.57 66.2442C69.1942 65.0321 67.3807 64.574 64.6953 65.9538L64.7016 63.5965C67.387 62.2167 69.2005 62.6748 71.5763 63.8869C71.7532 63.9819 71.9365 64.0769 72.1197 64.1718Z" fill="#D78400"/>
</g>
<path d="M64.7008 63.5964L64.6944 65.9537L63.1211 66.7637L63.1274 64.4064L64.7008 63.5964Z" fill="#D78400"/>
<mask id="mask1_140_105940" style="mask-type:luminance" maskUnits="userSpaceOnUse" x="61" y="64" width="3" height="5">
<path d="M61.5645 68.3162L61.5708 65.9589C61.5708 65.4562 62.0636 64.9534 63.1252 64.406L63.1188 66.7633C62.051 67.3107 61.5645 67.819 61.5645 68.3162Z" fill="white"/>
</mask>
<g mask="url(#mask1_140_105940)">
<path d="M63.1252 64.406L63.1188 66.7633C62.0573 67.3107 61.5645 67.819 61.5645 68.3162L61.5708 65.9589C61.5708 65.4618 62.0636 64.9534 63.1252 64.406Z" fill="#D78400"/>
</g>
<mask id="mask2_140_105940" style="mask-type:luminance" maskUnits="userSpaceOnUse" x="72" y="64" width="10" height="8">
<path d="M81.5971 69.439L81.5907 71.7962C79.1897 70.3997 73.7177 67.3498 72.1064 66.5287L72.1128 64.1714C73.7241 64.9925 79.196 68.0425 81.5971 69.439Z" fill="white"/>
</mask>
<g mask="url(#mask2_140_105940)">
<path d="M81.5971 69.4391L81.5907 71.7964C79.1897 70.3999 73.7177 67.35 72.1064 66.5344L72.1128 64.1771C73.7241 64.9927 79.196 68.0426 81.5971 69.4391Z" fill="#D78400"/>
</g>
<path d="M86.4109 66.965L86.4046 69.3222L81.5898 71.7968L81.5962 69.4396L86.4109 66.965Z" fill="#E49408"/>
<mask id="mask3_140_105940" style="mask-type:luminance" maskUnits="userSpaceOnUse" x="52" y="66" width="5" height="7">
<path d="M52.0273 68.4001L52.0337 66.0428C52.0273 67.322 53.0636 68.7632 56.0207 70.277L56.0144 72.6343C53.0573 71.1261 52.0273 69.6849 52.0273 68.4001Z" fill="white"/>
</mask>
<g mask="url(#mask3_140_105940)">
<path d="M56.0266 70.277L56.0203 72.6343C53.0568 71.1205 52.0269 69.6793 52.0332 68.4001L52.0395 66.0428C52.0332 67.3276 53.0631 68.7688 56.0266 70.277Z" fill="#E49408"/>
</g>
<path d="M60.0731 72.3493L60.0668 74.7065L56.0166 72.6341L56.0229 70.2769L60.0731 72.3493Z" fill="#E49408"/>
<mask id="mask4_140_105940" style="mask-type:luminance" maskUnits="userSpaceOnUse" x="60" y="72" width="2" height="5">
<path d="M61.6276 73.858L61.6213 76.2153C61.6213 75.7517 61.1664 75.2601 60.0732 74.7071L60.0796 72.3499C61.1664 72.9029 61.6276 73.3944 61.6276 73.858Z" fill="white"/>
</mask>
<g mask="url(#mask4_140_105940)">
<path d="M61.6276 73.858L61.6213 76.2153C61.6213 75.7517 61.1664 75.2601 60.0732 74.7071L60.0796 72.3499C61.1664 72.9029 61.6276 73.3944 61.6276 73.858Z" fill="#E49408"/>
</g>
<mask id="mask5_140_105940" style="mask-type:luminance" maskUnits="userSpaceOnUse" x="36" y="72" width="8" height="8">
<path d="M43.2237 77.176L43.2174 79.5333C39.9822 77.7122 38.4974 76.5671 36.7598 74.9807L36.7661 72.6234C38.5037 74.2154 39.9886 75.3549 43.2237 77.176Z" fill="white"/>
</mask>
<g mask="url(#mask5_140_105940)">
<path d="M43.2237 77.176L43.2174 79.5333C39.9822 77.7122 38.4974 76.5671 36.7598 74.9807L36.7661 72.6234C38.5037 74.2154 39.9886 75.3549 43.2237 77.176Z" fill="#E49408"/>
</g>
<mask id="mask6_140_105940" style="mask-type:luminance" maskUnits="userSpaceOnUse" x="66" y="73" width="6" height="8">
<path d="M71.2079 73.7236L71.2016 76.0809C71.1953 77.8964 68.9774 79.4939 66.8291 80.6L66.8354 78.2427C68.9837 77.1367 71.2016 75.5391 71.2079 73.7236Z" fill="white"/>
</mask>
<g mask="url(#mask6_140_105940)">
<path d="M71.2079 73.7236L71.2016 76.0809C71.1953 77.8964 68.9774 79.4939 66.8291 80.6L66.8354 78.2427C68.9837 77.1367 71.2016 75.5391 71.2079 73.7236Z" fill="#E49408"/>
</g>
<path d="M66.8368 78.2424L66.8305 80.5997L64.6885 81.6945L64.7011 79.3373L66.8368 78.2424Z" fill="#E49408"/>
<mask id="mask7_140_105940" style="mask-type:luminance" maskUnits="userSpaceOnUse" x="46" y="79" width="2" height="3">
<path d="M47.2402 79.3095L47.2339 81.6667C47.1265 81.6109 47.0254 81.555 46.918 81.5047L46.9243 79.1475C47.0317 79.2033 47.1328 79.2592 47.2402 79.3095Z" fill="white"/>
</mask>
<g mask="url(#mask7_140_105940)">
<path d="M47.2402 79.3095L47.2339 81.6667C47.1265 81.6109 47.0254 81.555 46.918 81.5047L46.9243 79.1475C47.0317 79.2033 47.1328 79.2592 47.2402 79.3095Z" fill="#E49408"/>
</g>
<path d="M46.9217 79.1475L46.9154 81.5047L43.2822 83.3705L43.2949 81.0132L46.9217 79.1475Z" fill="#E49408"/>
<path d="M43.2912 81.0133L43.2785 83.3706L39.5 81.4435L39.5063 79.0862L43.2912 81.0133Z" fill="#D78400"/>
<path d="M83.5618 60.323L79.7011 62.306C82.5824 63.9483 84.8634 65.6185 86.4115 66.9647L81.5967 69.4393C79.1957 68.0428 73.7237 64.9928 72.1125 64.1717C71.9292 64.0711 71.7523 63.9762 71.5754 63.8868C69.1996 62.6746 67.3861 62.2166 64.7007 63.5963L63.1274 64.4063C60.7832 65.6129 61.2255 66.6239 63.5444 67.8082L67.702 69.9308C74.1534 73.2265 70.4064 76.4106 66.8364 78.2428L64.7007 79.3432C57.7502 82.9126 51.6464 81.5664 47.236 79.3152C47.1286 79.2594 47.0275 79.2091 46.9201 79.1533L43.2869 81.019L39.5084 79.0918L43.2237 77.1814C39.9822 75.3604 38.4974 74.2209 36.7598 72.6288L41.5114 70.1878C43.1858 71.1486 47.3624 73.5785 51.4758 75.6788C53.3335 76.6284 55.8989 77.511 58.2684 76.2988L60.0123 75.4051C61.8384 74.4666 62.4386 73.5617 60.0755 72.3551L56.0252 70.2883C48.4682 66.4284 53.4788 63.021 56.2021 61.6245L58.9824 60.1945C65.2883 56.977 71.0004 57.9545 75.9858 60.3565L79.7833 58.407L83.5618 60.323Z" fill="#FFD950"/>
<mask id="mask8_140_105940" style="mask-type:luminance" maskUnits="userSpaceOnUse" x="47" y="79" width="18" height="5">
<path d="M64.7015 79.3375L64.6952 81.6948C57.7447 85.2642 51.6409 83.918 47.2305 81.6669L47.2368 79.3096C51.6409 81.5607 57.751 82.9125 64.7015 79.3375Z" fill="white"/>
</mask>
<g mask="url(#mask8_140_105940)">
<path d="M64.7015 79.3375L64.6952 81.6948C57.7447 85.2642 51.6409 83.918 47.2305 81.6669L47.2368 79.3096C51.6409 81.5607 57.751 82.9125 64.7015 79.3375Z" fill="#E49408"/>
</g>
<g opacity="0.3">
<path d="M99.8244 68.9705L32.0634 80.8742C26.4146 77.5505 23.3438 73.4784 23.3438 69.2665C23.3438 67.1327 24.1462 65.01 25.7069 63.027L83.4086 54.4135C85.4558 55.1229 87.383 55.9384 89.1775 56.8601C95.7805 60.2284 99.559 64.524 99.8244 68.9705Z" fill="#F5EBCB"/>
</g>
<path d="M36.0402 55.7261V58.6755C35.282 59.005 34.5427 59.357 33.8351 59.72C27.8008 62.7979 24.1802 66.669 23.4725 70.7467C23.384 70.2552 23.3398 69.7636 23.3398 69.272C23.3398 64.658 27.0678 60.2116 33.8287 56.7595C34.5427 56.402 35.282 56.0612 36.0402 55.7261Z" fill="#F69503"/>
<path d="M99.859 69.5402C99.859 70.0373 99.8147 70.5289 99.7263 71.0204C99.0123 66.8868 95.3348 62.9599 89.1805 59.8206C82.8808 56.6031 74.7614 54.6144 65.9785 54.1005V51.1344C74.7614 51.6595 82.8808 53.6369 89.1805 56.86C96.0678 60.368 99.859 64.8759 99.859 69.5402Z" fill="#FFCC00"/>
<path d="M65.9835 51.1345V54.1006C64.4544 54.0057 62.9 53.961 61.3393 53.961C51.9056 53.961 43.0279 55.6256 36.0332 58.6811V55.7317C43.0279 52.6762 51.9056 51.0004 61.3393 51.0004C62.9064 50.9948 64.4544 51.0451 65.9835 51.1345Z" fill="#FFB300"/>
<path d="M68.466 45.934V90.1134C67.9163 90.1413 67.3729 90.1637 66.8295 90.186C66.4377 90.1972 66.046 90.2028 65.6542 90.2084C64.5042 90.2251 63.3543 90.2195 62.2043 90.186C61.8125 90.1804 61.4207 90.1693 61.0227 90.1525C59.8727 90.1078 58.7164 90.0352 57.5727 89.9291C57.1746 89.9011 56.7892 89.8676 56.3974 89.8285C55.2411 89.7112 54.0848 89.5716 52.9475 89.3984C52.5494 89.3481 52.164 89.2867 51.7785 89.2252C50.6096 89.0353 49.4596 88.8175 48.3286 88.5717C47.9305 88.4935 47.5387 88.4041 47.147 88.3091C45.9717 88.0354 44.828 87.7394 43.7033 87.4042C43.3116 87.2869 42.9135 87.1696 42.5217 87.0411C41.7445 86.7953 40.9863 86.5384 40.2344 86.2647V49.5928C40.9863 49.3247 41.7445 49.0677 42.5217 48.8275C42.9135 48.7046 43.3052 48.5873 43.7033 48.4812C44.828 48.1572 45.978 47.8612 47.147 47.5986C47.5387 47.5092 47.9305 47.4254 48.3286 47.3417C49.4596 47.107 50.6159 46.9004 51.7785 46.7216C52.164 46.6546 52.5557 46.5987 52.9475 46.5484C54.0848 46.3864 55.2411 46.2524 56.3974 46.1463C56.7892 46.1127 57.1809 46.0736 57.5727 46.0457C58.7164 45.9507 59.8727 45.8893 61.0227 45.8558C61.4207 45.839 61.8062 45.8279 62.2043 45.8223C63.3543 45.7999 64.5042 45.7999 65.6542 45.8279C66.046 45.8334 66.4377 45.8446 66.8295 45.8614C67.3729 45.8781 67.9163 45.9061 68.466 45.934Z" fill="#FFB300"/>
<path d="M105.334 60.1002V69.3897C105.322 71.2498 104.816 73.1211 103.831 74.931C103.496 75.5454 103.104 76.1655 102.649 76.7688C101.733 77.9977 100.583 79.1931 99.199 80.3326C98.8325 80.6398 98.4345 80.9415 98.0238 81.2487C96.9812 82.0028 95.8375 82.7458 94.5738 83.444C94.1947 83.6619 93.7966 83.8685 93.3922 84.0752C93.3733 84.0864 93.3606 84.092 93.3416 84.1032C92.2548 84.6562 91.1238 85.1756 89.9486 85.6449C89.5568 85.8124 89.165 85.9633 88.767 86.1085C87.6486 86.5386 86.4923 86.9296 85.317 87.2871C84.9379 87.41 84.5398 87.5218 84.1418 87.6335C83.017 87.9519 81.8607 88.2368 80.6918 88.4937C80.3 88.5831 79.9146 88.6669 79.5165 88.7395C78.3855 88.9797 77.2292 89.1808 76.0666 89.3484C75.6748 89.4154 75.283 89.4713 74.885 89.5159C73.7476 89.6723 72.5913 89.8008 71.435 89.907C71.0432 89.9405 70.6578 89.9796 70.2597 90.0019C69.6594 90.0466 69.0529 90.0913 68.4463 90.1192V45.9398C69.0529 45.9733 69.6594 46.018 70.2597 46.0683C70.6515 46.0962 71.0432 46.1353 71.435 46.1688C72.5976 46.2806 73.7476 46.4146 74.885 46.5766C75.283 46.6325 75.6748 46.6939 76.0666 46.7554C77.2355 46.9341 78.3855 47.1464 79.5165 47.3866C79.9146 47.4704 80.3 47.5486 80.6918 47.6435C81.867 47.9061 83.017 48.2021 84.1418 48.5261C84.5335 48.6378 84.9253 48.7551 85.317 48.878C86.4986 49.2411 87.6486 49.6377 88.767 50.079C89.1587 50.2242 89.5568 50.3807 89.9486 50.5482C91.0543 50.9951 92.1285 51.4923 93.1584 52.0173C93.2342 52.0564 93.3164 52.1011 93.3922 52.1402C93.7966 52.3469 94.1883 52.5648 94.5738 52.7826C95.8375 53.492 96.9875 54.2406 98.0238 55.0114C98.4408 55.3075 98.8262 55.6147 99.199 55.9275C100.589 57.0838 101.733 58.2848 102.649 59.5193C102.801 59.7148 102.94 59.9159 103.072 60.1114H105.334V60.1002Z" fill="#F69503"/>
<path d="M40.2422 49.5981V86.27C39.8504 86.1248 39.465 85.9796 39.0732 85.8231C38.89 85.7505 38.7068 85.6835 38.5172 85.6053C38.3087 85.5159 38.1002 85.4377 37.898 85.3428C36.906 84.9294 35.9329 84.4825 35.0041 84.0021C34.8208 83.9072 34.6376 83.8122 34.448 83.7116C34.0499 83.505 33.6519 83.2871 33.2664 83.0581C32.0027 82.3375 30.859 81.5722 29.8228 80.7902C29.4058 80.4774 29.0203 80.1534 28.6412 79.835C27.2384 78.6284 26.0885 77.3716 25.1912 76.0756C24.73 75.4109 24.3445 74.735 24.0159 74.0535C23.2767 72.5174 22.8912 70.9477 22.8344 69.3836H22.8154V60.0942H24.9132C25.0017 59.9601 25.0838 59.8316 25.1849 59.6976C26.0758 58.4072 27.2258 57.1504 28.6349 55.9494C29.0077 55.6254 29.3994 55.307 29.8165 54.9998C30.8464 54.2177 31.9964 53.4636 33.2601 52.7486C33.6456 52.5252 34.0373 52.3129 34.4417 52.1063C34.568 52.0392 34.6881 51.9722 34.8081 51.9107C35.7939 51.408 36.8302 50.9388 37.8917 50.5031C38.0939 50.4137 38.3087 50.3299 38.5109 50.2461C38.6941 50.1679 38.8774 50.1009 39.0669 50.0338C39.4587 49.883 39.8441 49.7378 40.2422 49.5981Z" fill="#FFCC00"/>
<g opacity="0.3">
<path d="M29.8359 55.0055V80.7903C29.4189 80.4775 29.0334 80.1535 28.6543 79.8351V55.9495C29.0334 55.6255 29.4189 55.3127 29.8359 55.0055Z" fill="#FFA200"/>
<path d="M25.2006 59.7028V76.0752C24.7394 75.4105 24.354 74.7346 24.0254 74.0531V60.0994H24.9289C25.0174 59.9653 25.0995 59.8368 25.2006 59.7028Z" fill="#FFA200"/>
<path d="M34.4511 52.1113V83.7111C34.053 83.5045 33.655 83.2866 33.2695 83.0576V52.7481C33.655 52.5303 34.053 52.3124 34.4511 52.1113Z" fill="#FFA200"/>
<path d="M43.707 48.4866V87.4096C43.3152 87.2923 42.9171 87.175 42.5254 87.0465V48.8329C42.9171 48.71 43.3089 48.5927 43.707 48.4866Z" fill="#FFA200"/>
<path d="M39.0776 50.0337V85.823C38.8943 85.7504 38.7111 85.6833 38.5216 85.6051C38.3131 85.5158 38.1045 85.4376 37.9023 85.3426V50.5029C38.1045 50.4135 38.3194 50.3298 38.5216 50.246C38.7111 50.1734 38.8943 50.1007 39.0776 50.0337Z" fill="#FFA200"/>
<path d="M52.9492 46.5425V89.3924C52.5511 89.3422 52.1657 89.2807 51.7803 89.2193V46.7157C52.1657 46.6542 52.5574 46.5983 52.9492 46.5425Z" fill="#FFA200"/>
<path d="M48.333 47.3411V88.5655C47.9349 88.4873 47.5431 88.3979 47.1514 88.303V47.598C47.5431 47.5087 47.9349 47.4249 48.333 47.3411Z" fill="#FFA200"/>
<path d="M57.5767 46.0453V89.9287C57.1786 89.9007 56.7931 89.8672 56.4014 89.8281V46.1458C56.7931 46.1067 57.1849 46.0732 57.5767 46.0453Z" fill="#FFA200"/>
<path d="M62.2119 45.8163V90.18C61.8201 90.1744 61.4283 90.1633 61.0303 90.1465V45.8498C61.4283 45.833 61.8138 45.8219 62.2119 45.8163Z" fill="#FFA200"/>
<path d="M66.8266 45.8551V90.1797C66.4349 90.1909 66.0431 90.1965 65.6514 90.202V45.8215C66.0431 45.8271 66.4412 45.8383 66.8266 45.8551Z" fill="#FFA200"/>
<path d="M71.4545 46.1628V89.9065C71.0628 89.9401 70.6774 89.9792 70.2793 90.0015V46.0679C70.6711 46.0902 71.0628 46.1237 71.4545 46.1628Z" fill="#FFA200"/>
<path d="M76.083 46.7494V89.3424C75.6912 89.4094 75.2994 89.4653 74.9014 89.51V46.5651C75.2994 46.6265 75.6912 46.6824 76.083 46.7494Z" fill="#FFA200"/>
<path d="M89.9619 50.5364V85.6387C89.5701 85.8062 89.1783 85.9571 88.7803 86.1023V50.0616C89.1783 50.2125 89.5701 50.3689 89.9619 50.5364Z" fill="#FFA200"/>
<path d="M80.7045 47.6319V88.4876C80.3128 88.577 79.9274 88.6608 79.5293 88.7334V47.3805C79.9274 47.4587 80.3191 47.5425 80.7045 47.6319Z" fill="#FFA200"/>
<path d="M85.3247 48.8661V87.2808C84.9455 87.4037 84.5475 87.5154 84.1494 87.6271V48.5198C84.5475 48.6315 84.9392 48.7432 85.3247 48.8661Z" fill="#FFA200"/>
<path d="M94.5751 52.7706V83.4432C94.196 83.661 93.7979 83.8677 93.3936 84.0744V52.1338C93.7979 52.3405 94.196 52.5527 94.5751 52.7706Z" fill="#FFA200"/>
<path d="M99.2026 55.9159V80.3321C98.8361 80.6393 98.4381 80.941 98.0273 81.2482V54.9998C98.4444 55.2958 98.8361 55.603 99.2026 55.9159Z" fill="#FFA200"/>
<path d="M103.838 60.0999V74.9307C103.503 75.5451 103.111 76.1651 102.656 76.7684V59.5078C102.808 59.7033 102.947 59.9044 103.08 60.0999H103.838Z" fill="#FFA200"/>
</g>
<path d="M93.3408 75.6119C77.2788 83.8121 51.1577 83.7674 35.001 75.517C18.8379 67.2665 18.7621 53.9384 34.8177 45.7382C50.8797 37.5436 77.0008 37.5827 93.1576 45.8331C109.321 54.0836 109.403 67.4173 93.3408 75.6119Z" fill="#FFD950"/>
<path d="M102.339 60.809C102.339 65.4341 98.6177 69.8694 91.8441 73.3215C84.5651 77.0418 74.7902 79.0862 64.3455 79.0862C53.7997 79.0862 43.9048 77.0138 36.493 73.2321C35.8043 72.8746 35.1661 72.5227 34.5468 72.1485C28.898 68.8248 25.8271 64.7527 25.8271 60.5408C25.8271 58.407 26.6296 56.2843 28.1903 54.3013C29.9532 52.0055 32.7018 49.8828 36.3034 48.0283C43.5951 44.3248 53.3574 42.2635 63.821 42.2635C71.8204 42.2635 79.447 43.4645 85.892 45.6877C87.9393 46.3972 89.8664 47.2127 91.6609 48.1344C98.2702 51.4971 102.042 55.7984 102.308 60.2448C102.339 60.4347 102.339 60.6135 102.339 60.809Z" fill="#FFC100"/>
<path d="M86.0408 51.598L86.0345 53.9553L82.1738 55.9383L82.1801 53.581L86.0408 51.598Z" fill="#E49408"/>
<mask id="mask9_140_105940" style="mask-type:luminance" maskUnits="userSpaceOnUse" x="67" y="54" width="8" height="4">
<path d="M74.5934 55.4464L74.587 57.8037C74.4038 57.7031 74.2206 57.6081 74.0436 57.5188C71.6678 56.3066 69.8544 55.8486 67.1689 57.2283L67.1753 54.871C69.8607 53.4913 71.6742 53.9493 74.05 55.1615C74.2332 55.2509 74.4101 55.3458 74.5934 55.4464Z" fill="white"/>
</mask>
<g mask="url(#mask9_140_105940)">
<path d="M74.5934 55.4464L74.587 57.8037C74.4038 57.7031 74.2206 57.6081 74.0436 57.5188C71.6678 56.3066 69.8544 55.8486 67.1689 57.2283L67.1753 54.871C69.8607 53.4913 71.6742 53.9493 74.05 55.1615C74.2332 55.2509 74.4101 55.3458 74.5934 55.4464Z" fill="#D78400"/>
</g>
<path d="M67.1793 54.8711L67.173 57.2284L65.5996 58.0383L65.6059 55.6811L67.1793 54.8711Z" fill="#D78400"/>
<mask id="mask10_140_105940" style="mask-type:luminance" maskUnits="userSpaceOnUse" x="64" y="55" width="2" height="5">
<path d="M64.04 59.5916L64.0464 57.2343C64.0464 56.7316 64.5392 56.2288 65.6007 55.6814L65.5944 58.0387C64.5329 58.5805 64.0464 59.0888 64.04 59.5916Z" fill="white"/>
</mask>
<g mask="url(#mask10_140_105940)">
<path d="M65.6066 55.6813L65.6002 58.0386C64.5387 58.586 64.0459 59.0943 64.0459 59.5915L64.0522 57.2342C64.0522 56.7314 64.5387 56.2231 65.6066 55.6813Z" fill="#D78400"/>
</g>
<mask id="mask11_140_105940" style="mask-type:luminance" maskUnits="userSpaceOnUse" x="74" y="55" width="11" height="9">
<path d="M84.0765 60.7088L84.0702 63.0661C81.6691 61.6696 76.1972 58.6197 74.5859 57.7985L74.5923 55.4413C76.2035 56.268 81.6754 59.3123 84.0765 60.7088Z" fill="white"/>
</mask>
<g mask="url(#mask11_140_105940)">
<path d="M84.0765 60.7088L84.0702 63.0661C81.6691 61.6696 76.1972 58.6197 74.5859 57.7985L74.5923 55.4413C76.2035 56.268 81.6754 59.3123 84.0765 60.7088Z" fill="#D78400"/>
</g>
<path d="M88.8885 58.2343L88.8822 60.5915L84.0674 63.0661L84.0737 60.7088L88.8885 58.2343Z" fill="#E49408"/>
<mask id="mask12_140_105940" style="mask-type:luminance" maskUnits="userSpaceOnUse" x="54" y="57" width="5" height="7">
<path d="M54.5068 59.6748L54.5132 57.3175C54.5068 58.5967 55.5431 60.0379 58.5002 61.5517V63.9089C55.5367 62.3952 54.5068 60.954 54.5068 59.6748Z" fill="white"/>
</mask>
<g mask="url(#mask12_140_105940)">
<path d="M58.5061 61.5518L58.4998 63.9091C55.5363 62.3953 54.5064 60.9541 54.5127 59.6749V57.3176C54.5127 58.5968 55.5427 60.038 58.5061 61.5518Z" fill="#E49408"/>
</g>
<path d="M62.5546 63.6189L62.5483 65.9762L58.498 63.9094L58.5044 61.5521L62.5546 63.6189Z" fill="#E49408"/>
<mask id="mask13_140_105940" style="mask-type:luminance" maskUnits="userSpaceOnUse" x="62" y="63" width="3" height="5">
<path d="M64.1081 65.1328L64.1017 67.4901C64.1017 67.0265 63.6468 66.5349 62.5537 65.9819L62.56 63.6246C63.6468 64.1776 64.1081 64.6692 64.1081 65.1328Z" fill="white"/>
</mask>
<g mask="url(#mask13_140_105940)">
<path d="M64.1081 65.1328L64.1017 67.4901C64.1017 67.0265 63.6468 66.5349 62.5537 65.9819L62.56 63.6246C63.6468 64.1776 64.1081 64.6692 64.1081 65.1328Z" fill="#E49408"/>
</g>
<mask id="mask14_140_105940" style="mask-type:luminance" maskUnits="userSpaceOnUse" x="39" y="63" width="7" height="8">
<path d="M45.7027 68.4451L45.6964 70.8024C42.4549 68.9814 40.97 67.8418 39.2324 66.2498L39.2387 63.8926C40.9827 65.4846 42.4676 66.6241 45.7027 68.4451Z" fill="white"/>
</mask>
<g mask="url(#mask14_140_105940)">
<path d="M45.7027 68.4451L45.6964 70.8024C42.4549 68.9814 40.97 67.8418 39.2324 66.2498L39.2387 63.8926C40.9827 65.4846 42.4676 66.6241 45.7027 68.4451Z" fill="#E49408"/>
</g>
<mask id="mask15_140_105940" style="mask-type:luminance" maskUnits="userSpaceOnUse" x="69" y="64" width="5" height="8">
<path d="M73.6894 64.9928L73.683 67.3501C73.6767 69.1655 71.4589 70.7631 69.3105 71.8691L69.3169 69.5118C71.4652 68.4058 73.683 66.8082 73.6894 64.9928Z" fill="white"/>
</mask>
<g mask="url(#mask15_140_105940)">
<path d="M73.6894 64.9928L73.683 67.3501C73.6767 69.1655 71.4589 70.7631 69.3105 71.8691L69.3169 69.5118C71.4652 68.4058 73.683 66.8082 73.6894 64.9928Z" fill="#E49408"/>
</g>
<path d="M69.3163 69.5118L69.31 71.8691L67.168 72.9696L67.1806 70.6123L69.3163 69.5118Z" fill="#E49408"/>
<mask id="mask16_140_105940" style="mask-type:luminance" maskUnits="userSpaceOnUse" x="49" y="70" width="1" height="3">
<path d="M49.7177 70.585L49.7114 72.9422C49.604 72.8864 49.5029 72.8361 49.3955 72.7803L49.4018 70.423C49.5092 70.4732 49.6103 70.5291 49.7177 70.585Z" fill="white"/>
</mask>
<g mask="url(#mask16_140_105940)">
<path d="M49.7177 70.585L49.7114 72.9422C49.604 72.8864 49.5029 72.8361 49.3955 72.7803L49.4018 70.423C49.5092 70.4732 49.6103 70.5291 49.7177 70.585Z" fill="#E49408"/>
</g>
<path d="M49.4022 70.4229L49.3959 72.7746L45.7627 74.6403L45.7753 72.283L49.4022 70.4229Z" fill="#E49408"/>
<path d="M45.7707 72.2824L45.758 74.6397L41.9795 72.7125L41.9858 70.3552L45.7707 72.2824Z" fill="#D78400"/>
<path d="M86.0418 51.598L82.1811 53.581C85.0624 55.2233 87.3435 56.8935 88.8915 58.2397L84.0767 60.7143C81.6757 59.3178 76.2037 56.2678 74.5925 55.4467C74.4093 55.3461 74.2323 55.2568 74.0554 55.1618C71.6796 53.9496 69.8661 53.4916 67.1807 54.8713L65.6011 55.6813C63.2569 56.8879 63.6992 57.8989 66.0181 59.0832L70.1757 61.2058C76.6271 64.5015 72.8802 67.6855 69.3101 69.5177L67.1807 70.6126C60.2302 74.182 54.1264 72.8358 49.716 70.5847C49.6086 70.5288 49.5076 70.4785 49.4001 70.4227L45.7669 72.2884L41.9884 70.3612L45.7037 68.4508C42.4686 66.6298 40.9837 65.4903 39.2461 63.8983L43.9977 61.4572C45.6658 62.418 49.8488 64.8479 53.9622 66.9482C55.8199 67.8978 58.3852 68.7804 60.7484 67.5682L62.4923 66.6745C64.3184 65.736 64.9124 64.8311 62.5555 63.6245L58.5053 61.5577C50.9482 57.6978 55.9589 54.2904 58.6822 52.8939L61.4624 51.4639C67.7684 48.2464 73.4804 49.2239 78.4721 51.6259L82.2696 49.6764L86.0418 51.598Z" fill="#FFD950"/>
<mask id="mask17_140_105940" style="mask-type:luminance" maskUnits="userSpaceOnUse" x="49" y="70" width="19" height="6">
<path d="M67.181 70.6128L67.1746 72.9701C60.2242 76.5395 54.1204 75.1933 49.71 72.9421L49.7163 70.5848C54.1204 72.8304 60.2305 74.1822 67.181 70.6128Z" fill="white"/>
</mask>
<g mask="url(#mask17_140_105940)">
<path d="M67.181 70.6128L67.1746 72.9701C60.2242 76.5395 54.1204 75.1933 49.71 72.9421L49.7163 70.5848C54.1204 72.8304 60.2305 74.1822 67.181 70.6128Z" fill="#E49408"/>
</g>
<g opacity="0.3">
<path d="M102.306 60.2452L34.5449 72.1488C28.896 68.8252 25.8252 64.753 25.8252 60.5412C25.8252 58.4074 26.6277 56.2847 28.1884 54.3017L85.8901 45.6881C87.9373 46.3975 89.8645 47.2131 91.659 48.1348C98.2619 51.4975 102.034 55.7987 102.306 60.2452Z" fill="#F5EBCB"/>
</g>
<path d="M38.5139 47.0005V49.9499C37.7557 50.2795 37.0227 50.6314 36.3087 50.9945C30.2744 54.0723 26.6538 57.9434 25.9461 62.0211C25.8577 61.5296 25.8135 61.038 25.8135 60.5465C25.8135 55.9324 29.5414 51.486 36.3024 48.0339C37.0227 47.6764 37.762 47.3301 38.5139 47.0005Z" fill="#F69503"/>
<path d="M102.338 60.8092C102.338 61.3063 102.294 61.7979 102.206 62.2895C101.492 58.1559 97.8143 54.2289 91.66 51.0896C85.3603 47.8721 77.2409 45.8835 68.458 45.3752V42.4034C77.2409 42.9285 85.354 44.9059 91.66 48.129C98.5473 51.637 102.338 56.1449 102.338 60.8092Z" fill="#FFCC00"/>
<path d="M68.463 42.4036V45.3698C66.9339 45.2748 65.3795 45.2301 63.8188 45.2301C54.3851 45.2301 45.5074 46.8947 38.5127 49.9503V47.0009C45.5074 43.9453 54.3851 42.2695 63.8188 42.2695C65.3858 42.264 66.9339 42.3198 68.463 42.4036Z" fill="#FFB300"/>
<path d="M68.466 33.3097V77.4892C67.9163 77.5171 67.3729 77.5394 66.8295 77.5618C66.4377 77.573 66.046 77.5786 65.6542 77.5841C64.5042 77.6009 63.3543 77.5953 62.2043 77.5618C61.8125 77.5562 61.4207 77.545 61.0227 77.5283C59.8727 77.4836 58.7164 77.411 57.5727 77.3104C57.1746 77.2825 56.7892 77.2434 56.3974 77.2099C55.2411 77.0926 54.0848 76.9529 52.9475 76.7798C52.5494 76.7295 52.164 76.668 51.7785 76.6066C50.6096 76.4167 49.4596 76.1988 48.3286 75.953C47.9305 75.8692 47.5387 75.7855 47.147 75.6905C45.9717 75.4168 44.828 75.1207 43.7033 74.7855C43.3116 74.6682 42.9135 74.5509 42.5217 74.4281C41.7445 74.1823 40.9863 73.9253 40.2344 73.6516V36.9797C40.9863 36.7116 41.7445 36.4547 42.5217 36.2145C42.9135 36.0916 43.3052 35.9743 43.7033 35.8681C44.828 35.5441 45.978 35.2425 47.147 34.9855C47.5387 34.8962 47.9305 34.8124 48.3286 34.7286C49.4596 34.494 50.6159 34.2873 51.7785 34.103C52.164 34.0415 52.5557 33.9801 52.9475 33.9298C54.0848 33.7678 55.2411 33.6337 56.3974 33.5276C56.7892 33.4941 57.1809 33.455 57.5727 33.4271C58.7164 33.3321 59.8727 33.2706 61.0227 33.2371C61.4207 33.2204 61.8062 33.2092 62.2043 33.2036C63.3543 33.1813 64.5042 33.1813 65.6542 33.2092C66.046 33.2148 66.4377 33.226 66.8295 33.2427C67.3729 33.2539 67.9163 33.2818 68.466 33.3097Z" fill="#FFB300"/>
<path d="M105.334 47.4752V56.7647C105.322 58.6248 104.816 60.4961 103.831 62.306C103.496 62.926 103.104 63.5405 102.649 64.1438C101.733 65.3727 100.583 66.5681 99.199 67.7076C98.8325 68.0149 98.4345 68.3165 98.0238 68.6237C96.9812 69.3778 95.8375 70.1208 94.5738 70.819C94.1947 71.0369 93.7966 71.2435 93.3922 71.4502C93.3733 71.4614 93.3606 71.467 93.3416 71.4782C92.2548 72.0312 91.1238 72.5507 89.9486 73.0199C89.5568 73.1875 89.165 73.3383 88.767 73.4835C87.6486 73.9136 86.4923 74.3046 85.317 74.6621C84.9379 74.785 84.5398 74.8968 84.1418 75.0085C83.017 75.3269 81.8607 75.6118 80.6918 75.8687C80.3 75.9581 79.9146 76.0419 79.5165 76.1145C78.3855 76.3547 77.2292 76.5558 76.0666 76.7234C75.6748 76.7848 75.283 76.8463 74.885 76.891C73.7476 77.0474 72.5913 77.1758 71.435 77.282C71.0432 77.3155 70.6578 77.349 70.2597 77.3769C69.6594 77.4216 69.0529 77.4663 68.4463 77.4942V33.3148C69.0529 33.3483 69.6594 33.393 70.2597 33.4433C70.6515 33.4712 71.0432 33.5047 71.435 33.5438C72.5976 33.6556 73.7476 33.7896 74.885 33.9516C75.283 34.0075 75.6748 34.0689 76.0666 34.1304C77.2355 34.3091 78.3855 34.5214 79.5165 34.7616C79.9146 34.8398 80.3 34.9236 80.6918 35.0185C81.867 35.2811 83.017 35.5771 84.1418 35.9011C84.5335 36.0128 84.9253 36.1302 85.317 36.2475C86.4986 36.6105 87.6486 37.0127 88.767 37.4484C89.1587 37.5937 89.5568 37.7501 89.9486 37.9177C91.0543 38.3645 92.1285 38.8617 93.1584 39.3868C93.2342 39.4259 93.3164 39.4706 93.3922 39.5097C93.7966 39.7219 94.1883 39.9342 94.5738 40.1521C95.8375 40.8615 96.9875 41.61 98.0238 42.3809C98.4408 42.6769 98.8262 42.9841 99.199 43.297C100.589 44.4533 101.733 45.6542 102.649 46.8887C102.801 47.0898 102.94 47.2853 103.072 47.4808L105.334 47.4752Z" fill="#F69503"/>
<path d="M40.2422 36.974V73.6459C39.8504 73.5006 39.465 73.3554 39.0732 73.199C38.89 73.1264 38.7068 73.0593 38.5172 72.9811C38.3087 72.8918 38.1002 72.8136 37.898 72.7186C36.906 72.3052 35.9329 71.8584 35.0041 71.378C34.8208 71.283 34.6376 71.1825 34.448 71.0875C34.0499 70.8808 33.6519 70.663 33.2664 70.4339C32.0027 69.7133 30.859 68.9481 29.8228 68.1605C29.4058 67.8476 29.0203 67.5236 28.6412 67.2052C27.2384 65.9987 26.0885 64.7418 25.1912 63.4459C24.73 62.7812 24.3445 62.1053 24.0159 61.4238C23.2767 59.8876 22.8912 58.318 22.8344 56.7539H22.8154V47.4644H24.9132C25.0017 47.3304 25.0838 47.2019 25.1849 47.0678C26.0758 45.7775 27.2258 44.515 28.6349 43.3196C29.0077 42.9957 29.3994 42.6773 29.8165 42.37C30.8464 41.588 31.9964 40.8339 33.2601 40.1189C33.6456 39.8955 34.0373 39.6832 34.4417 39.4821C34.568 39.4095 34.6881 39.348 34.8081 39.2866C35.7939 38.7838 36.8302 38.3146 37.8917 37.8789C38.0939 37.7895 38.3087 37.7057 38.5109 37.622C38.6941 37.5438 38.8774 37.4767 39.0669 37.4041C39.4587 37.2589 39.8441 37.1136 40.2422 36.974Z" fill="#FFCC00"/>
<g opacity="0.3">
<path d="M29.8359 42.3811V68.1659C29.4189 67.8531 29.0334 67.5291 28.6543 67.2107V43.3307C29.0334 43.0067 29.4189 42.6883 29.8359 42.3811Z" fill="#FFA200"/>
<path d="M25.2006 47.0785V63.451C24.7394 62.7862 24.354 62.1103 24.0254 61.4288V47.4751H24.9289C25.0174 47.341 25.0995 47.2126 25.2006 47.0785Z" fill="#FFA200"/>
<path d="M34.4511 39.4872V71.087C34.053 70.8803 33.655 70.6625 33.2695 70.4335V40.124C33.655 39.9061 34.053 39.6939 34.4511 39.4872Z" fill="#FFA200"/>
<path d="M43.707 35.8622V74.7852C43.3152 74.6679 42.9171 74.5506 42.5254 74.4277V36.2141C42.9171 36.0856 43.3089 35.9739 43.707 35.8622Z" fill="#FFA200"/>
<path d="M39.0776 37.4094V73.1987C38.8943 73.1261 38.7111 73.0591 38.5216 72.9809C38.3131 72.8915 38.1045 72.8133 37.9023 72.7183V37.8786C38.1045 37.7893 38.3194 37.7055 38.5216 37.6217C38.7111 37.5491 38.8943 37.482 39.0776 37.4094Z" fill="#FFA200"/>
<path d="M52.9492 33.9236V76.7735C52.5511 76.7233 52.1657 76.6618 51.7803 76.6004V34.0967C52.1657 34.0353 52.5574 33.9739 52.9492 33.9236Z" fill="#FFA200"/>
<path d="M48.333 34.7229V75.9473C47.9349 75.8635 47.5431 75.7798 47.1514 75.6848V34.9743C47.5431 34.8905 47.9349 34.8011 48.333 34.7229Z" fill="#FFA200"/>
<path d="M57.5767 33.4211V77.3045C57.1786 77.2766 56.7931 77.2375 56.4014 77.204V33.5217C56.7931 33.4882 57.1849 33.4491 57.5767 33.4211Z" fill="#FFA200"/>
<path d="M62.2119 33.1921V77.5559C61.8201 77.5503 61.4283 77.5391 61.0303 77.5224V33.2257C61.4283 33.2145 61.8138 33.1977 62.2119 33.1921Z" fill="#FFA200"/>
<path d="M66.8266 33.2365V77.5612C66.4349 77.5724 66.0431 77.5779 65.6514 77.5835V33.203C66.0431 33.2086 66.4412 33.2198 66.8266 33.2365Z" fill="#FFA200"/>
<path d="M71.4545 33.5386V77.2823C71.0628 77.3158 70.6774 77.3493 70.2793 77.3772V33.4436C70.6711 33.4659 71.0628 33.505 71.4545 33.5386Z" fill="#FFA200"/>
<path d="M76.083 34.125V76.718C75.6912 76.7795 75.2994 76.8409 74.9014 76.8856V33.9407C75.2994 34.0021 75.6912 34.0636 76.083 34.125Z" fill="#FFA200"/>
<path d="M89.9619 37.9177V73.0199C89.5701 73.1875 89.1783 73.3383 88.7803 73.4835V37.4429C89.1783 37.5881 89.5701 37.7501 89.9619 37.9177Z" fill="#FFA200"/>
<path d="M80.7045 35.0131V75.8688C80.3128 75.9582 79.9274 76.042 79.5293 76.1146V34.7617C79.9274 34.8343 80.3191 34.9181 80.7045 35.0131Z" fill="#FFA200"/>
<path d="M85.3247 36.2475V74.6621C84.9455 74.785 84.5475 74.8968 84.1494 75.0085V35.9011C84.5475 36.0073 84.9392 36.1246 85.3247 36.2475Z" fill="#FFA200"/>
<path d="M94.5751 40.1464V70.819C94.196 71.0368 93.7979 71.2435 93.3936 71.4502V39.5096C93.7979 39.7163 94.196 39.9286 94.5751 40.1464Z" fill="#FFA200"/>
<path d="M99.2026 43.2916V67.7078C98.8361 68.0151 98.4381 68.3167 98.0273 68.624V42.3755C98.4444 42.6715 98.8361 42.9843 99.2026 43.2916Z" fill="#FFA200"/>
<path d="M103.838 47.4758V62.3065C103.503 62.9266 103.111 63.541 102.656 64.1443V46.8837C102.808 47.0848 102.947 47.2803 103.08 47.4758H103.838Z" fill="#FFA200"/>
</g>
<path d="M93.3408 62.9933C77.2788 71.1879 51.1577 71.1488 35.001 62.8983C18.8379 54.6478 18.7621 41.3197 34.8177 33.1195C50.8797 24.9249 77.0008 24.964 93.1576 33.2145C109.321 41.465 109.403 54.7931 93.3408 62.9933Z" fill="#FFD950"/>
<path d="M102.339 48.1851C102.339 52.8102 98.6177 57.2455 91.8441 60.6976C84.5651 64.4179 74.7902 66.4623 64.3455 66.4623C53.7997 66.4623 43.9048 64.3899 36.493 60.6082C35.8043 60.2507 35.1661 59.8988 34.5468 59.5246C28.898 56.2009 25.8271 52.1288 25.8271 47.9169C25.8271 45.7831 26.6296 43.6604 28.1903 41.6774C29.9532 39.3816 32.7018 37.2589 36.3034 35.4044C43.5951 31.6953 53.3574 29.6396 63.821 29.6396C71.8204 29.6396 79.447 30.8406 85.892 33.0638C87.9393 33.7733 89.8664 34.5888 91.6609 35.5105C98.2702 38.8732 102.042 43.1744 102.308 47.6209C102.339 47.8164 102.339 47.9896 102.339 48.1851Z" fill="#FFC100"/>
<path d="M86.0408 38.9735L86.0345 41.3308L82.1738 43.3138L82.1801 40.9565L86.0408 38.9735Z" fill="#E49408"/>
<mask id="mask18_140_105940" style="mask-type:luminance" maskUnits="userSpaceOnUse" x="67" y="41" width="8" height="5">
<path d="M74.5934 42.8218L74.587 45.1791C74.4038 45.0786 74.2206 44.9836 74.0436 44.8942C71.6678 43.6821 69.8544 43.224 67.1689 44.5982L67.1753 42.2409C69.8607 40.8611 71.6742 41.3192 74.05 42.5314C74.2332 42.6263 74.4101 42.7213 74.5934 42.8218Z" fill="white"/>
</mask>
<g mask="url(#mask18_140_105940)">
<path d="M74.5934 42.8218L74.587 45.1791C74.4038 45.0786 74.2206 44.9836 74.0436 44.8942C71.6678 43.6821 69.8544 43.224 67.1689 44.5982L67.1753 42.2409C69.8607 40.8611 71.6742 41.3192 74.05 42.5314C74.2332 42.6263 74.4101 42.7213 74.5934 42.8218Z" fill="#D78400"/>
</g>
<path d="M67.1793 42.2471L67.173 44.6043L65.5996 45.4143L65.6059 43.057L67.1793 42.2471Z" fill="#D78400"/>
<mask id="mask19_140_105940" style="mask-type:luminance" maskUnits="userSpaceOnUse" x="64" y="43" width="2" height="4">
<path d="M64.04 46.9673L64.0464 44.61C64.0464 44.1073 64.5392 43.6046 65.6007 43.0571L65.5944 45.4144C64.5329 45.9618 64.0464 46.4646 64.04 46.9673Z" fill="white"/>
</mask>
<g mask="url(#mask19_140_105940)">
<path d="M65.6066 43.057L65.6002 45.4143C64.5387 45.9617 64.0459 46.4645 64.0459 46.9672L64.0522 44.6099C64.0522 44.1072 64.5387 43.6044 65.6066 43.057Z" fill="#D78400"/>
</g>
<mask id="mask20_140_105940" style="mask-type:luminance" maskUnits="userSpaceOnUse" x="74" y="42" width="11" height="9">
<path d="M84.0765 48.0836L84.0702 50.4409C81.6691 49.0444 76.1972 45.9945 74.5859 45.1733L74.5923 42.816C76.2035 43.6428 81.6754 46.6871 84.0765 48.0836Z" fill="white"/>
</mask>
<g mask="url(#mask20_140_105940)">
<path d="M84.0765 48.0836L84.0702 50.4409C81.6691 49.0444 76.1972 45.9945 74.5859 45.1733L74.5923 42.816C76.2035 43.6428 81.6754 46.6871 84.0765 48.0836Z" fill="#D78400"/>
</g>
<path d="M88.8885 45.6155L88.8822 47.9728L84.0674 50.4418L84.0737 48.0845L88.8885 45.6155Z" fill="#E49408"/>
<mask id="mask21_140_105940" style="mask-type:luminance" maskUnits="userSpaceOnUse" x="54" y="44" width="5" height="8">
<path d="M54.5068 47.0511L54.5132 44.6938C54.5068 45.973 55.5431 47.4142 58.5002 48.928L58.4939 51.2853C55.5368 49.7771 54.5068 48.3303 54.5068 47.0511Z" fill="white"/>
</mask>
<g mask="url(#mask21_140_105940)">
<path d="M58.5061 48.928L58.4998 51.2853C55.5363 49.7715 54.5064 48.3303 54.5127 47.0511V44.6938C54.5127 45.973 55.5427 47.4198 58.5061 48.928Z" fill="#E49408"/>
</g>
<path d="M62.5546 50.9942L62.5483 53.3515L58.498 51.2847L58.5044 48.9274L62.5546 50.9942Z" fill="#E49408"/>
<mask id="mask22_140_105940" style="mask-type:luminance" maskUnits="userSpaceOnUse" x="62" y="51" width="3" height="4">
<path d="M64.1081 52.5087L64.1017 54.866C64.1017 54.4024 63.6468 53.9108 62.5537 53.3578L62.56 51.0005C63.6468 51.5535 64.1081 52.0451 64.1081 52.5087Z" fill="white"/>
</mask>
<g mask="url(#mask22_140_105940)">
<path d="M64.1081 52.5087L64.1017 54.866C64.1017 54.4024 63.6468 53.9108 62.5537 53.3578L62.56 51.0005C63.6468 51.5535 64.1081 52.0451 64.1081 52.5087Z" fill="#E49408"/>
</g>
<mask id="mask23_140_105940" style="mask-type:luminance" maskUnits="userSpaceOnUse" x="39" y="51" width="7" height="8">
<path d="M45.7027 55.8263L45.6964 58.1835C42.4549 56.3625 40.97 55.2174 39.2324 53.631L39.2387 51.2737C40.9827 52.8601 42.4676 54.0052 45.7027 55.8263Z" fill="white"/>
</mask>
<g mask="url(#mask23_140_105940)">
<path d="M45.7027 55.8263L45.6964 58.1835C42.4549 56.3625 40.97 55.2174 39.2324 53.631L39.2387 51.2737C40.9827 52.8601 42.4676 54.0052 45.7027 55.8263Z" fill="#E49408"/>
</g>
<mask id="mask24_140_105940" style="mask-type:luminance" maskUnits="userSpaceOnUse" x="69" y="52" width="5" height="8">
<path d="M73.6894 52.3691L73.683 54.7264C73.6767 56.5419 71.4589 58.1395 69.3105 59.2455L69.3169 56.8882C71.4652 55.7878 73.683 54.1902 73.6894 52.3691Z" fill="white"/>
</mask>
<g mask="url(#mask24_140_105940)">
<path d="M73.6894 52.3691L73.683 54.7264C73.6767 56.5419 71.4589 58.1395 69.3105 59.2455L69.3169 56.8882C71.4652 55.7878 73.683 54.1902 73.6894 52.3691Z" fill="#E49408"/>
</g>
<path d="M69.3163 56.8931L69.31 59.2503L67.168 60.3452L67.1806 57.9879L69.3163 56.8931Z" fill="#E49408"/>
<mask id="mask25_140_105940" style="mask-type:luminance" maskUnits="userSpaceOnUse" x="49" y="57" width="1" height="4">
<path d="M49.7177 57.9599L49.7114 60.3171C49.604 60.2613 49.5029 60.211 49.3955 60.1551L49.4018 57.7979C49.5092 57.8537 49.6103 57.904 49.7177 57.9599Z" fill="white"/>
</mask>
<g mask="url(#mask25_140_105940)">
<path d="M49.7177 57.9599L49.7114 60.3171C49.604 60.2613 49.5029 60.211 49.3955 60.1551L49.4018 57.7979C49.5092 57.8537 49.6103 57.904 49.7177 57.9599Z" fill="#E49408"/>
</g>
<path d="M49.4022 57.7979L49.3959 60.1551L45.7627 62.0208L45.7753 59.6636L49.4022 57.7979Z" fill="#E49408"/>
<path d="M45.7707 59.6637L45.758 62.021L41.9795 60.0882L41.9858 57.731L45.7707 59.6637Z" fill="#D78400"/>
<path d="M86.0413 38.9733L82.1806 40.9564C85.0619 42.5986 87.343 44.2688 88.891 45.615L84.0762 48.0896C81.6752 46.6931 76.2032 43.6432 74.592 42.8221C74.4087 42.7215 74.2318 42.6321 74.0549 42.5372C71.6791 41.325 69.8656 40.867 67.1802 42.2467L65.6005 43.0567C63.2563 44.2632 63.6987 45.2743 66.0176 46.4585L70.1752 48.5812C76.6265 51.8769 72.8796 55.0609 69.3096 56.8931L67.1739 57.9936C60.2234 61.563 54.1196 60.2168 49.7092 57.9656C49.6018 57.9098 49.5007 57.8595 49.3933 57.8036L45.7601 59.6694L41.9815 57.7422L45.6969 55.8318C42.4618 54.0108 40.9769 52.8712 39.2393 51.2792L43.9909 48.8381C45.659 49.7989 49.8419 52.2288 53.9554 54.3292C55.813 55.2788 58.3784 56.1614 60.7415 54.9492L62.4855 54.0555C64.3116 53.117 64.9055 52.2121 62.5487 51.0055L58.4984 48.9387C50.9413 45.0788 55.952 41.6714 58.6753 40.2749L61.4555 38.8449C67.7615 35.6274 73.4736 36.6049 78.4653 39.0069L82.2628 37.0574L86.0413 38.9733Z" fill="#FFD950"/>
<mask id="mask26_140_105940" style="mask-type:luminance" maskUnits="userSpaceOnUse" x="49" y="57" width="19" height="6">
<path d="M67.181 57.9881L67.1746 60.3454C60.2242 63.9148 54.1204 62.5686 49.71 60.3175L49.7163 57.9602C54.1204 60.2113 60.2305 61.5576 67.181 57.9881Z" fill="white"/>
</mask>
<g mask="url(#mask26_140_105940)">
<path d="M67.181 57.9881L67.1746 60.3454C60.2242 63.9148 54.1204 62.5686 49.71 60.3175L49.7163 57.9602C54.1204 60.2113 60.2305 61.5576 67.181 57.9881Z" fill="#E49408"/>
</g>
<g opacity="0.3">
<path d="M102.306 47.6209L34.5449 59.5246C28.896 56.2009 25.8252 52.1288 25.8252 47.9169C25.8252 45.7831 26.6277 43.6604 28.1884 41.6774L85.8901 33.0638C87.9373 33.7733 89.8645 34.5888 91.659 35.5105C98.2619 38.8732 102.034 43.1744 102.306 47.6209Z" fill="#F5EBCB"/>
</g>
<path d="M38.5139 34.3767V37.3261C37.7557 37.6557 37.0227 38.0076 36.3087 38.3707C30.2744 41.4485 26.6538 45.3252 25.9461 49.3974C25.8577 48.9058 25.8135 48.4142 25.8135 47.9227C25.8135 43.3031 29.5414 38.8622 36.3024 35.4101C37.0227 35.0526 37.762 34.7063 38.5139 34.3767Z" fill="#F69503"/>
<path d="M102.338 48.1852C102.338 48.6823 102.294 49.1739 102.206 49.6655C101.492 45.5319 97.8143 41.6049 91.66 38.4656C85.3603 35.2481 77.2409 33.2595 68.458 32.7456V29.7794C77.2409 30.3045 85.354 32.2819 91.66 35.505C98.5473 39.0186 102.338 43.5209 102.338 48.1852Z" fill="#FFCC00"/>
<path d="M68.463 29.785V32.7511C66.9339 32.6562 65.3795 32.6115 63.8188 32.6115C54.3851 32.6115 45.5074 34.2761 38.5127 37.3316V34.3822C45.5074 31.3267 54.3851 29.6509 63.8188 29.6509C65.3858 29.6453 66.9339 29.6956 68.463 29.785Z" fill="#FFB300"/>
</svg>
