<svg width="85" height="72" viewBox="0 0 85 72" fill="none" xmlns="http://www.w3.org/2000/svg">
<g style="mix-blend-mode:hard-light">
<path d="M39.3888 27.5418L39.3888 27.5419L39.3888 27.5418ZM42.8317 71.4391L42.8315 71.4391C41.688 71.4557 40.5453 71.4501 39.4034 71.4169L39.4034 71.4168L39.3959 71.4167C39.0089 71.4112 38.6218 71.4002 38.2283 71.3836L38.2266 71.3835C37.0846 71.3392 35.9373 71.2671 34.8035 71.1619L34.8035 71.1617L34.7923 71.1609C34.3997 71.1334 34.0194 71.1003 33.6388 71.0617L33.6385 71.0617C32.4824 70.945 31.341 70.8064 30.2136 70.6347L30.2136 70.6346L30.201 70.633C29.8384 70.5872 29.486 70.5319 29.1207 70.4745L29.0433 70.4624C29.0427 70.4623 29.0421 70.4622 29.0415 70.4621C27.8817 70.2736 26.7409 70.0575 25.6193 69.8137L25.6177 69.8134C25.5797 69.8053 25.5418 69.7972 25.504 69.7891C25.1482 69.7131 24.796 69.6379 24.4493 69.5538L24.4449 69.5528C23.2776 69.2809 22.1442 68.9875 21.0313 68.6559C20.9815 68.641 20.9317 68.6261 20.8821 68.6112C20.538 68.5084 20.1976 68.4067 19.8621 68.2966L19.857 68.295C19.1996 68.0871 18.5562 67.8713 17.9189 67.644V31.6769C18.5567 31.453 19.199 31.2383 19.8539 31.0359L19.8539 31.0359L19.8559 31.0352C20.2435 30.9136 20.6304 30.7978 21.023 30.6876L21.023 30.6877L21.0263 30.6867C22.1418 30.3654 23.2821 30.0718 24.4411 29.8115L24.4427 29.8111C24.8301 29.7228 25.2183 29.6397 25.6153 29.5562C26.7371 29.3235 27.8853 29.1182 29.0414 28.9349L28.9631 28.4411L29.0406 28.9351C29.068 28.9308 29.0953 28.9265 29.1226 28.9222C29.4872 28.8649 29.839 28.8097 30.201 28.764L30.201 28.764L30.2088 28.7629C31.3371 28.6022 32.4845 28.4692 33.6325 28.3638C33.7726 28.3518 33.9098 28.3394 34.0453 28.3271C34.2982 28.3042 34.5451 28.2819 34.7934 28.2639L34.7986 28.2635C35.9324 28.1693 37.0797 28.1083 38.2218 28.075L38.2218 28.0751L38.2286 28.0748C38.6156 28.0582 39.0025 28.0472 39.3958 28.0417L39.3985 28.0417C40.542 28.0194 41.6847 28.0195 42.8267 28.0472L42.8267 28.0472L42.8317 28.0473C43.2187 28.0528 43.6057 28.0638 43.9927 28.0804L43.9935 28.0804C44.3784 28.0963 44.7633 28.1149 45.1506 28.1364V71.3677C44.7902 71.3843 44.4281 71.3992 44.067 71.4141L43.9998 71.4169C43.9988 71.4169 43.9978 71.4169 43.9968 71.4169C43.6102 71.4279 43.223 71.4335 42.8317 71.4391Z" fill="#FFB300" stroke="#FFA200"/>
<path d="M80.569 56.418L80.5698 56.4164C81.5198 54.6721 82.0004 52.8817 82.0127 51.1126V42.3261L80.2582 42.3304L79.9925 42.3311L79.8432 42.1112C79.7148 41.922 79.5806 41.7333 79.4344 41.5394L79.4321 41.5363C78.5421 40.3372 77.4268 39.1646 76.0639 38.0309L76.059 38.0269L76.059 38.0268C75.7013 37.7215 75.3277 37.4238 74.9253 37.1381L74.9162 37.1317L74.9163 37.1316C73.8978 36.3739 72.7657 35.637 71.5199 34.9376L71.5187 34.9369C71.141 34.7235 70.7565 34.515 70.3588 34.3062C70.3114 34.2833 70.2673 34.2599 70.2321 34.2413L70.2288 34.2395C70.1878 34.2178 70.1578 34.202 70.1281 34.1878L70.1158 34.182L70.1159 34.1818C69.0974 33.6626 68.0365 33.1716 66.9458 32.7308L66.9365 32.7271L66.9365 32.727C66.5537 32.5632 66.1635 32.4098 65.7778 32.2669L65.7701 32.264L65.7701 32.2639C64.6633 31.8327 63.5254 31.4348 62.3565 31.0755C62.2906 31.0558 62.2251 31.0361 62.1599 31.0166C61.8353 30.9191 61.5178 30.8238 61.1912 30.7321L61.1879 30.7312L61.1879 30.7312C60.0729 30.41 58.9262 30.1164 57.7668 29.856L57.7586 29.8541L57.7586 29.8541C57.4727 29.7848 57.1894 29.7252 56.8975 29.6638C56.7984 29.643 56.6984 29.6219 56.5969 29.6002C55.4748 29.3619 54.3343 29.1514 53.1755 28.9742L53.1737 28.9739L53.1737 28.9739C52.7824 28.9126 52.3872 28.8516 51.9991 28.7962L80.569 56.418ZM80.569 56.418C80.246 57.016 79.8678 57.6092 79.4281 58.1923L79.4264 58.1945C78.5371 59.3874 77.416 60.5542 76.0595 61.6712L76.0561 61.674C75.7086 61.9654 75.3302 62.2529 74.9333 62.5543L74.9106 62.5716C73.8837 63.3141 72.7587 64.0447 71.5166 64.7309L71.5124 64.7333C71.1352 64.9465 70.7501 65.1497 70.3493 65.3546L70.3359 65.3614L70.3236 65.3687C70.3229 65.3691 70.3212 65.37 70.3175 65.3719L70.3165 65.3725C70.3106 65.3756 70.3007 65.3809 70.2884 65.3878C69.2172 65.9325 68.1036 66.4436 66.9477 66.9051L66.9477 66.905L66.9365 66.9098C66.5557 67.0727 66.173 67.2201 65.7802 67.3634L65.7802 67.3633L65.7721 67.3664C64.6666 67.7916 63.5218 68.1788 62.3561 68.5334L62.3561 68.5334L62.3497 68.5354C61.9733 68.6554 61.5889 68.7651 61.1912 68.8767L61.1901 68.877C60.0765 69.1922 58.93 69.4748 57.769 69.73L57.7652 69.7309C57.3763 69.8196 56.999 69.9015 56.6114 69.9722L56.6043 69.9735L56.5973 69.975C55.4784 70.2126 54.333 70.4119 53.1798 70.5781L53.1798 70.5781L53.1737 70.579C52.7802 70.6407 52.3992 70.7004 52.0138 70.7437L52.0138 70.7435L52.0015 70.7452C50.8731 70.9004 49.7248 71.028 48.5752 71.1335C48.4856 71.1413 48.3969 71.1493 48.3087 71.1572C48.0093 71.1841 47.7157 71.2105 47.4163 71.2273L47.4163 71.2272L47.4072 71.2279C46.9811 71.2596 46.5557 71.2911 46.1309 71.3165M80.569 56.418L46.1309 71.3165M46.1309 71.3165V28.1955C46.5557 28.2233 46.9803 28.2558 47.4026 28.2912L47.4026 28.2912L47.4088 28.2916C47.7958 28.3192 48.1829 28.3523 48.57 28.391L48.57 28.391L48.5715 28.3911C49.7216 28.5023 50.8703 28.6355 51.999 28.7962L46.1309 71.3165Z" fill="#F69503" stroke="#FFA200"/>
<path d="M16.9268 32.0377V67.2731C16.7658 67.2114 16.605 67.1487 16.4433 67.0841L16.4365 67.0814L16.4296 67.0789C16.3067 67.0339 16.1862 66.9873 16.0589 66.938C16.004 66.9168 15.9479 66.8951 15.8897 66.8728C15.7994 66.8342 15.7193 66.8015 15.6441 66.7708C15.5229 66.7214 15.4142 66.677 15.2951 66.6211L15.2851 66.6164L15.2749 66.6121C14.294 66.2034 13.3334 65.7622 12.4117 65.2888C12.2279 65.1935 12.0501 65.1013 11.8731 65.0042L11.8667 65.0007L11.8602 64.9974C11.4661 64.796 11.0837 64.5833 10.7065 64.3592L10.7065 64.3591L10.6987 64.3547C9.45384 63.6448 8.32261 62.8919 7.31109 62.1183L7.30739 62.1155C6.90478 61.8135 6.53112 61.4997 6.15197 61.1813L6.14971 61.1794C4.77538 59.997 3.65615 58.7718 2.78694 57.5164L2.78664 57.5159C2.34171 56.8747 1.96927 56.2219 1.65109 55.562L16.9268 32.0377ZM16.9268 32.0377C16.7642 32.099 16.6023 32.1613 16.4401 32.2248L16.4367 32.2261C16.391 32.2436 16.3468 32.2604 16.3039 32.2767C16.1603 32.3311 16.0303 32.3805 15.8981 32.4369L15.8932 32.439L15.8932 32.439C15.8205 32.4691 15.7499 32.4977 15.6809 32.5258C15.5448 32.581 15.4146 32.6339 15.2847 32.6913L15.2725 32.6967L15.2724 32.6965C14.2216 33.1279 13.198 33.5915 12.2263 34.0871L12.2178 34.0914L12.2177 34.0913C12.1459 34.1263 12.0889 34.1577 12.0209 34.1952C11.9767 34.2196 11.9277 34.2466 11.8669 34.2789L11.8602 34.2824L11.8602 34.2824C11.4603 34.4867 11.072 34.6939 10.7049 34.9103L10.6973 34.9148L10.6973 34.9147C9.45139 35.6196 8.32033 36.3616 7.30973 37.1289L7.30396 37.1333L7.30393 37.1332C6.89934 37.4313 6.51812 37.7411 6.15378 38.0577L6.14929 38.0616L6.14927 38.0616C4.77004 39.2317 3.65071 40.4621 2.7873 41.7126L2.78136 41.7212L2.77506 41.7295C2.68223 41.8526 2.60305 41.9678 2.53044 42.0863L2.38414 42.3251H2.1041H0.5V50.609M16.9268 32.0377L0.5 50.609M0.5 50.609H0.501145L0.518664 51.0908C0.572936 52.5835 0.940616 54.0857 1.65103 55.5619L0.5 50.609Z" fill="#FFCC00" stroke="#FFA200"/>
<g opacity="0.3">
<path d="M6.33789 37.9121C6.39816 37.8615 6.45864 37.8111 6.51945 37.7609V61.4788C6.45884 61.4285 6.39837 61.378 6.33789 61.3273V37.9121Z" fill="#FFA200" stroke="#FFA200"/>
<path d="M1.70898 55.6689V42.3247H1.88428V56.0145C1.82409 55.8995 1.76569 55.7843 1.70898 55.6689Z" fill="#FFA200" stroke="#FFA200"/>
<path d="M10.959 34.7703C11.0191 34.7365 11.0797 34.7028 11.1405 34.6692V64.6058C11.0798 64.5716 11.0193 64.537 10.959 64.5022V34.7703Z" fill="#FFA200" stroke="#FFA200"/>
<path d="M20.21 30.9329C20.2705 30.9145 20.331 30.8962 20.3916 30.8781V68.4629C20.3309 68.4444 20.2704 68.4257 20.21 68.4069V30.9329Z" fill="#FFA200" stroke="#FFA200"/>
<path d="M15.6863 32.526C15.7117 32.5156 15.7373 32.5052 15.7632 32.4947V66.8176C15.7237 66.8013 15.686 66.7859 15.6493 66.771C15.6285 66.7625 15.6081 66.7542 15.5879 66.7459V32.566C15.6204 32.5527 15.6531 32.5394 15.6863 32.526Z" fill="#FFA200" stroke="#FFA200"/>
<path d="M29.46 28.8749C29.5185 28.866 29.5769 28.8571 29.6353 28.8484V70.549C29.5769 70.5403 29.5185 70.5314 29.46 70.5224V28.8749Z" fill="#FFA200" stroke="#FFA200"/>
<path d="M24.8379 29.7266C24.8986 29.7133 24.9591 29.7001 25.0195 29.687V69.6774C24.9588 69.6641 24.8983 69.6507 24.8379 69.6371V29.7266Z" fill="#FFA200" stroke="#FFA200"/>
<path d="M34.0928 28.3301C34.149 28.3252 34.2054 28.3204 34.2618 28.3155V71.114C34.2053 71.1092 34.149 71.1043 34.0928 71.0992V28.3301Z" fill="#FFA200" stroke="#FFA200"/>
<path d="M38.7168 28.063C38.7773 28.0611 38.8378 28.0594 38.8984 28.0577V71.4009C38.8379 71.3993 38.7774 71.3975 38.7168 71.3957V28.063Z" fill="#FFA200" stroke="#FFA200"/>
<path d="M43.3379 28.0631C43.3964 28.0647 43.4548 28.0664 43.5131 28.0682V71.4226C43.4548 71.4237 43.3964 71.4247 43.3379 71.4257V28.0631Z" fill="#FFA200" stroke="#FFA200"/>
<path d="M47.9629 28.3323C48.0214 28.337 48.0798 28.3419 48.1382 28.3467V71.1738C48.0797 71.179 48.0212 71.1841 47.9629 71.189V28.3323Z" fill="#FFA200" stroke="#FFA200"/>
<path d="M52.585 28.8777C52.6457 28.8869 52.7062 28.8962 52.7665 28.9056V70.6448C52.7059 70.654 52.6454 70.663 52.585 70.6717V28.8777Z" fill="#FFA200" stroke="#FFA200"/>
<path d="M66.4639 32.5256C66.5245 32.5502 66.585 32.5749 66.6455 32.5999V67.0368C66.5851 67.0613 66.5245 67.0856 66.4639 67.1096V32.5256Z" fill="#FFA200" stroke="#FFA200"/>
<path d="M57.2148 29.7225C57.2736 29.7349 57.332 29.7474 57.3901 29.7602V69.8182C57.3316 69.8309 57.2732 69.8435 57.2148 69.8559V29.7225Z" fill="#FFA200" stroke="#FFA200"/>
<path d="M61.8359 30.9119C61.8945 30.9293 61.9529 30.947 62.0112 30.9648V68.6432C61.953 68.6607 61.8946 68.678 61.8359 68.6953V30.9119Z" fill="#FFA200" stroke="#FFA200"/>
<path d="M71.0918 34.692C71.1523 34.7251 71.2128 34.7584 71.2734 34.7917V64.875C71.2131 64.9081 71.1526 64.9411 71.0918 64.9738V34.692Z" fill="#FFA200" stroke="#FFA200"/>
<path d="M75.7188 37.739C75.7756 37.7847 75.8319 37.8304 75.8877 37.8761V61.8216C75.8321 61.8668 75.7757 61.912 75.7188 61.9572V37.739Z" fill="#FFA200" stroke="#FFA200"/>
<path d="M80.5215 56.528C80.4627 56.6345 80.4022 56.7408 80.3398 56.8469V42.3249H80.5215V56.528Z" fill="#FFA200" stroke="#FFA200"/>
</g>
<path d="M12.4163 56.8026L12.4162 56.8026C4.4079 52.7147 0.544386 47.4527 0.512891 42.3366C0.481411 37.2231 4.27705 31.9763 12.2329 27.9145C20.1748 23.8626 30.6372 21.833 41.1393 21.8497C51.6411 21.8664 62.1279 23.9292 70.1181 28.0094L70.1182 28.0094C78.1264 32.0973 81.99 37.3607 82.0215 42.4775C82.053 47.5918 78.2573 52.8386 70.3015 56.8975C62.3596 60.9494 51.8972 62.979 41.3952 62.9623C30.8933 62.9456 20.4065 60.8829 12.4163 56.8026Z" fill="#FFD950" stroke="#FFA200"/>
<path d="M68.8017 54.6015L68.8012 54.6018C61.6096 58.2774 51.9173 60.3117 41.5301 60.3117C31.043 60.3117 21.2309 58.2499 13.9063 54.513C13.2251 54.1594 12.5973 53.8131 11.99 53.446L11.9901 53.446L11.985 53.443C6.39703 50.1552 3.51172 46.2156 3.51172 42.2663C3.51172 40.2639 4.26352 38.2474 5.7678 36.336L5.76782 36.3361L5.77146 36.3313C7.47493 34.1129 10.1554 32.0324 13.7154 30.2046C20.9204 26.5398 30.6004 24.4946 41.0056 24.4946C48.9574 24.4946 56.5277 25.6888 62.9065 27.8913C64.9336 28.5937 66.8389 29.4002 68.6107 30.3102L68.6124 30.3111C75.1716 33.6484 78.7377 37.8308 78.9869 42.0057L78.989 42.04L78.9957 42.0737C79.0225 42.2079 79.024 42.3384 79.024 42.5345C79.024 46.8701 75.5231 51.176 68.8017 54.6015Z" fill="#FFC100" stroke="#FFA200"/>
<path d="M59.8658 35.6111L62.7251 34.1424L62.7218 35.374L59.8626 36.8426L59.8658 35.6111Z" fill="#E49408" stroke="#FFA200"/>
<mask id="mask0_106_34721" style="mask-type:luminance" maskUnits="userSpaceOnUse" x="44" y="35" width="8" height="5">
<path d="M51.0105 37.33C51.1009 37.3785 51.1928 37.4269 51.2849 37.4751L51.2816 38.7071C50.146 38.1395 49.0821 37.7258 47.9577 37.6289C46.9716 37.5439 45.9717 37.7049 44.8634 38.168L44.8668 36.9072C46.0206 36.3577 46.9739 36.19 47.8782 36.2679C48.8647 36.3529 49.841 36.7336 51.0105 37.33Z" fill="white" stroke="white"/>
</mask>
<g mask="url(#mask0_106_34721)">
<path d="M51.0105 37.33C51.1009 37.3785 51.1928 37.4269 51.2849 37.4751L51.2816 38.7071C50.146 38.1395 49.0821 37.7258 47.9577 37.6289C46.9716 37.5439 45.9717 37.7049 44.8634 38.168L44.8668 36.9072C46.0206 36.3577 46.9739 36.19 47.8782 36.2679C48.8647 36.3529 49.841 36.7336 51.0105 37.33Z" fill="#D78400" stroke="#FFA200"/>
</g>
<path d="M43.2926 37.7118L43.8646 37.4173L43.8613 38.6483L43.2893 38.9428L43.2926 37.7118Z" fill="#D78400" stroke="#FFA200"/>
<mask id="mask1_106_34721" style="mask-type:luminance" maskUnits="userSpaceOnUse" x="41" y="37" width="2" height="5">
<path d="M42.2857 39.4631C42.0835 39.5757 41.8995 39.6897 41.7345 39.8058L41.7368 38.9602H41.7368V38.9589C41.7368 38.8856 41.7693 38.7537 41.9702 38.552C42.0532 38.4687 42.1585 38.3802 42.2888 38.2868L42.2857 39.4631Z" fill="white" stroke="white"/>
</mask>
<g mask="url(#mask1_106_34721)">
<path d="M42.2857 39.4638C42.0837 39.5768 41.8996 39.6913 41.7345 39.8078L41.7368 38.9602H41.7368V38.9589C41.7368 38.8891 41.7687 38.757 41.9707 38.5537C42.0537 38.4701 42.1588 38.3814 42.2888 38.2879L42.2857 39.4638Z" fill="#D78400" stroke="#FFA200"/>
</g>
<mask id="mask2_106_34721" style="mask-type:luminance" maskUnits="userSpaceOnUse" x="51" y="37" width="11" height="8">
<path d="M52.2766 37.9968C54.3289 39.0911 58.5631 41.4548 60.7623 42.7266L60.7591 43.9317C58.2606 42.4986 53.9811 40.1168 52.2733 39.2247L52.2766 37.9968Z" fill="white" stroke="white"/>
</mask>
<g mask="url(#mask2_106_34721)">
<path d="M52.2766 38.0007C54.3278 39.0909 58.5625 41.4546 60.7623 42.7267L60.7591 43.9319C58.2612 42.4992 53.9826 40.1183 52.2733 39.2296L52.2766 38.0007Z" fill="#D78400" stroke="#FFA200"/>
</g>
<path d="M61.7614 42.7452L65.5747 40.7852L65.5714 42.0166L61.7581 43.9765L61.7614 42.7452Z" fill="#E49408" stroke="#FFA200"/>
<mask id="mask3_106_34721" style="mask-type:luminance" maskUnits="userSpaceOnUse" x="31" y="39" width="5" height="7">
<path d="M35.1859 43.5797L35.1826 44.7984C32.8479 43.4669 32.1937 42.2949 32.1934 41.4008C32.1934 41.4006 32.1934 41.4003 32.1934 41.4001L32.1934 41.3874C32.8431 42.1255 33.8263 42.8571 35.1859 43.5797Z" fill="white" stroke="white"/>
</mask>
<g mask="url(#mask3_106_34721)">
<path d="M31.6992 41.4001L31.7011 40.7239L35.187 45.37C32.6062 43.9528 31.6933 42.6047 31.6992 41.4001ZM35.1885 44.798C32.8462 43.4609 32.1949 42.2896 32.1992 41.4026L32.1992 41.4015L32.1993 41.3942C32.8482 42.1314 33.8306 42.8609 35.1918 43.5805L35.1885 44.798ZM31.7056 39.0428C31.7055 39.0464 31.7055 39.05 31.7055 39.0535L31.7056 39.0428Z" fill="#E49408" stroke="#FFA200"/>
</g>
<path d="M36.1867 44.0932L39.2383 45.6547L39.235 46.8902L36.1834 45.3287L36.1867 44.0932Z" fill="#E49408" stroke="#FFA200"/>
<mask id="mask4_106_34721" style="mask-type:luminance" maskUnits="userSpaceOnUse" x="39" y="45" width="3" height="5">
<path d="M40.2401 47.4059L40.2432 46.2208C40.381 46.3174 40.4901 46.4079 40.5745 46.4919C40.7705 46.6869 40.7935 46.8057 40.7937 46.8576C40.7937 46.8577 40.7937 46.8579 40.7937 46.858L40.7913 47.7436C40.6273 47.6299 40.4434 47.5176 40.2401 47.4059Z" fill="white" stroke="white"/>
</mask>
<g mask="url(#mask4_106_34721)">
<path d="M40.2401 47.4059L40.2432 46.2208C40.381 46.3174 40.4901 46.4079 40.5745 46.4919C40.7705 46.6869 40.7935 46.8057 40.7937 46.8576C40.7937 46.8577 40.7937 46.8579 40.7937 46.858L40.7913 47.7436C40.6273 47.6299 40.4434 47.5176 40.2401 47.4059Z" fill="#E49408" stroke="#FFA200"/>
</g>
<mask id="mask5_106_34721" style="mask-type:luminance" maskUnits="userSpaceOnUse" x="16" y="45" width="7" height="8">
<path d="M16.9291 46.7367C18.3448 47.9601 19.8049 48.9994 22.3889 50.4672L22.3857 51.6734C19.7819 50.1641 18.4288 49.1195 16.9264 47.76L16.9291 46.7367Z" fill="white" stroke="white"/>
</mask>
<g mask="url(#mask5_106_34721)">
<path d="M16.9291 46.7367C18.3448 47.9601 19.8049 48.9994 22.3889 50.4672L22.3857 51.6734C19.7819 50.1641 18.4288 49.1195 16.9264 47.76L16.9291 46.7367Z" fill="#E49408" stroke="#FFA200"/>
</g>
<mask id="mask6_106_34721" style="mask-type:luminance" maskUnits="userSpaceOnUse" x="46" y="46" width="5" height="8">
<path d="M49.1445 51.24C48.5486 51.793 47.7935 52.3055 46.9974 52.7595L47.0006 51.5457C48.0083 51.0087 49.0314 50.3578 49.8311 49.6157C50.0205 49.4398 50.2011 49.2554 50.3677 49.0627L50.3676 49.0792C50.3676 49.0792 50.3676 49.0793 50.3676 49.0793C50.3651 49.78 49.9312 50.5098 49.1445 51.24Z" fill="white" stroke="white"/>
</mask>
<g mask="url(#mask6_106_34721)">
<path d="M49.1445 51.24C48.5486 51.793 47.7935 52.3055 46.9974 52.7595L47.0006 51.5457C48.0083 51.0087 49.0314 50.3578 49.8311 49.6157C50.0205 49.4398 50.2011 49.2554 50.3677 49.0627L50.3676 49.0792C50.3676 49.0792 50.3676 49.0793 50.3676 49.0793C50.3651 49.78 49.9312 50.5098 49.1445 51.24Z" fill="#E49408" stroke="#FFA200"/>
</g>
<path d="M44.8655 52.6438L46.0006 52.0619L45.9973 53.2934L44.8589 53.8753L44.8655 52.6438Z" fill="#E49408" stroke="#FFA200"/>
<mask id="mask7_106_34721" style="mask-type:luminance" maskUnits="userSpaceOnUse" x="26" y="52" width="1" height="3">
<mask id="path-43-inside-1_106_34721" fill="white">
<path d="M26.9063 52.3095L26.8999 54.6667C26.7925 54.6109 26.6914 54.555 26.584 54.5047L26.5903 52.1475C26.6977 52.2033 26.7988 52.2592 26.9063 52.3095Z"/>
</mask>
<path d="M26.9063 52.3095L26.8999 54.6667C26.7925 54.6109 26.6914 54.555 26.584 54.5047L26.5903 52.1475C26.6977 52.2033 26.7988 52.2592 26.9063 52.3095Z" fill="white"/>
<path d="M26.9063 52.3095L27.9062 52.3121L27.908 51.6742L27.3301 51.4037L26.9063 52.3095ZM26.8999 54.6667L26.4386 55.5539L27.8955 56.3116L27.8999 54.6694L26.8999 54.6667ZM26.584 54.5047L25.584 54.5021L25.5823 55.14L26.1601 55.4105L26.584 54.5047ZM26.5903 52.1475L27.0517 51.2603L25.5947 50.5026L25.5903 52.1448L26.5903 52.1475ZM25.9063 52.3068L25.8999 54.6641L27.8999 54.6694L27.9062 52.3121L25.9063 52.3068ZM27.3613 53.7795C27.283 53.7388 27.1404 53.6611 27.0079 53.599L26.1601 55.4105C26.2424 55.449 26.3021 55.483 26.4386 55.5539L27.3613 53.7795ZM27.584 54.5074L27.5903 52.1501L25.5903 52.1448L25.584 54.5021L27.584 54.5074ZM26.1289 53.0347C26.2073 53.0754 26.3498 53.1531 26.4824 53.2152L27.3301 51.4037C27.2479 51.3652 27.1882 51.3312 27.0517 51.2603L26.1289 53.0347Z" fill="white" mask="url(#path-43-inside-1_106_34721)"/>
</mask>
<g mask="url(#mask7_106_34721)">
<mask id="path-45-inside-2_106_34721" fill="white">
<path d="M26.9063 52.3095L26.8999 54.6667C26.7925 54.6109 26.6914 54.555 26.584 54.5047L26.5903 52.1475C26.6977 52.2033 26.7988 52.2592 26.9063 52.3095Z"/>
</mask>
<path d="M26.9063 52.3095L26.8999 54.6667C26.7925 54.6109 26.6914 54.555 26.584 54.5047L26.5903 52.1475C26.6977 52.2033 26.7988 52.2592 26.9063 52.3095Z" fill="#E49408"/>
<path d="M26.9063 52.3095L27.9062 52.3121L27.908 51.6742L27.3301 51.4037L26.9063 52.3095ZM26.8999 54.6667L26.4386 55.5539L27.8955 56.3116L27.8999 54.6694L26.8999 54.6667ZM26.584 54.5047L25.584 54.5021L25.5823 55.14L26.1601 55.4105L26.584 54.5047ZM26.5903 52.1475L27.0517 51.2603L25.5947 50.5026L25.5903 52.1448L26.5903 52.1475ZM25.9063 52.3068L25.8999 54.6641L27.8999 54.6694L27.9062 52.3121L25.9063 52.3068ZM27.3613 53.7795C27.283 53.7388 27.1404 53.6611 27.0079 53.599L26.1601 55.4105C26.2424 55.449 26.3021 55.483 26.4386 55.5539L27.3613 53.7795ZM27.584 54.5074L27.5903 52.1501L25.5903 52.1448L25.584 54.5021L27.584 54.5074ZM26.1289 53.0347C26.2073 53.0754 26.3498 53.1531 26.4824 53.2152L27.3301 51.4037C27.2479 51.3652 27.1882 51.3312 27.0517 51.2603L26.1289 53.0347Z" fill="#FFA200" mask="url(#path-45-inside-2_106_34721)"/>
</g>
<path d="M23.4592 54.3191L26.0855 52.9681L26.0822 54.199L23.4526 55.5494L23.4592 54.3191Z" fill="#E49408" stroke="#FFA200"/>
<path d="M19.6702 52.9006L22.4555 54.3189L22.4489 55.5564L19.6668 54.1375L19.6702 52.9006Z" fill="#D78400" stroke="#FFA200"/>
<path d="M62.1279 33.3258L59.1387 34.8612L58.3173 35.2831L59.1195 35.7404C61.6387 37.1763 63.6899 38.631 65.1827 39.8624L61.2772 41.8697C58.7716 40.4203 53.5929 37.5359 52.0123 36.7297C51.8294 36.6293 51.6493 36.5327 51.4677 36.441C50.2637 35.8267 49.1469 35.3734 47.9631 35.2715C46.765 35.1682 45.5465 35.428 44.1382 36.1516L44.1379 36.1518L42.5646 36.9617C42.5645 36.9617 42.5645 36.9617 42.5645 36.9618C41.9569 37.2745 41.4819 37.5976 41.1701 37.9478C40.8478 38.3098 40.6704 38.7388 40.7624 39.2112C40.8481 39.6509 41.1485 40.0186 41.5142 40.3283C41.8875 40.6443 42.3885 40.9499 42.983 41.2535L42.9831 41.2535L47.1406 43.3761C48.7185 44.1822 49.6029 44.9482 50.0339 45.6296C50.4461 46.2811 50.4592 46.8763 50.2292 47.4494C49.9867 48.0537 49.4601 48.6615 48.7369 49.2455C48.0202 49.8242 47.1489 50.3489 46.2741 50.7979L46.2734 50.7983L44.1383 51.8984C44.1382 51.8985 44.1381 51.8985 44.138 51.8986C37.3688 55.3748 31.44 54.0697 27.131 51.8707C27.0757 51.842 27.0222 51.8148 26.9709 51.7886C26.9184 51.762 26.8682 51.7364 26.8168 51.7097L26.5875 51.5904L26.3577 51.7085L22.9521 53.4573L20.2713 52.09L23.1183 50.6261L23.9452 50.2009L23.1346 49.7455C20.2629 48.1322 18.7972 47.0679 17.2987 45.7425L21.164 43.7568C21.2527 43.8078 21.3467 43.8618 21.4457 43.9188C23.3619 45.0214 27.1636 47.2089 30.9144 49.1241C32.7928 50.0842 35.5605 51.0749 38.1621 49.744L38.1624 49.7438L39.9064 48.85L39.9069 48.8498C40.377 48.6082 40.7963 48.355 41.1155 48.0826C41.4275 47.8163 41.704 47.4808 41.774 47.0634C41.8489 46.6166 41.6678 46.2122 41.3534 45.8703C41.0472 45.5373 40.5809 45.2223 39.9688 44.9098L39.9687 44.9098L35.9187 42.843C35.9186 42.843 35.9186 42.843 35.9185 42.843C34.0635 41.8954 33.0529 41.0103 32.5722 40.2383C32.1118 39.4988 32.1217 38.8403 32.3839 38.23C32.6601 37.5874 33.2304 36.9725 33.9375 36.418C34.6375 35.869 35.4306 35.4108 36.0963 35.0694L36.0969 35.0691L38.8756 33.6399C38.8758 33.6398 38.876 33.6396 38.8762 33.6395C45.0046 30.5129 50.5465 31.4517 55.4348 33.8069L55.6589 33.9149L55.8802 33.8013L59.4507 31.9683L62.1279 33.3258Z" fill="#FFD950" stroke="#FFA200"/>
<mask id="mask8_106_34721" style="mask-type:luminance" maskUnits="userSpaceOnUse" x="26" y="52" width="19" height="5">
<path d="M27.3973 54.3589L27.4007 53.1101C31.683 55.1149 37.4079 56.1787 43.8653 53.142L43.862 54.3868C37.3461 57.6216 31.6239 56.445 27.3973 54.3589Z" fill="white" stroke="white"/>
</mask>
<g mask="url(#mask8_106_34721)">
<path d="M27.3973 54.3589L27.4007 53.1101C31.683 55.1149 37.4079 56.1787 43.8653 53.142L43.862 54.3868C37.3461 57.6216 31.6239 56.445 27.3973 54.3589Z" fill="#E49408" stroke="#FFA200"/>
</g>
<g opacity="0.3">
<path d="M68.6151 30.3049L68.6163 30.3055C74.9384 33.5305 78.4857 37.5313 78.9524 41.5573L11.8251 53.3497C6.34073 50.0809 3.50977 46.1784 3.50977 42.2665C3.50977 40.3184 4.22136 38.3569 5.64516 36.4919L63.0266 27.9262C65.0105 28.6191 66.8771 29.4122 68.6151 30.3049Z" fill="#F5EBCB" stroke="#FFA200"/>
</g>
<path d="M13.7204 30.2057C14.2035 29.9638 14.6993 29.7293 15.2063 29.4983V31.3492C14.5432 31.6443 13.8962 31.9553 13.2736 32.2748C8.60966 34.6537 5.29236 37.5423 3.6599 40.7014C4.40306 36.9143 7.82567 33.2159 13.7204 30.2057Z" fill="#F69503" stroke="#FFA200"/>
<path d="M46.1445 26.6304V24.667C54.6721 25.2357 62.521 27.1853 68.6188 30.3051L68.6196 30.3055C74.6313 33.3675 78.1162 37.1228 78.8697 40.9584C77.2177 37.747 73.8403 34.8066 69.0737 32.3752C62.8121 29.1772 54.7991 27.1899 46.1445 26.6304Z" fill="#FFCC00" stroke="#FFA200"/>
<path d="M41.0053 24.5004L41.0071 24.5004C42.402 24.4954 43.7827 24.5351 45.1495 24.6074V26.5707C43.7812 26.4962 42.3954 26.461 41.0053 26.461C31.8285 26.461 23.1558 28.0266 16.1992 30.9243V29.0603C23.0723 26.1197 31.7607 24.5004 41.0053 24.5004Z" fill="#FFB300" stroke="#FFA200"/>
<path d="M45.3131 62.7084L45.313 62.7084C44.1694 62.7251 43.0268 62.7195 41.8848 62.6862L41.8849 62.6862L41.8774 62.6861C41.4904 62.6805 41.1033 62.6695 40.7097 62.653L40.7081 62.6529C39.566 62.6085 38.4187 62.5364 37.2849 62.4312L37.2849 62.4311L37.2737 62.4303C36.8811 62.4027 36.5006 62.3697 36.1131 62.331C34.9632 62.2143 33.8157 62.0757 32.6887 61.9041L32.6888 61.9039L32.6761 61.9023C32.2876 61.8533 31.9104 61.7932 31.524 61.7316C30.3638 61.5431 29.2228 61.3269 28.1008 61.0831L28.1008 61.083L28.091 61.0811C27.7025 61.0047 27.3184 60.9172 26.9308 60.8232L26.9264 60.8222C25.7591 60.5503 24.6256 60.2568 23.5128 59.9252C23.4629 59.9103 23.4132 59.8954 23.3635 59.8806C23.0194 59.7778 22.6791 59.6761 22.3436 59.566L22.3385 59.5644C21.681 59.3565 21.0376 59.1406 20.4004 58.9134V22.9462C21.0381 22.7224 21.6804 22.5076 22.3354 22.3052L22.3354 22.3052L22.3374 22.3046C22.7252 22.1829 23.1096 22.0679 23.4981 21.9643L23.4982 21.9644L23.5077 21.9616C24.6232 21.6403 25.7636 21.3468 26.9225 21.0865L26.9242 21.0861C27.3116 20.9977 27.6999 20.9146 28.0969 20.8311C29.2186 20.5984 30.3661 20.3933 31.5205 20.2158L31.5205 20.2159L31.5302 20.2142C31.9058 20.1489 32.2897 20.0941 32.6771 20.0444L32.6771 20.0444L32.684 20.0434C33.8122 19.8827 34.9597 19.7497 36.1076 19.6443C36.2428 19.6327 36.3755 19.6207 36.5068 19.6089C36.7649 19.5856 37.0176 19.5627 37.2743 19.5444L37.2743 19.5445L37.2801 19.544C38.4139 19.4498 39.5612 19.3889 40.7032 19.3556L40.7032 19.3556L40.7097 19.3553C41.1034 19.3388 41.4842 19.3277 41.8773 19.3222L41.88 19.3222C43.0235 19.3 44.1662 19.3 45.3081 19.3277L45.3081 19.3277L45.3131 19.3278C45.7001 19.3333 46.0871 19.3444 46.4741 19.3609V19.361L46.4801 19.3611C46.8623 19.3729 47.2448 19.3903 47.632 19.4094V62.637C47.2476 62.6547 46.8648 62.6704 46.4806 62.6862L46.4785 62.6863C46.0918 62.6973 45.7045 62.7028 45.3131 62.7084Z" fill="#FFB300" stroke="#FFA200"/>
<path d="M54.551 19.5766C53.4136 19.4146 52.2636 19.2806 51.101 19.1688C50.9704 19.1577 50.8397 19.1459 50.7091 19.1341C50.448 19.1105 50.1868 19.0869 49.9257 19.0683L54.551 19.5766ZM54.551 19.5766C54.9488 19.6324 55.3403 19.6938 55.7318 19.7553L55.7326 19.7554L54.551 19.5766ZM48.6123 62.5919V19.4709C49.0372 19.4987 49.4617 19.5312 49.884 19.5665L49.884 19.5666L49.8902 19.567C50.1468 19.5853 50.3996 19.6082 50.6577 19.6315C50.7886 19.6433 50.9209 19.6553 51.0558 19.6668C52.2109 19.7778 53.3524 19.9109 54.4805 20.0716L54.4815 20.0718C54.8749 20.127 55.2627 20.1878 55.6551 20.2493L55.6551 20.2493L55.657 20.2496C56.8159 20.4268 57.9564 20.6373 59.0787 20.8757L59.0795 20.8759C59.1442 20.8895 59.2082 20.9029 59.2716 20.9161C59.6032 20.9855 59.9191 21.0517 60.24 21.1295L60.24 21.1295L60.2488 21.1315C61.4137 21.3917 62.5539 21.6853 63.6694 22.0066L63.6707 22.0069C64.0582 22.1175 64.4457 22.2335 64.8334 22.3551L64.8362 22.356C66.0071 22.7158 67.1447 23.1082 68.2495 23.5441L68.2494 23.5442L68.2592 23.5478C68.6449 23.6908 69.0352 23.8442 69.4179 24.008L69.4179 24.008L69.4272 24.0118C70.5176 24.4525 71.5781 24.9432 72.5963 25.4623C72.6309 25.4801 72.6674 25.4995 72.707 25.5205L72.7085 25.5213C72.747 25.5417 72.7886 25.5638 72.8291 25.5846L72.8307 25.5855C73.2254 25.7872 73.6098 26.0009 73.9938 26.2179L73.995 26.2186C75.2408 26.918 76.3728 27.6549 77.3914 28.4126L77.3913 28.4127L77.4004 28.4191C77.8029 28.7049 78.1772 29.0031 78.5436 29.3105L78.5453 29.3119C79.9082 30.4456 81.0235 31.6181 81.9135 32.8173L81.9134 32.8174L81.9199 32.8258C82.0613 33.008 82.1929 33.1981 82.3246 33.3922L82.4734 33.6114H82.7383H84.5004V42.388C84.4881 44.1571 84.0075 45.9474 83.0576 47.6917C82.7334 48.2865 82.3547 48.8856 81.9158 49.4677L81.9141 49.4699C81.0248 50.6628 79.9037 51.8296 78.5472 52.9466L78.5438 52.9494C78.1899 53.2461 77.8029 53.5397 77.3935 53.8459C76.3662 54.5888 75.2407 55.3197 73.998 56.0064L73.9979 56.0063L73.9907 56.0105C73.623 56.2218 73.2344 56.4237 72.8307 56.63L72.8173 56.6368L72.8049 56.6441C72.8042 56.6445 72.8025 56.6455 72.7987 56.6474L72.7976 56.648C72.7918 56.6511 72.7819 56.6563 72.7698 56.6632C71.6985 57.2079 70.585 57.719 69.4292 58.1805L69.4291 58.1804L69.4179 58.1852C69.0372 58.348 68.6544 58.4955 68.2616 58.6388L68.2616 58.6387L68.2535 58.6418C67.148 59.067 66.0032 59.4542 64.8375 59.8088L64.8375 59.8087L64.8288 59.8115C64.4609 59.9308 64.0726 60.0398 63.6727 60.1521L63.6716 60.1524C62.5579 60.4677 61.4114 60.7502 60.2504 61.0054L60.2466 61.0062C59.8577 61.095 59.4804 61.1769 59.0928 61.2476L59.0857 61.2489L59.0787 61.2504C57.9598 61.488 56.8144 61.6873 55.6612 61.8535L55.6612 61.8533L55.6482 61.8555C55.2657 61.921 54.8834 61.9755 54.4952 62.0191L54.4952 62.0189L54.4828 62.0206C53.3547 62.1758 52.2065 62.3034 51.057 62.4089C50.9528 62.4178 50.8506 62.427 50.7497 62.436C50.4622 62.4618 50.1848 62.4866 49.8977 62.5027L49.8977 62.5026L49.8886 62.5033C49.4625 62.535 49.0371 62.5665 48.6123 62.5919Z" fill="#F69503" stroke="#FFA200"/>
<path d="M19.4082 23.3119V58.5478C19.2472 58.4861 19.0864 58.4234 18.9247 58.3588L18.9235 58.3583C18.8412 58.3257 18.7664 58.297 18.6941 58.2692C18.5887 58.2288 18.4884 58.1902 18.377 58.1443C18.2843 58.1046 18.2024 58.0712 18.1255 58.0399C18.0044 57.9905 17.8956 57.9461 17.7766 57.8902L17.7665 57.8855L17.7563 57.8812C16.7752 57.4724 15.8149 57.0313 14.9001 56.5582L19.4082 23.3119ZM19.4082 23.3119C19.2437 23.3736 19.079 23.4364 18.9126 23.5005L18.8997 23.5054L18.8996 23.5052C18.7125 23.5714 18.5414 23.6342 18.3732 23.706L18.3683 23.7081L18.3683 23.708C18.2956 23.7382 18.2251 23.7668 18.1561 23.7948C18.02 23.8501 17.8897 23.903 17.7598 23.9604L17.7476 23.9658L17.7476 23.9656C16.6968 24.3969 15.6732 24.8605 14.7015 25.3561C14.6308 25.3922 14.5662 25.4272 14.4952 25.4657C14.4481 25.4911 14.3982 25.5181 14.342 25.548L14.3353 25.5515L14.3352 25.5515C13.9379 25.7545 13.554 25.9626 13.1769 26.1812L13.1724 26.1838L13.1723 26.1838C11.9265 26.8887 10.7955 27.6306 9.78486 28.398L9.77909 28.4024L9.77906 28.4023C9.37446 28.7004 8.99318 29.0102 8.62887 29.3268L8.62524 29.3299L8.62522 29.3299C7.24472 30.5066 6.1254 31.7317 5.26238 32.9817L5.25644 32.9903L5.25014 32.9986C5.17456 33.0988 5.11196 33.1941 5.03764 33.3072C5.02437 33.3273 5.01073 33.3481 4.99657 33.3696L4.84835 33.5942H4.57923H2.98145V41.8836H2.98254L3.00006 42.3655C3.05433 43.8582 3.42204 45.3604 4.13249 46.8367C4.45067 47.4966 4.82311 48.1494 5.26803 48.7906L5.26833 48.791C6.13751 50.0464 7.25668 51.2716 8.63092 52.4539L8.63142 52.4543C9.01121 52.7733 9.38552 53.0877 9.78883 53.3902L9.79 53.3911C10.8102 54.161 11.936 54.9144 13.1801 55.6237L13.1879 55.6282L13.1879 55.6283C13.5632 55.8513 13.9527 56.0645 14.3444 56.2679L14.3483 56.2699C14.5351 56.369 14.7159 56.4627 14.8991 56.5577L14.8998 56.558L19.4082 23.3119Z" fill="#FFCC00" stroke="#FFA200"/>
<g opacity="0.3">
<path d="M8.82031 29.1812C8.88063 29.1305 8.94113 29.0802 9.00192 29.0302V52.7535C8.9413 52.7032 8.88081 52.6527 8.82031 52.602V29.1812Z" fill="#FFA200" stroke="#FFA200"/>
<path d="M4.19141 46.9379V33.5994H4.36665V47.2834C4.30648 47.1685 4.2481 47.0533 4.19141 46.9379Z" fill="#FFA200" stroke="#FFA200"/>
<path d="M13.4355 26.041C13.4959 26.0074 13.5565 25.974 13.6171 25.9408V55.8737C13.5563 55.8396 13.4958 55.8052 13.4355 55.7706V26.041Z" fill="#FFA200" stroke="#FFA200"/>
<path d="M22.6914 22.2018C22.752 22.1834 22.8125 22.1653 22.873 22.1473V59.7372C22.8123 59.7187 22.7518 59.7 22.6914 59.6812V22.2018Z" fill="#FFA200" stroke="#FFA200"/>
<path d="M18.1667 23.7947C18.1921 23.7844 18.2177 23.774 18.2436 23.7634V58.0863C18.2041 58.07 18.1664 58.0546 18.1298 58.0397C18.109 58.0312 18.0886 58.0229 18.0684 58.0146V23.8347C18.1009 23.8214 18.1336 23.8081 18.1667 23.7947Z" fill="#FFA200" stroke="#FFA200"/>
<path d="M31.9463 20.1446C32.0025 20.1362 32.0588 20.1279 32.1152 20.1196V61.8178C32.0589 61.8094 32.0026 61.8007 31.9463 61.792V20.1446Z" fill="#FFA200" stroke="#FFA200"/>
<path d="M27.3174 20.9985C27.3778 20.9852 27.4384 20.972 27.499 20.9589V60.949C27.4385 60.9354 27.3779 60.9216 27.3174 60.9076V20.9985Z" fill="#FFA200" stroke="#FFA200"/>
<path d="M36.5674 19.6009C36.6258 19.5957 36.6842 19.5907 36.7427 19.5857V62.3884C36.6842 62.3835 36.6258 62.3784 36.5674 62.3732V19.6009Z" fill="#FFA200" stroke="#FFA200"/>
<path d="M41.1963 19.3318C41.2569 19.3299 41.3174 19.3281 41.3779 19.3265V62.6697C41.3174 62.6681 41.2569 62.6663 41.1963 62.6645V19.3318Z" fill="#FFA200" stroke="#FFA200"/>
<path d="M45.8174 19.3318C45.8759 19.3334 45.9343 19.335 45.9926 19.3368V62.6913C45.9343 62.6924 45.8759 62.6934 45.8174 62.6944V19.3318Z" fill="#FFA200" stroke="#FFA200"/>
<path d="M50.4453 19.6036C50.5037 19.6083 50.5621 19.6132 50.6206 19.6182V62.4489C50.5619 62.454 50.5036 62.4591 50.4453 62.4641V19.6036Z" fill="#FFA200" stroke="#FFA200"/>
<path d="M55.0674 20.1467C55.1281 20.156 55.1886 20.1653 55.249 20.1747V61.9164C55.1885 61.9254 55.128 61.9342 55.0674 61.9428V20.1467Z" fill="#FFA200" stroke="#FFA200"/>
<path d="M68.9463 23.7943C69.0069 23.8189 69.0674 23.8436 69.1279 23.8686V58.3054C69.0675 58.33 69.0069 58.3543 68.9463 58.3783V23.7943Z" fill="#FFA200" stroke="#FFA200"/>
<path d="M59.6953 20.9935C59.7539 21.0061 59.8123 21.0188 59.8706 21.0316V61.0871C59.8121 61.0999 59.7537 61.1124 59.6953 61.1248V20.9935Z" fill="#FFA200" stroke="#FFA200"/>
<path d="M64.3154 22.1827C64.3741 22.2 64.4325 22.2173 64.4907 22.2348V59.9129C64.4327 59.9304 64.3742 59.9477 64.3154 59.9649V22.1827Z" fill="#FFA200" stroke="#FFA200"/>
<path d="M73.5596 25.9623C73.6205 25.9955 73.681 26.0288 73.7411 26.0623V56.1508C73.6811 56.1839 73.6206 56.2168 73.5596 56.2496V25.9623Z" fill="#FFA200" stroke="#FFA200"/>
<path d="M78.1934 29.0052C78.2524 29.0528 78.3108 29.1006 78.3686 29.1486V53.0964C78.311 53.1432 78.2525 53.19 78.1934 53.2369V29.0052Z" fill="#FFA200" stroke="#FFA200"/>
<path d="M83.0039 47.8021C82.9451 47.9079 82.8846 48.0137 82.8223 48.1195V33.5999H83.0039V47.8021Z" fill="#FFA200" stroke="#FFA200"/>
</g>
<path d="M72.7796 48.1665L72.7795 48.1666C64.8376 52.2212 54.3753 54.2508 43.8733 54.2334C33.3715 54.2161 22.8847 52.1519 14.8944 48.0717L14.8943 48.0716C6.88605 43.9838 3.0241 38.7218 2.99335 33.6057C2.96262 28.4921 6.75835 23.2453 14.711 19.1836C22.6529 15.1317 33.1153 13.1021 43.6173 13.1188C54.1191 13.1354 64.6059 15.1982 72.5962 19.2784L72.5963 19.2785C80.6045 23.3663 84.4681 28.6297 84.4996 33.7466C84.5311 38.8608 80.7354 44.1076 72.7796 48.1665Z" fill="#FFD950" stroke="#FFA200"/>
<path d="M71.2831 45.8761L71.2826 45.8763C64.091 49.5519 54.3987 51.5862 44.0115 51.5862C33.5244 51.5862 23.7124 49.5244 16.3878 45.7875C15.7066 45.4339 15.0788 45.0876 14.4715 44.7206L14.4715 44.7205L14.4664 44.7175C8.87848 41.4297 5.99316 37.4901 5.99316 33.5408C5.99316 31.5384 6.74497 29.5219 8.24924 27.6105L8.24927 27.6106L8.25291 27.6058C9.95636 25.3874 12.6368 23.3069 16.1971 21.4734C23.4024 17.8142 33.0824 15.7635 43.4871 15.7635C51.4389 15.7635 59.0094 16.9577 65.3947 19.1603C67.4216 19.8627 69.3268 20.6692 71.0985 21.5792L71.1002 21.58C77.6594 24.9173 81.2255 29.0998 81.4747 33.2746L81.4763 33.3009L81.4806 33.3268C81.5044 33.4697 81.5054 33.6077 81.5054 33.809C81.5054 38.1446 78.0046 42.4505 71.2831 45.8761Z" fill="#FFC100" stroke="#FFA200"/>
<path d="M62.3453 26.8867L65.2046 25.4181L65.2013 26.6496L62.342 28.1183L62.3453 26.8867Z" fill="#E49408" stroke="#FFA200"/>
<mask id="mask9_106_34721" style="mask-type:luminance" maskUnits="userSpaceOnUse" x="46" y="27" width="9" height="4">
<path d="M53.4887 28.6069L53.4887 28.6069L53.4968 28.6109C53.5843 28.6536 53.6708 28.6979 53.7586 28.7442L53.7553 29.9816C52.6197 29.4141 51.5557 29.0003 50.4313 28.9034C49.4452 28.8185 48.4453 28.9794 47.3371 29.4425L47.3404 28.1817C48.4943 27.6323 49.4476 27.4645 50.3518 27.5424C51.3397 27.6276 52.3172 28.0091 53.4887 28.6069Z" fill="white" stroke="white"/>
</mask>
<g mask="url(#mask9_106_34721)">
<path d="M53.4887 28.6069L53.4887 28.6069L53.4968 28.6109C53.5843 28.6536 53.6708 28.6979 53.7586 28.7442L53.7553 29.9816C52.6197 29.4141 51.5557 29.0003 50.4313 28.9034C49.4452 28.8185 48.4453 28.9794 47.3371 29.4425L47.3404 28.1817C48.4943 27.6323 49.4476 27.4645 50.3518 27.5424C51.3397 27.6276 52.3172 28.0091 53.4887 28.6069Z" fill="#D78400" stroke="#FFA200"/>
</g>
<path d="M45.7711 28.9864L46.3431 28.692L46.3398 29.923L45.7678 30.2174L45.7711 28.9864Z" fill="#D78400" stroke="#FFA200"/>
<mask id="mask10_106_34721" style="mask-type:luminance" maskUnits="userSpaceOnUse" x="43" y="28" width="3" height="5">
<path d="M44.7612 30.738C44.5591 30.8503 44.3751 30.9642 44.2101 31.0805L44.2124 30.2356H44.2124V30.2343C44.2124 30.161 44.2449 30.0291 44.4458 29.8274C44.5288 29.744 44.6341 29.6556 44.7644 29.5622L44.7612 30.738Z" fill="white" stroke="white"/>
</mask>
<g mask="url(#mask10_106_34721)">
<path d="M44.7671 30.7391C44.5651 30.8521 44.381 30.9665 44.216 31.083L44.2182 30.2355H44.2182V30.2342C44.2182 30.1585 44.2515 30.0249 44.4503 29.8242C44.5332 29.7404 44.6389 29.6514 44.7702 29.5577L44.7671 30.7391Z" fill="#D78400" stroke="#FFA200"/>
</g>
<mask id="mask11_106_34721" style="mask-type:luminance" maskUnits="userSpaceOnUse" x="54" y="28" width="10" height="9">
<path d="M54.7561 29.2682C56.8095 30.3659 61.0434 32.7255 63.2417 33.9965L63.2385 35.2016C60.74 33.7685 56.4606 31.3867 54.7528 30.4945L54.7561 29.2682Z" fill="white" stroke="white"/>
</mask>
<g mask="url(#mask11_106_34721)">
<path d="M54.7561 29.2682C56.8095 30.3659 61.0434 32.7255 63.2417 33.9965L63.2385 35.2016C60.74 33.7685 56.4606 31.3867 54.7528 30.4945L54.7561 29.2682Z" fill="#D78400" stroke="#FFA200"/>
</g>
<path d="M64.2389 34.0144L68.0523 32.0545L68.049 33.2859L64.2356 35.2458L64.2389 34.0144Z" fill="#E49408" stroke="#FFA200"/>
<mask id="mask12_106_34721" style="mask-type:luminance" maskUnits="userSpaceOnUse" x="34" y="30" width="5" height="7">
<path d="M37.6662 34.8548V36.0713C35.3267 34.7354 34.6732 33.564 34.6729 32.6754C34.6729 32.6752 34.6729 32.675 34.6729 32.6748L34.6729 32.662C35.3227 33.4003 36.3061 34.132 37.6662 34.8548Z" fill="white" stroke="white"/>
</mask>
<g mask="url(#mask12_106_34721)">
<path d="M34.1787 32.6749V31.9946L37.6665 36.6448C35.0856 35.2276 34.1728 33.8794 34.1787 32.6749ZM37.668 36.0727C35.3257 34.7357 34.6744 33.5643 34.6787 32.6774L34.6787 32.6774V32.6749V32.6657C35.3282 33.4023 36.3102 34.1328 37.6713 34.8548L37.668 36.0727Z" fill="#E49408" stroke="#FFA200"/>
</g>
<path d="M38.6682 35.3675L41.7198 36.9247L41.7165 38.1608L38.6649 36.6036L38.6682 35.3675Z" fill="#E49408" stroke="#FFA200"/>
<mask id="mask13_106_34721" style="mask-type:luminance" maskUnits="userSpaceOnUse" x="42" y="36" width="2" height="5">
<path d="M42.7205 38.6806L42.7237 37.4955C42.8614 37.5922 42.9705 37.6827 43.0549 37.7666C43.2509 37.9617 43.2739 38.0805 43.2741 38.1324C43.2741 38.1325 43.2741 38.1327 43.2741 38.1328L43.2717 39.0183C43.1078 38.9047 42.9239 38.7924 42.7205 38.6806Z" fill="white" stroke="white"/>
</mask>
<g mask="url(#mask13_106_34721)">
<path d="M42.7205 38.6806L42.7237 37.4955C42.8614 37.5922 42.9705 37.6827 43.0549 37.7666C43.2509 37.9617 43.2739 38.0805 43.2741 38.1324C43.2741 38.1325 43.2741 38.1327 43.2741 38.1328L43.2717 39.0183C43.1078 38.9047 42.9239 38.7924 42.7205 38.6806Z" fill="#E49408" stroke="#FFA200"/>
</g>
<mask id="mask14_106_34721" style="mask-type:luminance" maskUnits="userSpaceOnUse" x="18" y="36" width="8" height="8">
<path d="M19.4018 38.0036C20.8217 39.2279 22.282 40.2675 24.8679 41.7364L24.8647 42.9435C22.2544 41.4339 20.9013 40.3933 19.399 39.0297L19.4018 38.0036Z" fill="white" stroke="white"/>
</mask>
<g mask="url(#mask14_106_34721)">
<path d="M19.4018 38.0036C20.8217 39.2279 22.282 40.2675 24.8679 41.7364L24.8647 42.9435C22.2544 41.4339 20.9013 40.3933 19.399 39.0297L19.4018 38.0036Z" fill="#E49408" stroke="#FFA200"/>
</g>
<mask id="mask15_106_34721" style="mask-type:luminance" maskUnits="userSpaceOnUse" x="48" y="37" width="6" height="8">
<path d="M51.6259 42.5092C51.03 43.0622 50.275 43.5746 49.4788 44.0287L49.4821 42.8148C50.4897 42.2778 51.5129 41.627 52.3125 40.8848C52.502 40.709 52.6825 40.5246 52.8491 40.332L52.849 40.3483C52.849 40.3484 52.849 40.3485 52.849 40.3485C52.8465 41.0492 52.4126 41.779 51.6259 42.5092Z" fill="white" stroke="white"/>
</mask>
<g mask="url(#mask15_106_34721)">
<path d="M51.6259 42.5092C51.03 43.0622 50.275 43.5746 49.4788 44.0287L49.4821 42.8148C50.4897 42.2778 51.5129 41.627 52.3125 40.8848C52.502 40.709 52.6825 40.5246 52.8491 40.332L52.849 40.3483C52.849 40.3484 52.849 40.3485 52.849 40.3485C52.8465 41.0492 52.4126 41.779 51.6259 42.5092Z" fill="#E49408" stroke="#FFA200"/>
</g>
<path d="M47.345 43.918L48.4801 43.3331L48.4768 44.5635L47.3384 45.1483L47.345 43.918Z" fill="#E49408" stroke="#FFA200"/>
<mask id="mask16_106_34721" style="mask-type:luminance" maskUnits="userSpaceOnUse" x="29" y="43" width="1" height="3">
<mask id="path-98-inside-3_106_34721" fill="white">
<path d="M29.3837 43.585L29.3774 45.9422C29.27 45.8864 29.1689 45.8361 29.0615 45.7803L29.0678 43.423C29.1753 43.4732 29.2763 43.5291 29.3837 43.585Z"/>
</mask>
<path d="M29.3837 43.585L29.3774 45.9422C29.27 45.8864 29.1689 45.8361 29.0615 45.7803L29.0678 43.423C29.1753 43.4732 29.2763 43.5291 29.3837 43.585Z" fill="white"/>
<path d="M29.3837 43.585L30.3837 43.5876L30.3854 42.9787L29.8451 42.6978L29.3837 43.585ZM29.3774 45.9422L28.9161 46.8295L30.373 47.5871L30.3774 45.9449L29.3774 45.9422ZM29.0615 45.7803L28.0615 45.7776L28.0599 46.3865L28.6002 46.6675L29.0615 45.7803ZM29.0678 43.423L29.4917 42.5173L28.072 41.8528L28.0678 43.4203L29.0678 43.423ZM28.3837 43.5823L28.3774 45.9396L30.3774 45.9449L30.3837 43.5876L28.3837 43.5823ZM29.8388 45.055C29.7806 45.0248 29.7247 44.9963 29.6731 44.9701C29.6205 44.9433 29.5721 44.9187 29.5229 44.8931L28.6002 46.6675C28.6583 46.6977 28.7142 46.7262 28.7658 46.7524C28.8185 46.7792 28.8668 46.8038 28.9161 46.8295L29.8388 45.055ZM30.0615 45.7829L30.0678 43.4257L28.0678 43.4203L28.0615 45.7776L30.0615 45.7829ZM28.6439 44.3287C28.7262 44.3672 28.7856 44.4011 28.9224 44.4722L29.8451 42.6978C29.767 42.6571 29.6243 42.5793 29.4917 42.5173L28.6439 44.3287Z" fill="white" mask="url(#path-98-inside-3_106_34721)"/>
</mask>
<g mask="url(#mask16_106_34721)">
<mask id="path-100-inside-4_106_34721" fill="white">
<path d="M29.3837 43.585L29.3774 45.9422C29.27 45.8864 29.1689 45.8361 29.0615 45.7803L29.0678 43.423C29.1753 43.4732 29.2763 43.5291 29.3837 43.585Z"/>
</mask>
<path d="M29.3837 43.585L29.3774 45.9422C29.27 45.8864 29.1689 45.8361 29.0615 45.7803L29.0678 43.423C29.1753 43.4732 29.2763 43.5291 29.3837 43.585Z" fill="#E49408"/>
<path d="M29.3837 43.585L30.3837 43.5876L30.3854 42.9787L29.8451 42.6978L29.3837 43.585ZM29.3774 45.9422L28.9161 46.8295L30.373 47.5871L30.3774 45.9449L29.3774 45.9422ZM29.0615 45.7803L28.0615 45.7776L28.0599 46.3865L28.6002 46.6675L29.0615 45.7803ZM29.0678 43.423L29.4917 42.5173L28.072 41.8528L28.0678 43.4203L29.0678 43.423ZM28.3837 43.5823L28.3774 45.9396L30.3774 45.9449L30.3837 43.5876L28.3837 43.5823ZM29.8388 45.055C29.7806 45.0248 29.7247 44.9963 29.6731 44.9701C29.6205 44.9433 29.5721 44.9187 29.5229 44.8931L28.6002 46.6675C28.6583 46.6977 28.7142 46.7262 28.7658 46.7524C28.8185 46.7792 28.8668 46.8038 28.9161 46.8295L29.8388 45.055ZM30.0615 45.7829L30.0678 43.4257L28.0678 43.4203L28.0615 45.7776L30.0615 45.7829ZM28.6439 44.3287C28.7262 44.3672 28.7856 44.4011 28.9224 44.4722L29.8451 42.6978C29.767 42.6571 29.6243 42.5793 29.4917 42.5173L28.6439 44.3287Z" fill="#FFA200" mask="url(#path-100-inside-4_106_34721)"/>
</g>
<path d="M25.9397 45.5893L28.5661 44.2423L28.5628 45.4688L25.9331 46.8192L25.9397 45.5893Z" fill="#E49408" stroke="#FFA200"/>
<path d="M22.1496 44.1698L24.935 45.588L24.9284 46.8256L22.1463 45.4067L22.1496 44.1698Z" fill="#D78400" stroke="#FFA200"/>
<path d="M64.6099 24.5998L61.6187 26.1362L60.7973 26.5581L61.5996 27.0154C64.1188 28.4513 66.1699 29.906 67.6628 31.1374L63.7572 33.1446C61.2516 31.6953 56.0727 28.8108 54.4923 28.0046C54.3863 27.9466 54.272 27.8867 54.1643 27.8302C54.0909 27.7918 54.0206 27.7549 53.9579 27.7212L53.9579 27.7211L53.9487 27.7164C52.7444 27.102 51.6273 26.6485 50.4431 26.5464C49.245 26.4432 48.0265 26.703 46.6182 27.4266L45.0389 28.2364L45.0383 28.2367C44.4306 28.5495 43.9556 28.8726 43.6438 29.2228C43.3215 29.5848 43.1441 30.0138 43.2361 30.4862C43.3218 30.9259 43.6222 31.2936 43.9879 31.6033C44.3612 31.9193 44.8622 32.2249 45.4567 32.5285L45.4568 32.5285L49.6143 34.6511C51.1922 35.4572 52.0766 36.2232 52.5077 36.9046C52.9198 37.5561 52.9329 38.1513 52.7029 38.7244C52.4605 39.3287 51.9338 39.9365 51.2106 40.5205C50.4939 41.0992 49.6227 41.6239 48.7479 42.0729L48.7475 42.0731L46.6183 43.1678C46.6183 43.1678 46.6182 43.1679 46.6181 43.1679C39.8489 46.6442 33.92 45.3391 29.611 43.1402C29.5557 43.1114 29.5022 43.0842 29.4509 43.0581C29.3985 43.0314 29.3483 43.0058 29.2968 42.9791L29.0676 42.8598L28.8378 42.9779L25.4321 44.7267L22.7513 43.3594L25.5984 41.8955L26.4245 41.4707L25.615 41.0151C22.7488 39.4017 21.2836 38.3374 19.7851 37.0119L23.65 35.0264C23.6822 35.045 23.7152 35.064 23.7488 35.0834C25.5945 36.1477 29.5273 38.4156 33.4006 40.3934C35.2785 41.3533 38.0467 42.3445 40.6424 41.0132C40.6425 41.0132 40.6425 41.0131 40.6426 41.0131L42.3864 40.1194L42.3869 40.1192C42.8571 39.8775 43.2761 39.6243 43.5949 39.3517C43.9067 39.0852 44.1824 38.7495 44.2518 38.332C44.3259 37.8857 44.1449 37.4817 43.831 37.1399C43.5252 36.807 43.0599 36.492 42.4494 36.1795L42.4488 36.1792L38.3987 34.1124C38.3987 34.1124 38.3986 34.1124 38.3986 34.1124C36.5435 33.1648 35.533 32.2797 35.0523 31.5077C34.5919 30.7682 34.6017 30.1097 34.864 29.4994C35.1402 28.8568 35.7105 28.2419 36.4175 27.6874C37.1175 27.1384 37.9106 26.6802 38.5764 26.3388L38.5769 26.3385L41.3556 24.9093C41.3559 24.9091 41.3561 24.909 41.3563 24.9089C47.4846 21.7824 53.0265 22.7211 57.9213 25.0764L58.1453 25.1842L58.3665 25.0707L61.9365 23.238L64.6099 24.5998Z" fill="#FFD950" stroke="#FFA200"/>
<mask id="mask17_106_34721" style="mask-type:luminance" maskUnits="userSpaceOnUse" x="29" y="43" width="18" height="6">
<path d="M29.8768 45.6341L29.8802 44.3844C34.1623 46.3846 39.8872 47.4486 46.3448 44.4166L46.3415 45.662C39.8256 48.8968 34.1034 47.7201 29.8768 45.6341Z" fill="white" stroke="white"/>
</mask>
<g mask="url(#mask17_106_34721)">
<path d="M29.8768 45.6341L29.8802 44.3844C34.1623 46.3846 39.8872 47.4486 46.3448 44.4166L46.3415 45.662C39.8256 48.8968 34.1034 47.7201 29.8768 45.6341Z" fill="#E49408" stroke="#FFA200"/>
</g>
<g opacity="0.3">
<path d="M71.0965 21.5795L71.0981 21.5803C77.4188 24.7993 80.9613 28.805 81.4333 32.8321L14.3065 44.6244C8.82217 41.3555 5.99121 37.4531 5.99121 33.5412C5.99121 31.5931 6.70281 29.6315 8.12661 27.7666L65.5081 19.2008C67.492 19.8937 69.3585 20.6868 71.0965 21.5795Z" fill="#F5EBCB" stroke="#FFA200"/>
</g>
<path d="M15.7481 23.5488L15.7476 23.549C11.0835 25.928 7.76603 28.8167 6.13353 31.9758C6.87665 28.1889 10.299 24.4907 16.1932 21.4805C16.6808 21.2385 17.177 21.0018 17.6799 20.7721V22.6237C17.0173 22.9192 16.3746 23.2302 15.7481 23.5488Z" fill="#F69503" stroke="#FFA200"/>
<path d="M48.624 17.9047V15.9361C57.1512 16.5047 64.9944 18.4544 71.0984 21.5743L71.0991 21.5746C77.1108 24.6366 80.5957 28.3918 81.3492 32.2274C79.6972 29.016 76.3197 26.0756 71.5532 23.6442C65.2916 20.4462 57.2787 18.459 48.624 17.9047Z" fill="#FFCC00" stroke="#FFA200"/>
<path d="M43.4848 15.7696L43.4866 15.7695C44.8802 15.7646 46.2606 15.8086 47.629 15.8779V17.8398C46.2607 17.7653 44.8748 17.7301 43.4848 17.7301C34.3079 17.7301 25.6353 19.2957 18.6787 22.1934V20.3294C25.5518 17.3888 34.2402 15.7695 43.4848 15.7696Z" fill="#FFB300" stroke="#FFA200"/>
<path d="M48.132 50.4892C47.5823 50.5171 47.0389 50.5394 46.4955 50.5618C46.1037 50.573 45.712 50.5786 45.3202 50.5841C44.1702 50.6009 43.0203 50.5953 41.8703 50.5618C41.4785 50.5562 41.0867 50.545 40.6887 50.5283L48.132 50.4892ZM48.132 50.4892L48.1067 49.9898C47.948 49.9979 47.7899 50.0055 47.632 50.0127V50.4892H48.132ZM47.632 6.78532C47.7799 6.7925 47.9286 6.80006 48.0785 6.80767L48.1067 6.8091L48.132 6.30975H47.632V6.78532ZM36.106 7.02579C36.1066 7.02575 36.1071 7.0257 36.1076 7.02566C36.1081 7.02561 36.1086 7.02556 36.1091 7.02552L36.0634 6.52761L36.106 7.02579ZM28.0961 8.21817C28.0964 8.21812 28.0966 8.21807 28.0969 8.21802C28.0971 8.21797 28.0973 8.21792 28.0976 8.21787L27.9946 7.72859L28.0961 8.21817ZM20.0683 10.4507C20.1789 10.4113 20.2896 10.3721 20.4004 10.3332V9.97974H19.9004L20.0683 10.4507ZM20.4004 46.6516V46.3003C20.2906 46.2611 20.1809 46.2216 20.0714 46.1818L19.9004 46.6516H20.4004ZM22.3385 46.9513C22.3381 46.9512 22.3378 46.9511 22.3374 46.951L22.1877 47.4281L22.3385 46.9513ZM23.3693 47.7855L23.5128 47.3066C23.5126 47.3065 23.5123 47.3064 23.5121 47.3064L23.3693 47.7855ZM31.5247 49.113C31.5245 49.113 31.5243 49.113 31.524 49.1129C31.5238 49.1129 31.5235 49.1129 31.5233 49.1128L31.4445 49.6066L31.5247 49.113ZM36.1139 49.7124C36.1126 49.7123 36.1113 49.7122 36.1101 49.712C36.1087 49.7119 36.1074 49.7118 36.106 49.7117L36.0634 50.2099L36.1139 49.7124ZM46.4812 50.062C46.4801 50.062 46.4791 50.062 46.478 50.0621C46.477 50.0621 46.476 50.0622 46.4749 50.0622L46.4955 50.5617L46.4812 50.062Z" fill="#FFB300" stroke="#FFA200"/>
<path d="M48.6123 49.9669V6.84593C49.0372 6.87368 49.4617 6.9062 49.884 6.94157L49.884 6.94161L49.8902 6.94205C50.2772 6.96964 50.6643 7.00274 51.0514 7.04137L51.0514 7.04138L51.0532 7.04155C52.2092 7.15264 53.3515 7.28584 54.4805 7.44664L54.4815 7.44678C54.8749 7.50199 55.2627 7.56279 55.6551 7.62433L55.6551 7.62433L55.657 7.62462C56.8159 7.80184 57.9564 8.01237 59.0787 8.25069L59.0786 8.25075L59.0861 8.25222C59.4777 8.32914 59.8559 8.41138 60.24 8.50447L60.24 8.50455L60.2488 8.50651C61.4137 8.76675 62.5539 9.06027 63.6694 9.38159L63.6707 9.38196C64.0582 9.49246 64.4462 9.60864 64.8379 9.72593C66.0068 10.0852 67.1447 10.4831 68.2515 10.9143L68.2514 10.9144L68.2592 10.9173C68.6449 11.0603 69.0352 11.2136 69.4179 11.3774L69.4179 11.3775L69.4272 11.3812C70.5176 11.8219 71.5781 12.3126 72.5963 12.8317C72.6309 12.8496 72.6675 12.8689 72.7071 12.8899C72.7455 12.9103 72.787 12.9324 72.8275 12.9532C73.2275 13.1632 73.6141 13.3727 73.9938 13.5873L73.995 13.5881C75.2408 14.2874 76.3728 15.0243 77.3914 15.782L77.3913 15.7821L77.4004 15.7886C77.8029 16.0743 78.1772 16.3725 78.5436 16.68L78.5453 16.6814C79.9082 17.8151 81.0235 18.9876 81.9135 20.1867L81.9158 20.1898C82.062 20.3836 82.1962 20.5723 82.3246 20.7616L82.4739 20.9815L82.7396 20.9808L84.5004 20.9765V29.763C84.4881 31.5322 84.0075 33.3225 83.0575 35.0669L83.0567 35.0684C82.7337 35.6664 82.3555 36.2596 81.9158 36.8427L81.9141 36.8449C81.0248 38.0378 79.9037 39.2046 78.5472 40.3216L78.5438 40.3245C78.1899 40.6211 77.8029 40.9147 77.3935 41.221C76.3662 41.9638 75.2407 42.6947 73.998 43.3814L73.9979 43.3813L73.9907 43.3855C73.623 43.5968 73.2344 43.7987 72.8307 44.005L72.8173 44.0118L72.8049 44.0191C72.8042 44.0195 72.8025 44.0205 72.7987 44.0224L72.7976 44.023C72.7918 44.0261 72.7819 44.0313 72.7698 44.0382C71.6985 44.5829 70.585 45.0941 69.4292 45.5555L69.4291 45.5554L69.4179 45.5602C69.0372 45.7231 68.6544 45.8705 68.2616 46.0138L68.2616 46.0137L68.2535 46.0168C67.148 46.442 66.0032 46.8292 64.8375 47.1838L64.8375 47.1837L64.8288 47.1865C64.4609 47.3058 64.0726 47.4148 63.6727 47.5271L63.6716 47.5274C62.5579 47.8427 61.4114 48.1252 60.2504 48.3804L60.2466 48.3812C59.8577 48.47 59.4804 48.5519 59.0928 48.6226L59.0857 48.6239L59.0787 48.6254C57.9598 48.863 56.8144 49.0623 55.6612 49.2285L55.6612 49.2284L55.6551 49.2294C55.2616 49.2911 54.8806 49.3508 54.4952 49.3941L54.4952 49.3939L54.4828 49.3956C53.3547 49.5508 52.2065 49.6784 51.0571 49.7839C51.0565 49.784 51.0559 49.784 51.0553 49.7841L50.9727 49.7911C50.6098 49.8222 50.2555 49.8526 49.8907 49.8782L49.8886 49.8783C49.4625 49.91 49.0371 49.9415 48.6123 49.9669Z" fill="#F69503" stroke="#FFA200"/>
<path d="M18.1832 45.9811C18.1069 45.9484 18.0306 45.9172 17.9545 45.8861C17.8229 45.8323 17.6922 45.7788 17.564 45.7186L19.4082 46.4587M18.1832 45.9811C18.2989 46.0289 18.4122 46.0724 18.5246 46.1156C18.5964 46.1432 18.6678 46.1707 18.7393 46.199C18.9635 46.2885 19.1857 46.3744 19.4082 46.4587M18.1832 45.9811L18.3802 45.5216C18.3791 45.5211 18.3781 45.5207 18.377 45.5202C18.376 45.5198 18.3749 45.5194 18.3739 45.5189L18.1832 45.9811ZM19.4082 46.4587C19.5744 46.5217 19.7407 46.5838 19.9082 46.6459V46.1124C19.7406 46.0499 19.5743 45.9873 19.4082 45.9236V46.4587ZM19.4082 10.6867C19.5747 10.6251 19.7406 10.5643 19.9082 10.5044V9.974C19.7397 10.0331 19.5735 10.0932 19.4082 10.1539V10.6867ZM18.9093 10.872C18.9102 10.8717 18.911 10.8713 18.9118 10.871L18.7329 10.4041L18.9067 10.8729C18.9076 10.8726 18.9085 10.8723 18.9093 10.872ZM14.7013 12.732C14.7014 12.732 14.7015 12.7319 14.7015 12.7319C14.7017 12.7318 14.7018 12.7317 14.702 12.7317L14.4743 12.2868L14.7013 12.732ZM2.48145 20.9644H2.98145V20.4644H2.48145V20.9644ZM4.85093 20.0678L4.85094 20.0678L4.85093 20.0678ZM2.50039 29.2539H2.48145V29.7539H2.50039H2.98145V29.7364V29.2539H2.50039ZM4.13249 34.2069C4.13244 34.2068 4.13239 34.2067 4.13234 34.2066L3.68195 34.4238L4.13249 34.2069ZM8.63325 39.8262C8.63252 39.8256 8.63179 39.8249 8.63106 39.8243L8.62876 39.8224L8.30723 40.2052L8.63325 39.8262ZM14.3444 43.6437C14.3434 43.6432 14.3423 43.6427 14.3413 43.6421C14.3402 43.6416 14.3391 43.641 14.338 43.6404L14.114 44.0875L14.3444 43.6437ZM14.6706 44.377L14.9001 43.934C14.9 43.934 14.8999 43.9339 14.8998 43.9339L14.6706 44.377Z" fill="#FFCC00" stroke="#FFA200"/>
<g opacity="0.3">
<path d="M8.82031 16.562C8.8807 16.5111 8.9412 16.4604 9.00192 16.41V40.1291C8.9413 40.0788 8.88081 40.0282 8.82031 39.9776V16.562Z" fill="#FFA200" stroke="#FFA200"/>
<path d="M4.19141 34.3136V20.9751H4.36665V34.6592C4.30648 34.5442 4.2481 34.4291 4.19141 34.3136Z" fill="#FFA200" stroke="#FFA200"/>
<path d="M13.4355 13.4175C13.4958 13.3843 13.5563 13.3511 13.6171 13.3181V43.2496C13.5563 43.2154 13.4958 43.1811 13.4355 43.1465V13.4175Z" fill="#FFA200" stroke="#FFA200"/>
<path d="M22.6914 9.58037C22.7518 9.56192 22.8123 9.54372 22.873 9.5257V47.1137C22.8124 47.0955 22.7518 47.0771 22.6914 47.0587V9.58037Z" fill="#FFA200" stroke="#FFA200"/>
<path d="M18.1671 11.1703C18.1924 11.16 18.2179 11.1496 18.2436 11.1391V45.4621C18.2042 45.4458 18.1665 45.4304 18.13 45.4155C18.1091 45.407 18.0886 45.3986 18.0684 45.3903V11.2104C18.101 11.1971 18.1338 11.1837 18.1671 11.1703Z" fill="#FFA200" stroke="#FFA200"/>
<path d="M31.9463 7.52423C32.0026 7.51556 32.0589 7.50698 32.1152 7.49854V49.1989C32.0589 49.1905 32.0026 49.1819 31.9463 49.1731V7.52423Z" fill="#FFA200" stroke="#FFA200"/>
<path d="M27.3174 8.37744C27.3781 8.36419 27.4386 8.35099 27.499 8.3379V48.3288C27.4383 48.3154 27.3778 48.3019 27.3174 48.2882V8.37744Z" fill="#FFA200" stroke="#FFA200"/>
<path d="M36.5674 6.97921C36.626 6.97392 36.6844 6.96867 36.7427 6.96351V49.7624C36.6844 49.7572 36.626 49.7519 36.5674 49.7466V6.97921Z" fill="#FFA200" stroke="#FFA200"/>
<path d="M41.1963 6.71004C41.2571 6.70803 41.3175 6.70606 41.3779 6.70418V50.0456C41.3174 50.044 41.2569 50.0422 41.1963 50.0403V6.71004Z" fill="#FFA200" stroke="#FFA200"/>
<path d="M45.8174 6.71329C45.8759 6.71484 45.9343 6.71652 45.9926 6.71832V50.0728C45.9343 50.0739 45.8759 50.0749 45.8174 50.0759V6.71329Z" fill="#FFA200" stroke="#FFA200"/>
<path d="M50.4453 6.98124C50.5035 6.98616 50.5619 6.99123 50.6206 6.9964V49.823C50.5621 49.8279 50.5037 49.8328 50.4453 49.8375V6.98124Z" fill="#FFA200" stroke="#FFA200"/>
<path d="M55.0674 7.52435C55.128 7.53382 55.1885 7.54328 55.249 7.55275V49.2895C55.1883 49.2987 55.1278 49.3076 55.0674 49.3164V7.52435Z" fill="#FFA200" stroke="#FFA200"/>
<path d="M68.9463 11.1738C69.0068 11.1986 69.0673 11.2237 69.1279 11.249V45.6867C69.0675 45.7112 69.0069 45.7355 68.9463 45.7595V11.1738Z" fill="#FFA200" stroke="#FFA200"/>
<path d="M59.6953 8.37058C59.7539 8.38314 59.8123 8.39596 59.8706 8.40904V48.4683C59.8121 48.4811 59.7537 48.4936 59.6953 48.506V8.37058Z" fill="#FFA200" stroke="#FFA200"/>
<path d="M64.3154 9.56216C64.3739 9.5796 64.4324 9.59724 64.4907 9.61507V47.2943C64.4327 47.3117 64.3742 47.3291 64.3154 47.3463V9.56216Z" fill="#FFA200" stroke="#FFA200"/>
<path d="M73.5596 13.3381C73.6205 13.3714 73.681 13.4047 73.7411 13.4381V43.5266C73.6811 43.5597 73.6206 43.5926 73.5596 43.6255V13.3381Z" fill="#FFA200" stroke="#FFA200"/>
<path d="M78.1934 16.3834C78.2523 16.4309 78.3107 16.4785 78.3686 16.5262V40.4721C78.311 40.5189 78.2525 40.5657 78.1934 40.6126V16.3834Z" fill="#FFA200" stroke="#FFA200"/>
<path d="M83.0039 35.1789C82.9451 35.2854 82.8846 35.3916 82.8223 35.4977V20.9758H83.0039V35.1789Z" fill="#FFA200" stroke="#FFA200"/>
</g>
<path d="M14.8943 35.453L14.8944 35.453C22.8846 39.5333 33.3714 41.596 43.8732 41.6127C54.3752 41.6294 64.8376 39.5998 72.7796 35.5479C80.7354 31.4861 84.5311 26.2393 84.4996 21.1258C84.4681 16.0097 80.6046 10.7477 72.5963 6.65983L72.5962 6.6598C64.6059 2.57955 54.1191 0.516774 43.6173 0.500102C33.1154 0.483429 22.6531 2.51298 14.7112 6.56481L14.8943 35.453ZM14.8943 35.453C6.88605 31.3652 3.0241 26.1032 2.99335 20.9871M14.8943 35.453L2.99335 20.9871M2.99335 20.9871C2.96262 15.8735 6.75836 10.6267 14.711 6.56491L2.99335 20.9871Z" fill="#FFD950" stroke="#FFA200"/>
<path d="M71.2831 33.2521L71.2826 33.2524C64.091 36.9279 54.3987 38.9623 44.0115 38.9623C33.5244 38.9623 23.7124 36.9005 16.3878 33.1636C15.7066 32.81 15.0788 32.4637 14.4715 32.0967L14.4715 32.0966L14.4664 32.0936C8.87848 28.8058 5.99316 24.8662 5.99316 20.9169C5.99316 18.9145 6.74497 16.898 8.24924 14.9866L8.24927 14.9867L8.25291 14.9819C9.95637 12.7635 12.6368 10.6829 16.1972 8.84947C23.4022 5.18478 33.082 3.13965 43.4871 3.13965C51.4389 3.13965 59.0094 4.33382 65.3947 6.53642C67.4216 7.23881 69.3268 8.04529 71.0985 8.95526L71.1002 8.95613C77.6594 12.2934 81.2255 16.4758 81.4747 20.6507L81.4762 20.6758L81.4802 20.7006C81.5045 20.8509 81.5054 20.9855 81.5054 21.1851C81.5054 25.5207 78.0046 29.8266 71.2831 33.2521Z" fill="#FFC100" stroke="#FFA200"/>
<path d="M62.3453 14.2622L65.2046 12.7936L65.2013 14.0251L62.342 15.4938L62.3453 14.2622Z" fill="#E49408" stroke="#FFA200"/>
<mask id="mask18_106_34721" style="mask-type:luminance" maskUnits="userSpaceOnUse" x="46" y="14" width="9" height="5">
<path d="M53.4873 15.976C53.5786 16.0233 53.6685 16.0707 53.7586 16.119L53.7553 17.3571C52.6197 16.7895 51.5559 16.3758 50.4317 16.2782C49.4456 16.1926 48.4455 16.3525 47.3371 16.8137L47.3404 15.5516C48.4943 15.0021 49.4476 14.8344 50.3518 14.9123C51.3393 14.9974 52.3164 15.3787 53.4873 15.976Z" fill="white" stroke="white"/>
</mask>
<g mask="url(#mask18_106_34721)">
<path d="M53.4873 15.976C53.5786 16.0233 53.6685 16.0707 53.7586 16.119L53.7553 17.3571C52.6197 16.7895 51.5559 16.3758 50.4317 16.2782C49.4456 16.1926 48.4455 16.3525 47.3371 16.8137L47.3404 15.5516C48.4943 15.0021 49.4476 14.8344 50.3518 14.9123C51.3393 14.9974 52.3164 15.3787 53.4873 15.976Z" fill="#D78400" stroke="#FFA200"/>
</g>
<path d="M45.7711 16.3624L46.3431 16.068L46.3398 17.2989L45.7678 17.5934L45.7711 16.3624Z" fill="#D78400" stroke="#FFA200"/>
<mask id="mask19_106_34721" style="mask-type:luminance" maskUnits="userSpaceOnUse" x="43" y="16" width="3" height="4">
<path d="M44.7612 18.1149C44.5591 18.2279 44.3751 18.3423 44.2101 18.4587L44.2124 17.6114H44.2124V17.61C44.2124 17.5367 44.2449 17.4048 44.4458 17.2032C44.5288 17.1198 44.6341 17.0313 44.7644 16.938L44.7612 18.1149Z" fill="white" stroke="white"/>
</mask>
<g mask="url(#mask19_106_34721)">
<path d="M44.7671 18.1147C44.5652 18.2275 44.3811 18.3416 44.216 18.4578L44.2182 17.6112H44.2182V17.6099C44.2182 17.5349 44.2509 17.4029 44.4498 17.2025C44.5329 17.1188 44.6387 17.0298 44.7702 16.9359L44.7671 18.1147Z" fill="#D78400" stroke="#FFA200"/>
</g>
<mask id="mask20_106_34721" style="mask-type:luminance" maskUnits="userSpaceOnUse" x="54" y="15" width="10" height="9">
<path d="M54.7561 16.643C56.8095 17.7407 61.0434 20.1003 63.2417 21.3712L63.2385 22.5764C60.74 21.1433 56.4606 18.7615 54.7528 17.8693L54.7561 16.643Z" fill="white" stroke="white"/>
</mask>
<g mask="url(#mask20_106_34721)">
<path d="M54.7561 16.643C56.8095 17.7407 61.0434 20.1003 63.2417 21.3712L63.2385 22.5764C60.74 21.1433 56.4606 18.7615 54.7528 17.8693L54.7561 16.643Z" fill="#D78400" stroke="#FFA200"/>
</g>
<path d="M64.2389 21.3904L68.0523 19.4349L68.049 20.6668L64.2356 22.6223L64.2389 21.3904Z" fill="#E49408" stroke="#FFA200"/>
<mask id="mask21_106_34721" style="mask-type:luminance" maskUnits="userSpaceOnUse" x="34" y="17" width="5" height="8">
<path d="M37.6654 22.2307L37.6621 23.4493C35.3278 22.1172 34.6732 20.941 34.6729 20.0517C34.6729 20.0515 34.6729 20.0513 34.6729 20.0511L34.6729 20.0384C35.3226 20.7765 36.3057 21.5081 37.6654 22.2307Z" fill="white" stroke="white"/>
</mask>
<g mask="url(#mask21_106_34721)">
<path d="M34.1787 20.0511V19.3722L37.6665 24.021C35.0856 22.6038 34.1728 21.2556 34.1787 20.0511ZM37.668 23.449C35.3257 22.1119 34.6744 20.9406 34.6787 20.0536H34.6787V20.0511V20.044C35.3281 20.7812 36.3101 21.5117 37.6713 22.2315L37.668 23.449Z" fill="#E49408" stroke="#FFA200"/>
</g>
<path d="M38.6682 22.7427L41.7198 24.2999L41.7165 25.5361L38.6649 23.9789L38.6682 22.7427Z" fill="#E49408" stroke="#FFA200"/>
<mask id="mask22_106_34721" style="mask-type:luminance" maskUnits="userSpaceOnUse" x="42" y="24" width="2" height="4">
<path d="M42.7205 26.0565L42.7237 24.8714C42.8614 24.9681 42.9705 25.0585 43.0549 25.1425C43.2509 25.3376 43.2739 25.4563 43.2741 25.5082C43.2741 25.5084 43.2741 25.5086 43.2741 25.5087L43.2717 26.3942C43.1078 26.2806 42.9239 26.1683 42.7205 26.0565Z" fill="white" stroke="white"/>
</mask>
<g mask="url(#mask22_106_34721)">
<path d="M42.7205 26.0565L42.7237 24.8714C42.8614 24.9681 42.9705 25.0585 43.0549 25.1425C43.2509 25.3376 43.2739 25.4563 43.2741 25.5082C43.2741 25.5084 43.2741 25.5086 43.2741 25.5087L43.2717 26.3942C43.1078 26.2806 42.9239 26.1683 42.7205 26.0565Z" fill="#E49408" stroke="#FFA200"/>
</g>
<mask id="mask23_106_34721" style="mask-type:luminance" maskUnits="userSpaceOnUse" x="18" y="24" width="8" height="8">
<path d="M19.4018 25.3829C20.8213 26.6047 22.2814 27.648 24.8679 29.1175L24.8647 30.3245C22.2551 28.8147 20.9017 27.77 19.399 26.4103L19.4018 25.3829Z" fill="white" stroke="white"/>
</mask>
<g mask="url(#mask23_106_34721)">
<path d="M19.4018 25.3829C20.8213 26.6047 22.2814 27.648 24.8679 29.1175L24.8647 30.3245C22.2551 28.8147 20.9017 27.77 19.399 26.4103L19.4018 25.3829Z" fill="#E49408" stroke="#FFA200"/>
</g>
<mask id="mask24_106_34721" style="mask-type:luminance" maskUnits="userSpaceOnUse" x="48" y="25" width="6" height="8">
<path d="M52.3125 28.2654C52.502 28.0895 52.6826 27.905 52.849 27.7123L52.849 27.7247C52.849 27.7247 52.849 27.7248 52.849 27.7248C52.8465 28.4255 52.4126 29.1553 51.6259 29.8855C51.03 30.4386 50.275 30.951 49.4788 31.4051L49.4821 30.1918C50.4898 29.6572 51.5129 29.0075 52.3125 28.2654Z" fill="white" stroke="white"/>
</mask>
<g mask="url(#mask24_106_34721)">
<path d="M52.3125 28.2654C52.502 28.0895 52.6826 27.905 52.849 27.7123L52.849 27.7247C52.849 27.7247 52.849 27.7248 52.849 27.7248C52.8465 28.4255 52.4126 29.1553 51.6259 29.8855C51.03 30.4386 50.275 30.951 49.4788 31.4051L49.4821 30.1918C50.4898 29.6572 51.5129 29.0075 52.3125 28.2654Z" fill="#E49408" stroke="#FFA200"/>
</g>
<path d="M47.345 31.2943L48.4801 30.7124L48.4768 31.944L47.3384 32.5259L47.345 31.2943Z" fill="#E49408" stroke="#FFA200"/>
<mask id="mask25_106_34721" style="mask-type:luminance" maskUnits="userSpaceOnUse" x="29" y="30" width="1" height="4">
<mask id="path-153-inside-5_106_34721" fill="white">
<path d="M29.3837 30.9599L29.3774 33.3171C29.27 33.2613 29.1689 33.211 29.0615 33.1551L29.0678 30.7979C29.1753 30.8537 29.2763 30.904 29.3837 30.9599Z"/>
</mask>
<path d="M29.3837 30.9599L29.3774 33.3171C29.27 33.2613 29.1689 33.211 29.0615 33.1551L29.0678 30.7979C29.1753 30.8537 29.2763 30.904 29.3837 30.9599Z" fill="white"/>
<path d="M29.3837 30.9599L30.3837 30.9625L30.3854 30.3536L29.8451 30.0727L29.3837 30.9599ZM29.3774 33.3171L28.9161 34.2043L30.373 34.962L30.3774 33.3198L29.3774 33.3171ZM29.0615 33.1551L28.0615 33.1525L28.0599 33.7614L28.6002 34.0423L29.0615 33.1551ZM29.0678 30.7979L29.5292 29.9106L28.0722 29.153L28.0678 30.7952L29.0678 30.7979ZM28.3837 30.9572L28.3774 33.3144L30.3774 33.3198L30.3837 30.9625L28.3837 30.9572ZM29.8388 32.4299C29.7806 32.3997 29.7247 32.3712 29.6731 32.345C29.6205 32.3181 29.5721 32.2935 29.5229 32.2679L28.6002 34.0423C28.6583 34.0726 28.7142 34.1011 28.7658 34.1273C28.8185 34.1541 28.8668 34.1787 28.9161 34.2043L29.8388 32.4299ZM30.0615 33.1578L30.0678 30.8005L28.0678 30.7952L28.0615 33.1525L30.0615 33.1578ZM28.6065 31.6851C28.6646 31.7153 28.7205 31.7437 28.7721 31.77C28.8247 31.7968 28.8731 31.8214 28.9224 31.8471L29.8451 30.0727C29.787 30.0424 29.7311 30.014 29.6795 29.9877C29.6269 29.9609 29.5785 29.9363 29.5292 29.9106L28.6065 31.6851Z" fill="white" mask="url(#path-153-inside-5_106_34721)"/>
</mask>
<g mask="url(#mask25_106_34721)">
<mask id="path-155-inside-6_106_34721" fill="white">
<path d="M29.3837 30.9599L29.3774 33.3171C29.27 33.2613 29.1689 33.211 29.0615 33.1551L29.0678 30.7979C29.1753 30.8537 29.2763 30.904 29.3837 30.9599Z"/>
</mask>
<path d="M29.3837 30.9599L29.3774 33.3171C29.27 33.2613 29.1689 33.211 29.0615 33.1551L29.0678 30.7979C29.1753 30.8537 29.2763 30.904 29.3837 30.9599Z" fill="#E49408"/>
<path d="M29.3837 30.9599L30.3837 30.9625L30.3854 30.3536L29.8451 30.0727L29.3837 30.9599ZM29.3774 33.3171L28.9161 34.2043L30.373 34.962L30.3774 33.3198L29.3774 33.3171ZM29.0615 33.1551L28.0615 33.1525L28.0599 33.7614L28.6002 34.0423L29.0615 33.1551ZM29.0678 30.7979L29.5292 29.9106L28.0722 29.153L28.0678 30.7952L29.0678 30.7979ZM28.3837 30.9572L28.3774 33.3144L30.3774 33.3198L30.3837 30.9625L28.3837 30.9572ZM29.8388 32.4299C29.7806 32.3997 29.7247 32.3712 29.6731 32.345C29.6205 32.3181 29.5721 32.2935 29.5229 32.2679L28.6002 34.0423C28.6583 34.0726 28.7142 34.1011 28.7658 34.1273C28.8185 34.1541 28.8668 34.1787 28.9161 34.2043L29.8388 32.4299ZM30.0615 33.1578L30.0678 30.8005L28.0678 30.7952L28.0615 33.1525L30.0615 33.1578ZM28.6065 31.6851C28.6646 31.7153 28.7205 31.7437 28.7721 31.77C28.8247 31.7968 28.8731 31.8214 28.9224 31.8471L29.8451 30.0727C29.787 30.0424 29.7311 30.014 29.6795 29.9877C29.6269 29.9609 29.5785 29.9363 29.5292 29.9106L28.6065 31.6851Z" fill="#FFA200" mask="url(#path-155-inside-6_106_34721)"/>
</g>
<path d="M25.9397 32.9695L28.5661 31.6185L28.5628 32.8494L25.9331 34.1998L25.9397 32.9695Z" fill="#E49408" stroke="#FFA200"/>
<path d="M22.1496 31.5466L24.935 32.969L24.9284 34.2058L22.1463 32.7828L22.1496 31.5466Z" fill="#D78400" stroke="#FFA200"/>
<path d="M64.6074 11.9762L61.6182 13.5116L60.7968 13.9335L61.599 14.3907C64.1182 15.8266 66.1694 17.2814 67.6623 18.5127L63.7567 20.52C61.2511 19.0707 56.0722 16.1862 54.4918 15.38C54.3858 15.322 54.2716 15.2621 54.1639 15.2057C54.0905 15.1672 54.0201 15.1303 53.9574 15.0966L53.9574 15.0965L53.9482 15.0918C52.7438 14.4774 51.6268 14.0239 50.4426 13.9218C49.2446 13.8186 48.0262 14.0784 46.6181 14.8018L64.6074 11.9762ZM64.6074 11.9762L61.9302 10.6187L58.3597 12.4517L58.1385 12.5652L57.9145 12.4574C53.0197 10.1021 47.4777 9.16333 41.3494 12.2899C41.3492 12.29 41.349 12.2901 41.3488 12.2902L38.57 13.7195L38.5695 13.7198C37.9038 14.0612 37.1107 14.5194 36.4106 15.0684C35.7036 15.6229 35.1333 16.2378 34.8571 16.8804C34.5948 17.4907 34.585 18.1492 35.0454 18.8887C35.5261 19.6607 36.5366 20.5458 38.3917 21.4933C38.3917 21.4934 38.3918 21.4934 38.3919 21.4934L42.442 23.5601L42.4426 23.5604C43.053 23.873 43.5184 24.188 43.8242 24.5209C44.138 24.8626 44.3191 25.2666 44.2449 25.713C44.1756 26.1304 43.8999 26.4661 43.5881 26.7327C43.2693 27.0053 42.8503 27.2585 42.38 27.5002L42.3795 27.5004L40.6358 28.3941C40.6357 28.3941 40.6357 28.3941 40.6356 28.3942C38.04 29.7255 35.2719 28.7344 33.394 27.7745C29.5208 25.7968 25.5881 23.529 23.7423 22.4645C23.7085 22.445 23.6755 22.426 23.6431 22.4073L19.7782 24.3929C21.2767 25.7183 22.742 26.7827 25.6082 28.3961L26.4176 28.8517L25.5916 29.2765L22.7445 30.7404L25.4253 32.1077L28.8309 30.3589L29.0608 30.2408L29.29 30.36C29.3415 30.3868 29.3917 30.4124 29.4441 30.4391L29.4447 30.4394C29.4959 30.4654 29.5491 30.4925 29.6042 30.5211C33.9132 32.7201 39.842 34.0252 46.6111 30.549C46.6113 30.5489 46.6114 30.5489 46.6115 30.5488L48.7466 29.4487L48.7473 29.4483C49.6222 28.9993 50.4934 28.4746 51.2101 27.8959C51.9333 27.3119 52.4599 26.7041 52.7024 26.0998C52.9324 25.5266 52.9193 24.9315 52.5071 24.28C52.0761 23.5987 51.1917 22.8326 49.6139 22.0265C49.6138 22.0265 49.6138 22.0265 49.6138 22.0265L45.4562 19.9039L45.4562 19.9038C44.8617 19.6002 44.3607 19.2947 43.9874 18.9787C43.6216 18.669 43.3213 18.3013 43.2356 17.8616C43.1436 17.3891 43.321 16.9601 43.6432 16.5982C43.9551 16.248 44.4301 15.9249 45.0377 15.6121L45.0384 15.6118L46.6177 14.802L64.6074 11.9762Z" fill="#FFD950" stroke="#FFA200"/>
<mask id="mask26_106_34721" style="mask-type:luminance" maskUnits="userSpaceOnUse" x="29" y="30" width="18" height="6">
<path d="M29.8768 33.0094L29.8801 31.7605C34.1628 33.765 39.8876 34.8241 46.3448 31.792L46.3415 33.0374C39.8256 36.2721 34.1034 35.0955 29.8768 33.0094Z" fill="white" stroke="white"/>
</mask>
<g mask="url(#mask26_106_34721)">
<path d="M29.8768 33.0094L29.8801 31.7605C34.1628 33.765 39.8876 34.8241 46.3448 31.792L46.3415 33.0374C39.8256 36.2721 34.1034 35.0955 29.8768 33.0094Z" fill="#E49408" stroke="#FFA200"/>
</g>
<g opacity="0.3">
<path d="M71.0965 8.95526L71.0981 8.95604C77.4188 12.175 80.9613 16.1807 81.4333 20.2078L14.3065 32.0001C8.82217 28.7313 5.99121 24.8288 5.99121 20.9169C5.99121 18.9688 6.70281 17.0073 8.12661 15.1423L65.5081 6.57655C67.492 7.26947 69.3585 8.06258 71.0965 8.95526Z" fill="#F5EBCB" stroke="#FFA200"/>
</g>
<path d="M15.7481 10.925L15.7476 10.9253C11.0822 13.3049 7.76433 16.1977 6.13231 19.3567C6.87288 15.565 10.2957 11.8686 16.1932 8.85669C16.6808 8.61475 17.177 8.37803 17.6799 8.14828V9.99994C17.0173 10.2955 16.3746 10.6064 15.7481 10.925Z" fill="#F69503" stroke="#FFA200"/>
<path d="M71.0984 8.95026L71.0988 8.95043C77.1107 12.0174 80.5955 15.7689 81.3491 19.6033C79.6971 16.392 76.3197 13.4516 71.5532 11.0202C65.2916 7.82217 57.2786 5.83494 48.624 5.27542V3.31203C57.1512 3.88069 64.9944 5.83035 71.0984 8.95026Z" fill="#FFCC00" stroke="#FFA200"/>
<path d="M43.4848 3.15094L43.4866 3.15093C44.8814 3.14596 46.2621 3.18557 47.629 3.25791V5.22118C46.2607 5.14673 44.8748 5.11149 43.4848 5.11149C34.3079 5.11149 25.6353 6.67711 18.6787 9.57477V7.71081C25.5518 4.77022 34.2402 3.15093 43.4848 3.15094Z" fill="#FFB300" stroke="#FFA200"/>
</g>
</svg>
