<svg width="40" height="39" viewBox="0 0 40 39" fill="none" xmlns="http://www.w3.org/2000/svg">
<rect x="1.7832" y="1.21738" width="36.7391" height="36.7391" rx="18.3696" stroke="#F4B521" stroke-width="2"/>
<path d="M12.3914 19.9823L9.35309 23.018L6.31738 19.9823L9.35309 16.9465L12.3914 19.9823ZM19.7575 12.6109L24.9597 17.8158L27.9954 14.7801L19.7575 6.54214L11.5196 14.7801L14.5553 17.8158L19.7575 12.6109ZM30.1645 16.9465L27.1288 19.9823L30.1645 23.018L33.1976 19.9823L30.1645 16.9465ZM19.7575 27.3536L14.5553 22.1514L11.5196 25.1845L19.7575 33.4224L27.9954 25.1845L24.9597 22.1514L19.7575 27.3536ZM19.7575 23.018L22.7932 19.9823L19.7575 16.9465L16.7218 19.9823L19.7575 23.018Z" fill="#F4B521"/>
</svg>
