<svg width="40" height="40" viewBox="0 0 40 40" fill="none" xmlns="http://www.w3.org/2000/svg">
<rect x="1.87012" y="1.78262" width="36.7391" height="36.7391" rx="18.3696" stroke="#F4B521" stroke-width="2"/>
<path d="M31.1912 10.8611C31.1561 10.9197 31.0624 11.2006 30.9805 11.4933C30.9103 11.7859 30.7464 12.3713 30.6176 12.8044L30.3952 13.577L29.4235 13.9048C28.8967 14.0687 28.4168 14.2443 28.3582 14.2794C28.2997 14.3145 28.6977 14.5019 29.2596 14.7126C29.8216 14.9116 30.3249 15.1223 30.3718 15.1808C30.4888 15.3096 31.0976 17.2178 31.0976 17.4402C31.0976 17.5221 31.1444 17.5807 31.1912 17.5807C31.238 17.5807 31.4253 17.089 31.6127 16.492C31.7882 15.8832 31.9756 15.333 32.0341 15.2394C32.0809 15.1574 32.6077 14.9233 33.2047 14.7126L34.2934 14.338L33.1579 13.9516C32.0809 13.577 32.0224 13.5419 31.917 13.1439C31.8468 12.9098 31.6712 12.2776 31.5307 11.7391C31.3785 11.1889 31.2263 10.8026 31.1912 10.8611Z" fill="#F4B521"/>
<path d="M11.7349 12.8512C11.2549 13.3195 11.6178 13.5185 14.1113 14.1741C16.5111 14.8179 16.6984 14.8179 16.6984 14.2326C16.6984 13.9985 16.5931 13.9282 15.9141 13.7292C15.0361 13.4717 12.0392 12.6639 11.9573 12.6639C11.9339 12.6639 11.8285 12.7459 11.7349 12.8512Z" fill="#F4B521"/>
<path d="M23.9565 13.2727C22.7625 13.5888 21.7206 13.9166 21.6504 13.9751C21.4514 14.139 21.4631 14.4785 21.6621 14.6424C21.8026 14.7594 22.3059 14.6541 24.097 14.1858C25.3379 13.8463 26.4266 13.5185 26.5086 13.46C26.7193 13.2727 26.6842 12.9215 26.4266 12.781C26.2978 12.7225 26.1808 12.664 26.1574 12.6757C26.134 12.6757 25.1506 12.9449 23.9565 13.2727Z" fill="#F4B521"/>
<path d="M13.1862 16.0354L12.835 16.3866V18.845C12.835 21.1277 12.8467 21.315 13.0691 21.596C13.3735 21.9823 13.8885 22.0994 14.3334 21.8652C14.8953 21.5726 14.9655 21.2565 14.9187 18.6577C14.8836 16.4568 14.8719 16.2812 14.6378 16.0588C14.509 15.9301 14.2046 15.7896 13.9705 15.7427C13.6076 15.6842 13.5022 15.731 13.1862 16.0354Z" fill="#F4B521"/>
<path d="M24.0735 16.0237C23.9798 16.0588 23.7808 16.1993 23.6403 16.3281C23.3711 16.5622 23.3711 16.6207 23.3711 19.1259C23.3711 21.514 23.3828 21.6896 23.6052 21.9121C24.1437 22.4506 24.9398 22.3335 25.2675 21.6779C25.4431 21.3267 25.4783 20.9287 25.4783 19.1259C25.4783 16.691 25.3846 16.2929 24.7525 16.0705C24.3544 15.93 24.331 15.93 24.0735 16.0237Z" fill="#F4B521"/>
<path d="M7.55572 18.845C6.33824 19.4771 5.85828 20.8585 6.39677 22.1228C7.42695 24.5226 11.0794 23.9724 11.2901 21.397C11.3837 20.2146 10.8569 19.2664 9.8619 18.7981C9.04244 18.4118 8.35176 18.4352 7.55572 18.845Z" fill="#F4B521"/>
<path d="M28.7105 18.6342C26.3809 19.3366 26.3223 22.7315 28.6285 23.5275C30.3377 24.1129 32.0234 22.9071 32.0351 21.1043C32.0351 19.3483 30.3962 18.1309 28.7105 18.6342Z" fill="#F4B521"/>
<path d="M12.8003 25.2835C12.4257 25.6933 12.5544 26.1264 13.1983 26.7351C14.369 27.8238 15.9142 28.5379 17.7638 28.8306C18.6769 28.9711 21.2875 28.9125 21.9079 28.7252C22.3411 28.6082 22.622 28.1048 22.4347 27.7653C22.2357 27.4024 21.9548 27.3088 21.3811 27.4141C20.55 27.578 18.2438 27.5429 17.3424 27.3556C16.2303 27.1214 15.0128 26.501 14.1348 25.7167C13.3622 25.026 13.1047 24.944 12.8003 25.2835Z" fill="#F4B521"/>
</svg>
