<svg width="340" height="296" viewBox="0 0 340 296" fill="none" xmlns="http://www.w3.org/2000/svg">
<g clip-path="url(#clip0_201_4)">
<path fill-rule="evenodd" clip-rule="evenodd" d="M0.260303 131.45L62.1503 1.45001C62.3529 1.01217 62.6778 0.64229 63.0859 0.385003C63.4941 0.127716 63.9679 -0.00599121 64.4503 1.04182e-05H275C275.48 -0.00125409 275.951 0.135753 276.355 0.394659C276.759 0.653564 277.081 1.02342 277.28 1.46001L339.17 131.46C339.406 131.944 339.48 132.49 339.383 133.019C339.286 133.548 339.022 134.032 338.63 134.4L171.48 294.56C171.006 295.015 170.373 295.27 169.715 295.27C169.057 295.27 168.425 295.015 167.95 294.56L0.800303 134.39C0.408339 134.022 0.144484 133.538 0.047323 133.009C-0.0498376 132.48 0.0247938 131.934 0.260303 131.45ZM169.96 145.26C183.79 145.26 189.99 144.89 191.19 144.8L191.15 144.79C233.58 142.91 265.23 135.51 265.23 126.67C265.23 117.83 233.57 110.43 191.15 108.54V137.44C189.96 137.55 183.35 138.1 170.15 138.1C159.15 138.1 151.19 137.63 148.41 137.43V108.52C105.9 110.42 74.1703 117.81 74.1703 126.67C74.1703 135.53 105.9 142.93 148.41 144.8C151.15 144.93 158.96 145.26 169.96 145.26ZM191.19 105.54V105.55L191.18 105.54C191.184 105.54 191.187 105.54 191.19 105.54ZM191.19 79.68V105.54C239.215 107.761 275.3 117.281 275.3 128.69C275.3 140.1 239.18 149.62 191.18 151.83V234.76H148.4V151.86C100.29 149.64 64.1104 140.12 64.1104 128.7C64.1104 117.28 100.29 107.75 148.4 105.54V79.68H89.2104V40.23H250.39V79.68H191.19Z" fill="#F4B521"/>
</g>
<defs>
<clipPath id="clip0_201_4">
<rect width="339.43" height="295.27" fill="white"/>
</clipPath>
</defs>
</svg>
