<svg width="220" height="220" viewBox="0 0 220 220" fill="none" xmlns="http://www.w3.org/2000/svg">
<path d="M92.7668 141L86.9168 124.854L80.5988 141H61.8788L42.6128 87.96H61.1768L72.7988 121.734L79.4288 104.496L73.8128 87.96H92.5328L101.815 118.848L111.955 87.96H130.753L111.487 141H92.7668ZM138.217 141V111.984H132.133V100.596H138.217V96.54C138.217 92.692 139.335 89.65 141.571 87.414C143.807 85.178 146.901 84.06 150.853 84.06H164.659V95.604H154.987C154.467 95.604 154.025 95.786 153.661 96.15C153.297 96.462 153.115 96.878 153.115 97.398V100.596H162.865V111.984H153.115V141H138.217Z" fill="#F4B521"/>
<path d="M171.28 69.056V65.744H177.184C178.72 65.744 179.908 65.408 180.748 64.736C181.588 64.04 182.008 63.164 182.008 62.108C182.008 60.932 181.492 60.02 180.46 59.372C179.428 58.724 178.072 58.4 176.392 58.4C173.704 58.4 171.28 58.94 169.12 60.02L168.184 56.816C170.68 55.712 173.392 55.16 176.32 55.16C179.344 55.16 181.684 55.736 183.34 56.888C184.996 58.016 185.824 59.636 185.824 61.748C185.824 63.092 185.44 64.28 184.672 65.312C183.928 66.32 182.896 66.956 181.576 67.22C184.984 68.108 186.688 70.148 186.688 73.34C186.688 75.5 185.764 77.216 183.916 78.488C182.092 79.736 179.56 80.36 176.32 80.36C173.728 80.36 171.016 79.832 168.184 78.776L169.12 75.608C171.448 76.64 173.848 77.156 176.32 77.156C178.24 77.156 179.8 76.772 181 76.004C182.224 75.212 182.836 74.144 182.836 72.8C182.836 70.304 180.952 69.056 177.184 69.056H171.28Z" fill="#F4B521"/>
<circle cx="110" cy="110" r="105.5" stroke="#F4B521" stroke-width="9"/>
</svg>
