<svg width="669" height="165" viewBox="0 0 669 165" fill="none" xmlns="http://www.w3.org/2000/svg">
<path d="M65.347 93L57.772 72.093L49.591 93H25.351L0.404 24.32H24.442L39.491 68.053L48.076 45.732L40.804 24.32H65.044L77.063 64.316L90.193 24.32H114.534L89.587 93H65.347ZM157.162 73.608L165.242 87.243C159.384 92.0237 151.741 94.414 142.315 94.414C132.753 94.414 125.481 91.889 120.499 86.839C115.583 81.789 113.126 75.0893 113.126 66.74C113.126 58.5927 115.718 51.893 120.903 46.641C126.155 41.389 132.989 38.763 141.406 38.763C149.082 38.763 155.007 40.884 159.182 45.126C163.356 49.3007 165.444 54.519 165.444 60.781C165.444 65.2923 165.073 68.558 164.333 70.578H134.134C134.47 72.598 135.514 74.315 137.265 75.729C139.083 77.143 141.507 77.85 144.537 77.85C146.355 77.85 148.543 77.4123 151.102 76.537C153.728 75.5943 155.748 74.618 157.162 73.608ZM148.577 60.276V59.973C148.577 55.8657 146.321 53.812 141.81 53.812C139.857 53.812 138.174 54.418 136.76 55.63C135.413 56.7747 134.605 58.3233 134.336 60.276H148.577ZM229.438 46.944C233.882 51.994 236.104 58.5253 236.104 66.538C236.104 74.5507 233.882 81.1493 229.438 86.334C225.061 91.4513 219.405 94.01 212.47 94.01C206.881 94.01 202.37 92.1247 198.936 88.354V93H176.716V21.29H198.936V44.823C202.639 41.1197 207.151 39.268 212.47 39.268C219.405 39.268 225.061 41.8267 229.438 46.944ZM213.48 66.538C213.48 63.9793 212.773 61.993 211.359 60.579C210.012 59.165 208.194 58.458 205.905 58.458C203.077 58.458 200.754 59.1313 198.936 60.478V72.8C200.754 74.1467 203.077 74.82 205.905 74.82C208.262 74.82 210.113 74.113 211.46 72.699C212.807 71.2177 213.48 69.164 213.48 66.538ZM253.705 66.134V49.974H267.946C272.727 49.974 275.117 48.4927 275.117 45.53C275.117 43.106 272.727 41.894 267.946 41.894C262.694 41.894 256.533 43.0723 249.463 45.429L244.615 26.643C247.039 25.835 250.574 25.0943 255.22 24.421C259.933 23.6803 264.175 23.31 267.946 23.31C287.675 23.31 297.539 29.9423 297.539 43.207C297.539 46.439 296.563 49.3007 294.61 51.792C292.657 54.2833 289.93 56.0677 286.429 57.145C295.452 59.6363 299.963 65.2587 299.963 74.012C299.963 80.2067 297.303 85.0883 291.984 88.657C286.732 92.2257 278.719 94.01 267.946 94.01C260.674 94.01 253.065 92.7643 245.12 90.273L250.372 72.093C256.028 74.2477 261.886 75.325 267.946 75.325C270.909 75.325 273.164 74.8873 274.713 74.012C276.329 73.1367 277.137 71.9583 277.137 70.477C277.137 68.9283 276.396 67.8173 274.915 67.144C273.434 66.4707 271.111 66.134 267.946 66.134H253.705Z" fill="url(#paint0_linear_133_104100)"/>
<path d="M388.291 73.709H360.213V93H339.003V24.32H393.745V43.611H360.213V54.418H388.291V73.709ZM458.45 40.177V71.487C458.45 74.113 459.292 75.426 460.975 75.426C462.322 75.426 463.837 75.0893 465.52 74.416L465.924 91.99C461.749 93.3367 456.935 94.01 451.481 94.01C444.546 94.01 440.001 91.5523 437.846 86.637C434.075 91.485 429.059 93.909 422.797 93.909C415.862 93.909 410.172 91.384 405.728 86.334C401.351 81.2167 399.163 74.6853 399.163 66.74C399.163 58.66 401.351 52.0613 405.728 46.944C410.172 41.8267 415.862 39.268 422.797 39.268C428.386 39.268 432.863 41.187 436.23 45.025V40.177H458.45ZM436.23 72.699V60.579C434.479 59.165 432.19 58.458 429.362 58.458C427.005 58.458 425.154 59.1987 423.807 60.68C422.46 62.094 421.787 64.114 421.787 66.74C421.787 69.2313 422.46 71.2177 423.807 72.699C425.154 74.113 427.005 74.82 429.362 74.82C431.988 74.82 434.277 74.113 436.23 72.699ZM480.109 93V61.791C480.109 59.165 479.335 57.852 477.786 57.852C477.18 57.852 476.473 57.953 475.665 58.155C474.857 58.2897 474.217 58.4243 473.746 58.559L473.039 58.761L472.635 41.288L473.039 41.187C473.241 41.1197 473.578 41.0187 474.049 40.884C474.588 40.7493 475.16 40.6147 475.766 40.48C476.439 40.3453 477.214 40.2107 478.089 40.076C478.964 39.9413 479.84 39.8067 480.715 39.672C481.658 39.5373 482.668 39.4363 483.745 39.369C484.89 39.3017 486.001 39.268 487.078 39.268C494.081 39.268 498.659 41.8267 500.814 46.944C503.44 41.8267 507.446 39.268 512.833 39.268C513.776 39.268 514.718 39.3353 515.661 39.47C516.671 39.6047 517.546 39.773 518.287 39.975C519.028 40.1097 519.701 40.278 520.307 40.48C520.98 40.6147 521.452 40.7157 521.721 40.783L522.125 40.884L519.701 61.387L518.287 60.983C517.344 60.7137 515.964 60.4443 514.146 60.175C512.328 59.8383 510.611 59.67 508.995 59.67C504.82 59.67 502.598 61.7573 502.329 65.932V93H480.109ZM530.611 40.177H552.831V44.217C556.803 40.8503 561.618 39.167 567.274 39.167C574.411 39.167 579.629 41.9277 582.929 47.449C587.238 41.995 592.995 39.268 600.2 39.268C606.664 39.268 611.444 41.4227 614.542 45.732C617.706 50.0413 619.289 55.6637 619.289 62.599V71.487C619.289 74.113 620.029 75.426 621.511 75.426C622.857 75.426 624.44 75.0893 626.258 74.416L626.763 91.99C622.857 93.3367 618.009 94.01 612.219 94.01C607.303 94.01 603.533 92.697 600.907 90.071C598.348 87.445 597.069 83.102 597.069 77.042V66.437C597.069 61.9257 595.15 59.67 591.312 59.67C589.359 59.67 587.676 60.074 586.262 60.882V93H564.042V66.336C564.042 61.892 562.156 59.67 558.386 59.67C556.096 59.67 554.245 60.2087 552.831 61.286V93H530.611V40.177Z" fill="url(#paint1_linear_133_104100)"/>
<path d="M5.292 152V109.16H26.019C32.571 109.202 37.884 111.113 41.958 114.893C46.074 118.631 48.132 123.881 48.132 130.643C48.132 137.363 46.074 142.613 41.958 146.393C37.884 150.131 32.571 152 26.019 152H5.292ZM25.389 121.13H19.152V140.03H25.389C27.951 140.03 29.988 139.211 31.5 137.573C33.054 135.893 33.831 133.583 33.831 130.643C33.831 127.661 33.075 125.33 31.563 123.65C30.051 121.97 27.993 121.13 25.389 121.13ZM80.4357 139.904L85.4757 148.409C81.8217 151.391 77.0547 152.882 71.1747 152.882C65.2107 152.882 60.6747 151.307 57.5667 148.157C54.5007 145.007 52.9677 140.828 52.9677 135.62C52.9677 130.538 54.5847 126.359 57.8187 123.083C61.0947 119.807 65.3577 118.169 70.6077 118.169C75.3957 118.169 79.0917 119.492 81.6957 122.138C84.2997 124.742 85.6017 127.997 85.6017 131.903C85.6017 134.717 85.3707 136.754 84.9087 138.014H66.0717C66.2817 139.274 66.9327 140.345 68.0247 141.227C69.1587 142.109 70.6707 142.55 72.5607 142.55C73.6947 142.55 75.0597 142.277 76.6557 141.731C78.2937 141.143 79.5537 140.534 80.4357 139.904ZM75.0807 131.588V131.399C75.0807 128.837 73.6737 127.556 70.8597 127.556C69.6417 127.556 68.5917 127.934 67.7097 128.69C66.8697 129.404 66.3657 130.37 66.1977 131.588H75.0807ZM119.093 120.815L115.817 130.895C112.541 129.047 109.643 128.123 107.123 128.123C106.577 128.123 106.094 128.249 105.674 128.501C105.296 128.753 105.107 129.068 105.107 129.446C105.107 130.034 105.485 130.454 106.241 130.706L111.281 132.218C114.179 133.142 116.174 134.402 117.266 135.998C118.358 137.552 118.904 139.4 118.904 141.542C118.904 144.776 117.602 147.443 114.998 149.543C112.436 151.601 108.971 152.63 104.603 152.63C99.5631 152.63 95.1111 151.685 91.2471 149.795L93.7041 140.093C97.9881 142.277 101.138 143.369 103.154 143.369C104.33 143.369 104.918 143.054 104.918 142.424C104.918 141.878 104.288 141.374 103.028 140.912L98.8701 139.463C96.1401 138.497 94.1451 137.258 92.8851 135.746C91.6251 134.234 90.9951 132.323 90.9951 130.013C90.9951 126.527 92.3811 123.734 95.1531 121.634C97.9671 119.534 101.747 118.484 106.493 118.484C108.677 118.484 110.966 118.715 113.36 119.177C115.796 119.639 117.707 120.185 119.093 120.815ZM139.773 119.051V138.581C139.773 140.219 140.256 141.038 141.222 141.038C141.684 141.038 142.65 140.828 144.12 140.408L144.435 151.37L143.301 151.622C142.503 151.832 141.327 152.042 139.773 152.252C138.261 152.504 136.791 152.63 135.363 152.63C129.063 152.63 125.913 149.102 125.913 142.046V119.051H139.773ZM125.535 110.483C125.535 106.577 127.992 104.624 132.906 104.624C137.736 104.624 140.151 106.577 140.151 110.483C140.151 114.431 137.736 116.405 132.906 116.405C127.992 116.405 125.535 114.431 125.535 110.483ZM149.253 134.36C149.253 129.908 150.639 126.149 153.411 123.083C156.183 120.017 159.711 118.484 163.995 118.484C167.439 118.484 170.232 119.513 172.374 121.571V119.051H186.234V146.645C186.234 152.357 184.47 156.746 180.942 159.812C177.456 162.92 173.172 164.474 168.09 164.474C163.302 164.474 158.493 163.487 153.663 161.513L156.435 151.937C156.519 151.979 156.813 152.105 157.317 152.315C157.821 152.525 158.157 152.651 158.325 152.693C158.535 152.777 158.892 152.903 159.396 153.071C159.9 153.281 160.299 153.428 160.593 153.512C160.887 153.596 161.307 153.701 161.853 153.827C162.399 153.953 162.882 154.037 163.302 154.079C163.722 154.163 164.205 154.226 164.751 154.268C165.339 154.31 165.927 154.331 166.515 154.331C170.421 154.331 172.374 152.756 172.374 149.606V147.464C170.148 149.228 167.355 150.11 163.995 150.11C159.711 150.11 156.183 148.598 153.411 145.574C150.639 142.508 149.253 138.77 149.253 134.36ZM163.365 134.36C163.365 136.88 164.94 138.14 168.09 138.14C169.476 138.14 170.904 137.636 172.374 136.628V131.903C170.988 130.937 169.56 130.454 168.09 130.454C164.94 130.454 163.365 131.756 163.365 134.36ZM194.947 119.051H208.807V122.075C211.411 119.681 214.393 118.484 217.753 118.484C221.785 118.484 224.767 119.828 226.699 122.516C228.631 125.204 229.597 128.711 229.597 133.037V138.581C229.597 140.219 230.08 141.038 231.046 141.038C231.97 141.038 232.957 140.828 234.007 140.408L234.259 151.37C231.949 152.21 228.946 152.63 225.25 152.63C222.142 152.63 219.769 151.811 218.131 150.173C216.535 148.535 215.737 145.826 215.737 142.046V135.431C215.737 132.617 214.582 131.21 212.272 131.21C210.844 131.21 209.689 131.546 208.807 132.218V152H194.947V119.051ZM265.621 139.904L270.661 148.409C267.007 151.391 262.24 152.882 256.36 152.882C250.396 152.882 245.86 151.307 242.752 148.157C239.686 145.007 238.153 140.828 238.153 135.62C238.153 130.538 239.77 126.359 243.004 123.083C246.28 119.807 250.543 118.169 255.793 118.169C260.581 118.169 264.277 119.492 266.881 122.138C269.485 124.742 270.787 127.997 270.787 131.903C270.787 134.717 270.556 136.754 270.094 138.014H251.257C251.467 139.274 252.118 140.345 253.21 141.227C254.344 142.109 255.856 142.55 257.746 142.55C258.88 142.55 260.245 142.277 261.841 141.731C263.479 141.143 264.739 140.534 265.621 139.904ZM260.266 131.588V131.399C260.266 128.837 258.859 127.556 256.045 127.556C254.827 127.556 253.777 127.934 252.895 128.69C252.055 129.404 251.551 130.37 251.383 131.588H260.266ZM299.176 107.27H313.036V138.581C313.036 140.219 313.519 141.038 314.485 141.038C315.157 141.038 316.123 140.828 317.383 140.408L317.698 151.37C315.01 152.21 311.986 152.63 308.626 152.63C304.3 152.63 301.465 151.055 300.121 147.905C297.937 151.055 294.808 152.63 290.734 152.63C286.408 152.63 282.859 151.034 280.087 147.842C277.357 144.608 275.992 140.492 275.992 135.494C275.992 130.496 277.357 126.422 280.087 123.272C282.859 120.08 286.408 118.484 290.734 118.484C293.968 118.484 296.782 119.639 299.176 121.949V107.27ZM290.104 135.494C290.104 137.132 290.524 138.413 291.364 139.337C292.246 140.219 293.422 140.66 294.892 140.66C296.572 140.66 298 140.24 299.176 139.4V131.714C298 130.874 296.572 130.454 294.892 130.454C293.422 130.454 292.246 130.895 291.364 131.777C290.524 132.659 290.104 133.898 290.104 135.494ZM345.311 110.672H356.588V119.051H366.794V129.698H356.588V137.51C356.588 139.526 357.554 140.534 359.486 140.534C361.166 140.534 362.867 139.925 364.589 138.707L368.747 149.102C364.799 151.454 360.179 152.63 354.887 152.63C351.065 152.63 348.083 151.517 345.941 149.291C343.799 147.023 342.728 143.726 342.728 139.4V129.698H337.625V119.051H343.673L345.311 110.672ZM372.273 135.62C372.273 130.622 373.953 126.464 377.313 123.146C380.715 119.828 384.978 118.169 390.102 118.169C395.268 118.169 399.552 119.828 402.954 123.146C406.356 126.464 408.057 130.622 408.057 135.62C408.057 140.576 406.356 144.692 402.954 147.968C399.552 151.244 395.268 152.882 390.102 152.882C384.978 152.882 380.715 151.244 377.313 147.968C373.953 144.692 372.273 140.576 372.273 135.62ZM385.566 135.62C385.566 136.922 385.986 138.056 386.826 139.022C387.708 139.946 388.8 140.408 390.102 140.408C391.488 140.408 392.601 139.946 393.441 139.022C394.281 138.056 394.701 136.922 394.701 135.62C394.701 134.276 394.281 133.142 393.441 132.218C392.601 131.252 391.488 130.769 390.102 130.769C388.758 130.769 387.666 131.252 386.826 132.218C385.986 133.142 385.566 134.276 385.566 135.62ZM466.871 152H431.465V109.16H466.871V121.13H444.695V124.91H462.272V135.935H444.695V140.03H466.871V152ZM476.641 137.951V132.533C476.641 130.895 476.158 130.076 475.192 130.076C474.142 130.076 473.155 130.265 472.231 130.643L471.979 119.744C474.331 118.904 477.334 118.484 480.988 118.484C484.096 118.484 486.448 119.303 488.044 120.941C489.682 122.579 490.501 125.288 490.501 129.068V135.809C490.501 137.363 490.648 138.455 490.942 139.085C491.278 139.715 491.845 140.03 492.643 140.03C493.735 140.03 494.533 139.694 495.037 139.022C495.541 138.308 495.793 137.09 495.793 135.368C495.793 130.664 494.365 125.225 491.509 119.051H506.251C508.519 125.015 509.653 130.748 509.653 136.25C509.653 141.29 508.204 145.28 505.306 148.22C502.45 151.16 498.229 152.63 492.643 152.63C481.975 152.63 476.641 147.737 476.641 137.951ZM515.13 135.62C515.13 130.622 516.81 126.464 520.17 123.146C523.572 119.828 527.835 118.169 532.959 118.169C538.125 118.169 542.409 119.828 545.811 123.146C549.213 126.464 550.914 130.622 550.914 135.62C550.914 140.576 549.213 144.692 545.811 147.968C542.409 151.244 538.125 152.882 532.959 152.882C527.835 152.882 523.572 151.244 520.17 147.968C516.81 144.692 515.13 140.576 515.13 135.62ZM528.423 135.62C528.423 136.922 528.843 138.056 529.683 139.022C530.565 139.946 531.657 140.408 532.959 140.408C534.345 140.408 535.458 139.946 536.298 139.022C537.138 138.056 537.558 136.922 537.558 135.62C537.558 134.276 537.138 133.142 536.298 132.218C535.458 131.252 534.345 130.769 532.959 130.769C531.615 130.769 530.523 131.252 529.683 132.218C528.843 133.142 528.423 134.276 528.423 135.62ZM557.375 107.27H571.235V138.581C571.235 140.219 571.697 141.038 572.621 141.038C573.419 141.038 574.385 140.828 575.519 140.408L575.834 151.37C572.726 152.21 569.723 152.63 566.825 152.63C563.759 152.63 561.407 151.811 559.769 150.173C558.173 148.535 557.375 145.847 557.375 142.109V107.27ZM584.122 137.951V132.533C584.122 130.895 583.639 130.076 582.673 130.076C581.623 130.076 580.636 130.265 579.712 130.643L579.46 119.744C581.812 118.904 584.815 118.484 588.469 118.484C591.577 118.484 593.929 119.303 595.525 120.941C597.163 122.579 597.982 125.288 597.982 129.068V135.809C597.982 137.363 598.129 138.455 598.423 139.085C598.759 139.715 599.326 140.03 600.124 140.03C601.216 140.03 602.014 139.694 602.518 139.022C603.022 138.308 603.274 137.09 603.274 135.368C603.274 130.664 601.846 125.225 598.99 119.051H613.732C616 125.015 617.134 130.748 617.134 136.25C617.134 141.29 615.685 145.28 612.787 148.22C609.931 151.16 605.71 152.63 600.124 152.63C589.456 152.63 584.122 147.737 584.122 137.951ZM650.143 139.904L655.183 148.409C651.529 151.391 646.762 152.882 640.882 152.882C634.918 152.882 630.382 151.307 627.274 148.157C624.208 145.007 622.675 140.828 622.675 135.62C622.675 130.538 624.292 126.359 627.526 123.083C630.802 119.807 635.065 118.169 640.315 118.169C645.103 118.169 648.799 119.492 651.403 122.138C654.007 124.742 655.309 127.997 655.309 131.903C655.309 134.717 655.078 136.754 654.616 138.014H635.779C635.989 139.274 636.64 140.345 637.732 141.227C638.866 142.109 640.378 142.55 642.268 142.55C643.402 142.55 644.767 142.277 646.363 141.731C648.001 141.143 649.261 140.534 650.143 139.904ZM644.788 131.588V131.399C644.788 128.837 643.381 127.556 640.567 127.556C639.349 127.556 638.299 127.934 637.417 128.69C636.577 129.404 636.073 130.37 635.905 131.588H644.788Z" fill="url(#paint2_linear_133_104100)"/>
<defs>
<linearGradient id="paint0_linear_133_104100" x1="334.5" y1="0" x2="334.5" y2="104" gradientUnits="userSpaceOnUse">
<stop stop-color="white"/>
<stop offset="1" stop-color="white" stop-opacity="0.73"/>
</linearGradient>
<linearGradient id="paint1_linear_133_104100" x1="334.5" y1="0" x2="334.5" y2="104" gradientUnits="userSpaceOnUse">
<stop stop-color="#F4B521"/>
<stop offset="1" stop-color="#F4B521" stop-opacity="0.73"/>
</linearGradient>
<linearGradient id="paint2_linear_133_104100" x1="334.5" y1="94" x2="334.5" y2="161" gradientUnits="userSpaceOnUse">
<stop stop-color="white"/>
<stop offset="1" stop-color="white" stop-opacity="0.73"/>
</linearGradient>
</defs>
</svg>
