<svg width="450" height="450" viewBox="0 0 450 450" fill="none" xmlns="http://www.w3.org/2000/svg">
<path d="M450 225C450 349.264 349.264 450 225 450C100.736 450 0 349.264 0 225C0 100.736 100.736 0 225 0C349.264 0 450 100.736 450 225ZM67.5 225C67.5 311.985 138.015 382.5 225 382.5C311.985 382.5 382.5 311.985 382.5 225C382.5 138.015 311.985 67.5 225 67.5C138.015 67.5 67.5 138.015 67.5 225Z" fill="#B0F054"/>
<path d="M11.064 294.688C24.2854 335.276 48.7803 371.266 81.6888 398.456C114.597 425.645 154.561 442.912 196.915 448.24L205.341 381.268C175.693 377.538 147.718 365.452 124.682 346.419C101.646 327.386 84.4998 302.194 75.2448 273.782L11.064 294.688Z" fill="#91E01E"/>
<path d="M196.877 448.235C234.327 452.953 272.362 448.174 307.481 434.337L282.736 371.536C258.154 381.222 231.529 384.567 205.314 381.265L196.877 448.235Z" fill="#CD1C6C"/>
<path d="M397.939 368.934C422.086 339.922 438.545 305.301 445.802 268.259L379.562 255.281C374.482 281.211 362.96 305.445 346.057 325.754L397.939 368.934Z" fill="#C1F07E"/>
<path d="M445.736 268.594C452.623 233.725 451.151 197.72 441.44 163.53C431.73 129.339 414.058 97.9352 389.871 71.8908L340.41 117.824C357.34 136.055 369.711 158.037 376.508 181.971C383.305 205.904 384.336 231.108 379.515 255.516L445.736 268.594Z" fill="#FAD683"/>
<path d="M389.859 71.8773C367.282 47.5701 339.61 28.5561 308.823 16.197L283.676 78.8379C305.227 87.4893 324.597 100.799 340.401 117.814L389.859 71.8773Z" fill="#E679AA"/>
<path d="M309.32 16.3972C287.329 7.50793 264.07 2.15204 240.405 0.527988L235.784 67.8696C252.349 69.0064 268.63 72.7556 284.024 78.9781L309.32 16.3972Z" fill="#5A72D3"/>
<path d="M307.316 434.402C342.539 420.556 373.699 398.049 397.915 368.964L346.04 325.775C329.09 346.134 307.277 361.889 282.622 371.581L307.316 434.402Z" fill="#7A8CD3"/>
<path d="M225 0C189.475 -4.2363e-07 154.455 8.41183 122.806 24.5471C91.1568 40.6823 63.778 64.0824 42.9103 92.8322C22.0425 121.582 8.27891 154.865 2.74585 189.956C-2.78721 225.047 0.0675315 260.95 11.0764 294.726L75.2535 273.808C67.5473 250.165 65.549 225.033 69.4221 200.469C73.2952 175.905 82.9298 152.607 97.5372 132.483C112.145 112.358 131.31 95.9776 153.464 84.6829C175.619 73.3883 200.133 67.5 225 67.5L225 0Z" fill="#F4B521"/>
<path d="M39.1446 117.552V113.072H43.0926C44.4179 113.072 45.0806 112.661 45.0806 111.84C45.0806 111.168 44.4179 110.832 43.0926 110.832C41.6366 110.832 39.9286 111.159 37.9686 111.812L36.6246 106.604C37.2966 106.38 38.2766 106.175 39.5646 105.988C40.8712 105.783 42.0472 105.68 43.0926 105.68C48.5619 105.68 51.2966 107.519 51.2966 111.196C51.2966 112.092 51.0259 112.885 50.4846 113.576C49.9432 114.267 49.1872 114.761 48.2166 115.06C50.7179 115.751 51.9686 117.309 51.9686 119.736C51.9686 121.453 51.2312 122.807 49.7566 123.796C48.3006 124.785 46.0792 125.28 43.0926 125.28C41.0766 125.28 38.9672 124.935 36.7646 124.244L38.2206 119.204C39.7886 119.801 41.4126 120.1 43.0926 120.1C43.9139 120.1 44.5392 119.979 44.9686 119.736C45.4166 119.493 45.6406 119.167 45.6406 118.756C45.6406 118.327 45.4352 118.019 45.0246 117.832C44.6139 117.645 43.9699 117.552 43.0926 117.552H39.1446ZM54.9795 115.508C54.9795 112.391 55.7261 109.973 57.2195 108.256C58.7315 106.539 60.8688 105.68 63.6315 105.68C66.4315 105.68 68.5781 106.539 70.0715 108.256C71.5835 109.973 72.3395 112.391 72.3395 115.508C72.3395 118.588 71.5835 120.987 70.0715 122.704C68.5781 124.421 66.4315 125.28 63.6315 125.28C60.8688 125.28 58.7315 124.421 57.2195 122.704C55.7261 120.987 54.9795 118.588 54.9795 115.508ZM60.9435 115.508C60.9435 118.289 61.8395 119.68 63.6315 119.68C64.6768 119.68 65.3861 119.307 65.7595 118.56C66.1515 117.813 66.3475 116.796 66.3475 115.508C66.3475 114.201 66.1515 113.175 65.7595 112.428C65.3861 111.663 64.6768 111.28 63.6315 111.28C62.6048 111.28 61.8955 111.663 61.5035 112.428C61.1301 113.175 60.9435 114.201 60.9435 115.508ZM90.1326 123.768C89.0872 122.741 88.5646 121.453 88.5646 119.904C88.5646 118.355 89.0872 117.067 90.1326 116.04C91.1966 114.995 92.5219 114.472 94.1086 114.472C95.6952 114.472 97.0206 114.995 98.0846 116.04C99.1486 117.067 99.6806 118.355 99.6806 119.904C99.6806 121.435 99.1486 122.713 98.0846 123.74C97.0392 124.767 95.7139 125.28 94.1086 125.28C92.5219 125.28 91.1966 124.776 90.1326 123.768ZM92.7646 118.56C92.4286 118.933 92.2606 119.381 92.2606 119.904C92.2606 120.427 92.4286 120.875 92.7646 121.248C93.1192 121.621 93.5672 121.808 94.1086 121.808C94.6312 121.808 95.0606 121.621 95.3966 121.248C95.7512 120.875 95.9286 120.427 95.9286 119.904C95.9286 119.363 95.7606 118.905 95.4246 118.532C95.0886 118.159 94.6499 117.972 94.1086 117.972C93.5672 117.972 93.1192 118.168 92.7646 118.56ZM80.5006 124.552L90.8606 105.96H93.7166V106.38L83.4126 125H80.5006V124.552ZM76.3846 114.976C75.3392 113.949 74.8166 112.661 74.8166 111.112C74.8166 109.563 75.3392 108.275 76.3846 107.248C77.4486 106.203 78.7739 105.68 80.3606 105.68C81.9472 105.68 83.2726 106.203 84.3366 107.248C85.4006 108.275 85.9326 109.563 85.9326 111.112C85.9326 112.643 85.4006 113.921 84.3366 114.948C83.2912 115.975 81.9659 116.488 80.3606 116.488C78.7739 116.488 77.4486 115.984 76.3846 114.976ZM79.0166 109.768C78.6806 110.141 78.5126 110.589 78.5126 111.112C78.5126 111.635 78.6806 112.083 79.0166 112.456C79.3712 112.829 79.8192 113.016 80.3606 113.016C80.8832 113.016 81.3126 112.829 81.6486 112.456C82.0032 112.083 82.1806 111.635 82.1806 111.112C82.1806 110.571 82.0126 110.113 81.6766 109.74C81.3406 109.367 80.9019 109.18 80.3606 109.18C79.8192 109.18 79.3712 109.376 79.0166 109.768Z" fill="white"/>
<path d="M76.0385 372.056L84.4105 366.96H88.8625V386H82.7025V373.96L78.3905 376.648L76.0385 372.056ZM107.81 384.796C106.392 385.785 104.254 386.28 101.398 386.28C98.5424 386.28 96.3957 385.785 94.9584 384.796C93.5397 383.807 92.8304 382.453 92.8304 380.736C92.8304 378.253 94.053 376.695 96.4984 376.06C95.565 375.799 94.8277 375.313 94.2864 374.604C93.745 373.895 93.4744 373.092 93.4744 372.196C93.4744 368.519 96.1157 366.68 101.398 366.68C106.681 366.68 109.322 368.519 109.322 372.196C109.322 373.092 109.052 373.895 108.51 374.604C107.969 375.313 107.232 375.799 106.298 376.06C108.744 376.695 109.966 378.253 109.966 380.736C109.966 382.453 109.248 383.807 107.81 384.796ZM103.106 378.636C102.714 378.3 102.145 378.132 101.398 378.132C100.652 378.132 100.073 378.3 99.6624 378.636C99.2704 378.953 99.0744 379.327 99.0744 379.756C99.0744 380.185 99.2704 380.568 99.6624 380.904C100.054 381.221 100.633 381.38 101.398 381.38C102.164 381.38 102.742 381.221 103.134 380.904C103.526 380.568 103.722 380.185 103.722 379.756C103.722 379.327 103.517 378.953 103.106 378.636ZM103.19 372.812C103.19 371.935 102.593 371.496 101.398 371.496C100.204 371.496 99.6064 371.935 99.6064 372.812C99.6064 373.708 100.204 374.156 101.398 374.156C102.593 374.156 103.19 373.708 103.19 372.812ZM127.711 384.768C126.665 383.741 126.143 382.453 126.143 380.904C126.143 379.355 126.665 378.067 127.711 377.04C128.775 375.995 130.1 375.472 131.687 375.472C133.273 375.472 134.599 375.995 135.663 377.04C136.727 378.067 137.259 379.355 137.259 380.904C137.259 382.435 136.727 383.713 135.663 384.74C134.617 385.767 133.292 386.28 131.687 386.28C130.1 386.28 128.775 385.776 127.711 384.768ZM130.343 379.56C130.007 379.933 129.839 380.381 129.839 380.904C129.839 381.427 130.007 381.875 130.343 382.248C130.697 382.621 131.145 382.808 131.687 382.808C132.209 382.808 132.639 382.621 132.975 382.248C133.329 381.875 133.507 381.427 133.507 380.904C133.507 380.363 133.339 379.905 133.003 379.532C132.667 379.159 132.228 378.972 131.687 378.972C131.145 378.972 130.697 379.168 130.343 379.56ZM118.079 385.552L128.439 366.96H131.295V367.38L120.991 386H118.079V385.552ZM113.963 375.976C112.917 374.949 112.395 373.661 112.395 372.112C112.395 370.563 112.917 369.275 113.963 368.248C115.027 367.203 116.352 366.68 117.939 366.68C119.525 366.68 120.851 367.203 121.915 368.248C122.979 369.275 123.511 370.563 123.511 372.112C123.511 373.643 122.979 374.921 121.915 375.948C120.869 376.975 119.544 377.488 117.939 377.488C116.352 377.488 115.027 376.984 113.963 375.976ZM116.595 370.768C116.259 371.141 116.091 371.589 116.091 372.112C116.091 372.635 116.259 373.083 116.595 373.456C116.949 373.829 117.397 374.016 117.939 374.016C118.461 374.016 118.891 373.829 119.227 373.456C119.581 373.083 119.759 372.635 119.759 372.112C119.759 371.571 119.591 371.113 119.255 370.74C118.919 370.367 118.48 370.18 117.939 370.18C117.397 370.18 116.949 370.376 116.595 370.768Z" fill="white"/>
<path d="M244.058 419.796C242.64 420.785 240.502 421.28 237.646 421.28C234.79 421.28 232.644 420.785 231.206 419.796C229.788 418.807 229.078 417.453 229.078 415.736C229.078 413.253 230.301 411.695 232.746 411.06C231.813 410.799 231.076 410.313 230.534 409.604C229.993 408.895 229.722 408.092 229.722 407.196C229.722 403.519 232.364 401.68 237.646 401.68C242.929 401.68 245.57 403.519 245.57 407.196C245.57 408.092 245.3 408.895 244.758 409.604C244.217 410.313 243.48 410.799 242.546 411.06C244.992 411.695 246.214 413.253 246.214 415.736C246.214 417.453 245.496 418.807 244.058 419.796ZM239.354 413.636C238.962 413.3 238.393 413.132 237.646 413.132C236.9 413.132 236.321 413.3 235.91 413.636C235.518 413.953 235.322 414.327 235.322 414.756C235.322 415.185 235.518 415.568 235.91 415.904C236.302 416.221 236.881 416.38 237.646 416.38C238.412 416.38 238.99 416.221 239.382 415.904C239.774 415.568 239.97 415.185 239.97 414.756C239.97 414.327 239.765 413.953 239.354 413.636ZM239.438 407.812C239.438 406.935 238.841 406.496 237.646 406.496C236.452 406.496 235.854 406.935 235.854 407.812C235.854 408.708 236.452 409.156 237.646 409.156C238.841 409.156 239.438 408.708 239.438 407.812ZM263.959 419.768C262.913 418.741 262.391 417.453 262.391 415.904C262.391 414.355 262.913 413.067 263.959 412.04C265.023 410.995 266.348 410.472 267.935 410.472C269.521 410.472 270.847 410.995 271.911 412.04C272.975 413.067 273.507 414.355 273.507 415.904C273.507 417.435 272.975 418.713 271.911 419.74C270.865 420.767 269.54 421.28 267.935 421.28C266.348 421.28 265.023 420.776 263.959 419.768ZM266.591 414.56C266.255 414.933 266.087 415.381 266.087 415.904C266.087 416.427 266.255 416.875 266.591 417.248C266.945 417.621 267.393 417.808 267.935 417.808C268.457 417.808 268.887 417.621 269.223 417.248C269.577 416.875 269.755 416.427 269.755 415.904C269.755 415.363 269.587 414.905 269.251 414.532C268.915 414.159 268.476 413.972 267.935 413.972C267.393 413.972 266.945 414.168 266.591 414.56ZM254.327 420.552L264.687 401.96H267.543V402.38L257.239 421H254.327V420.552ZM250.211 410.976C249.165 409.949 248.643 408.661 248.643 407.112C248.643 405.563 249.165 404.275 250.211 403.248C251.275 402.203 252.6 401.68 254.187 401.68C255.773 401.68 257.099 402.203 258.163 403.248C259.227 404.275 259.759 405.563 259.759 407.112C259.759 408.643 259.227 409.921 258.163 410.948C257.117 411.975 255.792 412.488 254.187 412.488C252.6 412.488 251.275 411.984 250.211 410.976ZM252.843 405.768C252.507 406.141 252.339 406.589 252.339 407.112C252.339 407.635 252.507 408.083 252.843 408.456C253.197 408.829 253.645 409.016 254.187 409.016C254.709 409.016 255.139 408.829 255.475 408.456C255.829 408.083 256.007 407.635 256.007 407.112C256.007 406.571 255.839 406.113 255.503 405.74C255.167 405.367 254.728 405.18 254.187 405.18C253.645 405.18 253.197 405.376 252.843 405.768Z" fill="white"/>
<path d="M389.058 317.796C387.64 318.785 385.502 319.28 382.646 319.28C379.79 319.28 377.644 318.785 376.206 317.796C374.788 316.807 374.078 315.453 374.078 313.736C374.078 311.253 375.301 309.695 377.746 309.06C376.813 308.799 376.076 308.313 375.534 307.604C374.993 306.895 374.722 306.092 374.722 305.196C374.722 301.519 377.364 299.68 382.646 299.68C387.929 299.68 390.57 301.519 390.57 305.196C390.57 306.092 390.3 306.895 389.758 307.604C389.217 308.313 388.48 308.799 387.546 309.06C389.992 309.695 391.214 311.253 391.214 313.736C391.214 315.453 390.496 316.807 389.058 317.796ZM384.354 311.636C383.962 311.3 383.393 311.132 382.646 311.132C381.9 311.132 381.321 311.3 380.91 311.636C380.518 311.953 380.322 312.327 380.322 312.756C380.322 313.185 380.518 313.568 380.91 313.904C381.302 314.221 381.881 314.38 382.646 314.38C383.412 314.38 383.99 314.221 384.382 313.904C384.774 313.568 384.97 313.185 384.97 312.756C384.97 312.327 384.765 311.953 384.354 311.636ZM384.438 305.812C384.438 304.935 383.841 304.496 382.646 304.496C381.452 304.496 380.854 304.935 380.854 305.812C380.854 306.708 381.452 307.156 382.646 307.156C383.841 307.156 384.438 306.708 384.438 305.812ZM408.959 317.768C407.913 316.741 407.391 315.453 407.391 313.904C407.391 312.355 407.913 311.067 408.959 310.04C410.023 308.995 411.348 308.472 412.935 308.472C414.521 308.472 415.847 308.995 416.911 310.04C417.975 311.067 418.507 312.355 418.507 313.904C418.507 315.435 417.975 316.713 416.911 317.74C415.865 318.767 414.54 319.28 412.935 319.28C411.348 319.28 410.023 318.776 408.959 317.768ZM411.591 312.56C411.255 312.933 411.087 313.381 411.087 313.904C411.087 314.427 411.255 314.875 411.591 315.248C411.945 315.621 412.393 315.808 412.935 315.808C413.457 315.808 413.887 315.621 414.223 315.248C414.577 314.875 414.755 314.427 414.755 313.904C414.755 313.363 414.587 312.905 414.251 312.532C413.915 312.159 413.476 311.972 412.935 311.972C412.393 311.972 411.945 312.168 411.591 312.56ZM399.327 318.552L409.687 299.96H412.543V300.38L402.239 319H399.327V318.552ZM395.211 308.976C394.165 307.949 393.643 306.661 393.643 305.112C393.643 303.563 394.165 302.275 395.211 301.248C396.275 300.203 397.6 299.68 399.187 299.68C400.773 299.68 402.099 300.203 403.163 301.248C404.227 302.275 404.759 303.563 404.759 305.112C404.759 306.643 404.227 307.921 403.163 308.948C402.117 309.975 400.792 310.488 399.187 310.488C397.6 310.488 396.275 309.984 395.211 308.976ZM397.843 303.768C397.507 304.141 397.339 304.589 397.339 305.112C397.339 305.635 397.507 306.083 397.843 306.456C398.197 306.829 398.645 307.016 399.187 307.016C399.709 307.016 400.139 306.829 400.475 306.456C400.829 306.083 401.007 305.635 401.007 305.112C401.007 304.571 400.839 304.113 400.503 303.74C400.167 303.367 399.728 303.18 399.187 303.18C398.645 303.18 398.197 303.376 397.843 303.768Z" fill="white"/>
<path d="M382.119 176.056L390.491 170.96H394.943V190H388.783V177.96L384.471 180.648L382.119 176.056ZM413.19 170.96V176.28H405.714L405.574 177.988H405.714C411.109 177.988 413.806 179.836 413.806 183.532C413.806 185.753 413.069 187.433 411.594 188.572C410.12 189.711 408.001 190.28 405.238 190.28C403.054 190.28 400.842 189.907 398.602 189.16L400.086 184.148C401.673 184.783 403.278 185.1 404.902 185.1C405.742 185.1 406.386 184.969 406.834 184.708C407.282 184.447 407.506 184.101 407.506 183.672C407.506 182.851 406.778 182.44 405.322 182.44H399.834L399.582 182.216L400.562 170.96H413.19ZM431.631 188.768C430.585 187.741 430.063 186.453 430.063 184.904C430.063 183.355 430.585 182.067 431.631 181.04C432.695 179.995 434.02 179.472 435.607 179.472C437.193 179.472 438.519 179.995 439.583 181.04C440.647 182.067 441.179 183.355 441.179 184.904C441.179 186.435 440.647 187.713 439.583 188.74C438.537 189.767 437.212 190.28 435.607 190.28C434.02 190.28 432.695 189.776 431.631 188.768ZM434.263 183.56C433.927 183.933 433.759 184.381 433.759 184.904C433.759 185.427 433.927 185.875 434.263 186.248C434.617 186.621 435.065 186.808 435.607 186.808C436.129 186.808 436.559 186.621 436.895 186.248C437.249 185.875 437.427 185.427 437.427 184.904C437.427 184.363 437.259 183.905 436.923 183.532C436.587 183.159 436.148 182.972 435.607 182.972C435.065 182.972 434.617 183.168 434.263 183.56ZM421.999 189.552L432.359 170.96H435.215V171.38L424.911 190H421.999V189.552ZM417.883 179.976C416.837 178.949 416.315 177.661 416.315 176.112C416.315 174.563 416.837 173.275 417.883 172.248C418.947 171.203 420.272 170.68 421.859 170.68C423.445 170.68 424.771 171.203 425.835 172.248C426.899 173.275 427.431 174.563 427.431 176.112C427.431 177.643 426.899 178.921 425.835 179.948C424.789 180.975 423.464 181.488 421.859 181.488C420.272 181.488 418.947 180.984 417.883 179.976ZM420.515 174.768C420.179 175.141 420.011 175.589 420.011 176.112C420.011 176.635 420.179 177.083 420.515 177.456C420.869 177.829 421.317 178.016 421.859 178.016C422.381 178.016 422.811 177.829 423.147 177.456C423.501 177.083 423.679 176.635 423.679 176.112C423.679 175.571 423.511 175.113 423.175 174.74C422.839 174.367 422.4 174.18 421.859 174.18C421.317 174.18 420.869 174.376 420.515 174.768Z" fill="white"/>
<path d="M314.575 76.44L321.323 63.28H313.287V57.96H328.183V62.16L321.323 77H314.575V76.44ZM345.386 75.768C344.341 74.7413 343.818 73.4533 343.818 71.904C343.818 70.3547 344.341 69.0667 345.386 68.04C346.45 66.9947 347.776 66.472 349.362 66.472C350.949 66.472 352.274 66.9947 353.338 68.04C354.402 69.0667 354.934 70.3547 354.934 71.904C354.934 73.4347 354.402 74.7133 353.338 75.74C352.293 76.7667 350.968 77.28 349.362 77.28C347.776 77.28 346.45 76.776 345.386 75.768ZM348.018 70.56C347.682 70.9333 347.514 71.3813 347.514 71.904C347.514 72.4267 347.682 72.8747 348.018 73.248C348.373 73.6213 348.821 73.808 349.362 73.808C349.885 73.808 350.314 73.6213 350.65 73.248C351.005 72.8747 351.182 72.4267 351.182 71.904C351.182 71.3627 351.014 70.9053 350.678 70.532C350.342 70.1587 349.904 69.972 349.362 69.972C348.821 69.972 348.373 70.168 348.018 70.56ZM335.754 76.552L346.114 57.96H348.97V58.38L338.666 77H335.754V76.552ZM331.638 66.976C330.593 65.9493 330.07 64.6613 330.07 63.112C330.07 61.5627 330.593 60.2747 331.638 59.248C332.702 58.2027 334.028 57.68 335.614 57.68C337.201 57.68 338.526 58.2027 339.59 59.248C340.654 60.2747 341.186 61.5627 341.186 63.112C341.186 64.6427 340.654 65.9213 339.59 66.948C338.545 67.9747 337.22 68.488 335.614 68.488C334.028 68.488 332.702 67.984 331.638 66.976ZM334.27 61.768C333.934 62.1413 333.766 62.5893 333.766 63.112C333.766 63.6347 333.934 64.0827 334.27 64.456C334.625 64.8293 335.073 65.016 335.614 65.016C336.137 65.016 336.566 64.8293 336.902 64.456C337.257 64.0827 337.434 63.6347 337.434 63.112C337.434 62.5707 337.266 62.1133 336.93 61.74C336.594 61.3667 336.156 61.18 335.614 61.18C335.073 61.18 334.625 61.376 334.27 61.768Z" fill="white"/>
<path d="M261.646 30.8L260.106 35.812C258.482 35.1773 256.97 34.86 255.57 34.86C254.45 34.86 253.628 35.084 253.106 35.532C252.583 35.98 252.247 36.6427 252.098 37.52C253.199 36.8853 254.384 36.568 255.654 36.568C257.95 36.568 259.676 37.0627 260.834 38.052C262.01 39.0413 262.598 40.4693 262.598 42.336C262.598 44.4827 261.87 46.1813 260.414 47.432C258.976 48.664 257.091 49.28 254.758 49.28C251.902 49.28 249.69 48.3933 248.122 46.62C246.554 44.8467 245.77 42.4573 245.77 39.452C245.77 36.4653 246.554 34.0947 248.122 32.34C249.69 30.5667 251.92 29.68 254.814 29.68C257.072 29.68 259.35 30.0533 261.646 30.8ZM254.674 41.048C253.927 41.048 253.087 41.216 252.154 41.552C252.508 42.9707 253.376 43.68 254.758 43.68C255.336 43.68 255.766 43.5493 256.046 43.288C256.326 43.0267 256.466 42.7093 256.466 42.336C256.466 41.4773 255.868 41.048 254.674 41.048ZM280.267 47.768C279.222 46.7413 278.699 45.4533 278.699 43.904C278.699 42.3547 279.222 41.0667 280.267 40.04C281.331 38.9947 282.657 38.472 284.243 38.472C285.83 38.472 287.155 38.9947 288.219 40.04C289.283 41.0667 289.815 42.3547 289.815 43.904C289.815 45.4347 289.283 46.7133 288.219 47.74C287.174 48.7667 285.849 49.28 284.243 49.28C282.657 49.28 281.331 48.776 280.267 47.768ZM282.899 42.56C282.563 42.9333 282.395 43.3813 282.395 43.904C282.395 44.4267 282.563 44.8747 282.899 45.248C283.254 45.6213 283.702 45.808 284.243 45.808C284.766 45.808 285.195 45.6213 285.531 45.248C285.886 44.8747 286.063 44.4267 286.063 43.904C286.063 43.3627 285.895 42.9053 285.559 42.532C285.223 42.1587 284.785 41.972 284.243 41.972C283.702 41.972 283.254 42.168 282.899 42.56ZM270.635 48.552L280.995 29.96H283.851V30.38L273.547 49H270.635V48.552ZM266.519 38.976C265.474 37.9493 264.951 36.6613 264.951 35.112C264.951 33.5627 265.474 32.2747 266.519 31.248C267.583 30.2027 268.909 29.68 270.495 29.68C272.082 29.68 273.407 30.2027 274.471 31.248C275.535 32.2747 276.067 33.5627 276.067 35.112C276.067 36.6427 275.535 37.9213 274.471 38.948C273.426 39.9747 272.101 40.488 270.495 40.488C268.909 40.488 267.583 39.984 266.519 38.976ZM269.151 33.768C268.815 34.1413 268.647 34.5893 268.647 35.112C268.647 35.6347 268.815 36.0827 269.151 36.456C269.506 36.8293 269.954 37.016 270.495 37.016C271.018 37.016 271.447 36.8293 271.783 36.456C272.138 36.0827 272.315 35.6347 272.315 35.112C272.315 34.5707 272.147 34.1133 271.811 33.74C271.475 33.3667 271.037 33.18 270.495 33.18C269.954 33.18 269.506 33.376 269.151 33.768Z" fill="white"/>
<path d="M209.615 111.056L217.987 105.96H222.439V125H216.279V112.96L211.967 115.648L209.615 111.056ZM241.135 123.768C240.089 122.741 239.567 121.453 239.567 119.904C239.567 118.355 240.089 117.067 241.135 116.04C242.199 114.995 243.524 114.472 245.111 114.472C246.697 114.472 248.023 114.995 249.087 116.04C250.151 117.067 250.683 118.355 250.683 119.904C250.683 121.435 250.151 122.713 249.087 123.74C248.041 124.767 246.716 125.28 245.111 125.28C243.524 125.28 242.199 124.776 241.135 123.768ZM243.767 118.56C243.431 118.933 243.263 119.381 243.263 119.904C243.263 120.427 243.431 120.875 243.767 121.248C244.121 121.621 244.569 121.808 245.111 121.808C245.633 121.808 246.063 121.621 246.399 121.248C246.753 120.875 246.931 120.427 246.931 119.904C246.931 119.363 246.763 118.905 246.427 118.532C246.091 118.159 245.652 117.972 245.111 117.972C244.569 117.972 244.121 118.168 243.767 118.56ZM231.503 124.552L241.863 105.96H244.719V106.38L234.415 125H231.503V124.552ZM227.387 114.976C226.341 113.949 225.819 112.661 225.819 111.112C225.819 109.563 226.341 108.275 227.387 107.248C228.451 106.203 229.776 105.68 231.363 105.68C232.949 105.68 234.275 106.203 235.339 107.248C236.403 108.275 236.935 109.563 236.935 111.112C236.935 112.643 236.403 113.921 235.339 114.948C234.293 115.975 232.968 116.488 231.363 116.488C229.776 116.488 228.451 115.984 227.387 114.976ZM230.019 109.768C229.683 110.141 229.515 110.589 229.515 111.112C229.515 111.635 229.683 112.083 230.019 112.456C230.373 112.829 230.821 113.016 231.363 113.016C231.885 113.016 232.315 112.829 232.651 112.456C233.005 112.083 233.183 111.635 233.183 111.112C233.183 110.571 233.015 110.113 232.679 109.74C232.343 109.367 231.904 109.18 231.363 109.18C230.821 109.18 230.373 109.376 230.019 109.768Z" fill="white"/>
<path d="M334.058 387.796C332.64 388.785 330.502 389.28 327.646 389.28C324.79 389.28 322.644 388.785 321.206 387.796C319.788 386.807 319.078 385.453 319.078 383.736C319.078 381.253 320.301 379.695 322.746 379.06C321.813 378.799 321.076 378.313 320.534 377.604C319.993 376.895 319.722 376.092 319.722 375.196C319.722 371.519 322.364 369.68 327.646 369.68C332.929 369.68 335.57 371.519 335.57 375.196C335.57 376.092 335.3 376.895 334.758 377.604C334.217 378.313 333.48 378.799 332.546 379.06C334.992 379.695 336.214 381.253 336.214 383.736C336.214 385.453 335.496 386.807 334.058 387.796ZM329.354 381.636C328.962 381.3 328.393 381.132 327.646 381.132C326.9 381.132 326.321 381.3 325.91 381.636C325.518 381.953 325.322 382.327 325.322 382.756C325.322 383.185 325.518 383.568 325.91 383.904C326.302 384.221 326.881 384.38 327.646 384.38C328.412 384.38 328.99 384.221 329.382 383.904C329.774 383.568 329.97 383.185 329.97 382.756C329.97 382.327 329.765 381.953 329.354 381.636ZM329.438 375.812C329.438 374.935 328.841 374.496 327.646 374.496C326.452 374.496 325.854 374.935 325.854 375.812C325.854 376.708 326.452 377.156 327.646 377.156C328.841 377.156 329.438 376.708 329.438 375.812ZM353.959 387.768C352.913 386.741 352.391 385.453 352.391 383.904C352.391 382.355 352.913 381.067 353.959 380.04C355.023 378.995 356.348 378.472 357.935 378.472C359.521 378.472 360.847 378.995 361.911 380.04C362.975 381.067 363.507 382.355 363.507 383.904C363.507 385.435 362.975 386.713 361.911 387.74C360.865 388.767 359.54 389.28 357.935 389.28C356.348 389.28 355.023 388.776 353.959 387.768ZM356.591 382.56C356.255 382.933 356.087 383.381 356.087 383.904C356.087 384.427 356.255 384.875 356.591 385.248C356.945 385.621 357.393 385.808 357.935 385.808C358.457 385.808 358.887 385.621 359.223 385.248C359.577 384.875 359.755 384.427 359.755 383.904C359.755 383.363 359.587 382.905 359.251 382.532C358.915 382.159 358.476 381.972 357.935 381.972C357.393 381.972 356.945 382.168 356.591 382.56ZM344.327 388.552L354.687 369.96H357.543V370.38L347.239 389H344.327V388.552ZM340.211 378.976C339.165 377.949 338.643 376.661 338.643 375.112C338.643 373.563 339.165 372.275 340.211 371.248C341.275 370.203 342.6 369.68 344.187 369.68C345.773 369.68 347.099 370.203 348.163 371.248C349.227 372.275 349.759 373.563 349.759 375.112C349.759 376.643 349.227 377.921 348.163 378.948C347.117 379.975 345.792 380.488 344.187 380.488C342.6 380.488 341.275 379.984 340.211 378.976ZM342.843 373.768C342.507 374.141 342.339 374.589 342.339 375.112C342.339 375.635 342.507 376.083 342.843 376.456C343.197 376.829 343.645 377.016 344.187 377.016C344.709 377.016 345.139 376.829 345.475 376.456C345.829 376.083 346.007 375.635 346.007 375.112C346.007 374.571 345.839 374.113 345.503 373.74C345.167 373.367 344.728 373.18 344.187 373.18C343.645 373.18 343.197 373.376 342.843 373.768Z" fill="white"/>
<path d="M231 41L226.299 48.2731L234.948 48.708L231 41ZM228.75 102C228.75 101.008 230.356 68.7766 231.41 47.777L229.912 47.7018C228.86 68.6547 227.25 100.957 227.25 102H228.75Z" fill="white"/>
</svg>
