<svg width="450" height="450" viewBox="0 0 450 450" fill="none" xmlns="http://www.w3.org/2000/svg">
<path d="M450 225C450 349.264 349.264 450 225 450C100.736 450 0 349.264 0 225C0 100.736 100.736 0 225 0C349.264 0 450 100.736 450 225ZM67.5 225C67.5 311.985 138.015 382.5 225 382.5C311.985 382.5 382.5 311.985 382.5 225C382.5 138.015 311.985 67.5 225 67.5C138.015 67.5 67.5 138.015 67.5 225Z" fill="#B0F054"/>
<path d="M225 450C260.48 450 295.457 441.609 327.076 425.513C358.695 409.417 386.059 386.071 406.934 357.382C427.809 328.693 441.604 295.474 447.192 260.437C452.78 225.4 450.003 189.538 439.087 155.778L374.861 176.545C382.502 200.176 384.446 225.28 380.534 249.806C376.623 274.332 366.966 297.585 352.354 317.668C337.741 337.75 318.586 354.092 296.453 365.359C274.32 376.627 249.836 382.5 225 382.5L225 450Z" fill="#91E01E"/>
<path d="M439.076 155.744C425.973 115.239 401.647 79.2834 368.924 52.0521L325.747 103.936C348.653 122.998 365.681 148.168 374.853 176.521L439.076 155.744Z" fill="#CD1C6C"/>
<path d="M368.836 51.9788C346.874 33.7214 321.636 19.8121 294.472 10.9939L273.63 75.1957C292.645 81.3685 310.311 91.105 325.685 103.885L368.836 51.9788Z" fill="#5A72D3"/>
<path d="M225 0C195.453 -3.52349e-07 166.194 5.8198 138.896 17.1271C111.598 28.4344 86.7942 45.0078 65.901 65.901C45.0078 86.7942 28.4344 111.598 17.1271 138.896C5.8198 166.194 -9.39209e-07 195.453 0 225C9.3921e-07 254.547 5.8198 283.806 17.1271 311.104C28.4344 338.402 45.0078 363.206 65.901 384.099C86.7942 404.992 111.598 421.566 138.896 432.873C166.195 444.18 195.453 450 225 450L225 382.5C204.317 382.5 183.836 378.426 164.727 370.511C145.619 362.596 128.256 350.995 113.631 336.369C99.0055 321.744 87.4041 304.381 79.489 285.273C71.5739 266.164 67.5 245.683 67.5 225C67.5 204.317 71.5739 183.836 79.489 164.727C87.4041 145.619 99.0055 128.256 113.631 113.631C128.256 99.0055 145.619 87.4041 164.727 79.489C183.836 71.5739 204.317 67.5 225 67.5L225 0Z" fill="#F4B521"/>
<path d="M17.2119 213.96V219.28H9.73592L9.59592 220.988H9.73592C15.1306 220.988 17.8279 222.836 17.8279 226.532C17.8279 228.753 17.0906 230.433 15.6159 231.572C14.1413 232.711 12.0226 233.28 9.25992 233.28C7.07592 233.28 4.86392 232.907 2.62392 232.16L4.10792 227.148C5.69459 227.783 7.29992 228.1 8.92392 228.1C9.76392 228.1 10.4079 227.969 10.8559 227.708C11.3039 227.447 11.5279 227.101 11.5279 226.672C11.5279 225.851 10.7999 225.44 9.34392 225.44H3.85592L3.60392 225.216L4.58392 213.96H17.2119ZM20.9521 223.508C20.9521 220.391 21.6988 217.973 23.1921 216.256C24.7041 214.539 26.8414 213.68 29.6041 213.68C32.4041 213.68 34.5508 214.539 36.0441 216.256C37.5561 217.973 38.3121 220.391 38.3121 223.508C38.3121 226.588 37.5561 228.987 36.0441 230.704C34.5508 232.421 32.4041 233.28 29.6041 233.28C26.8414 233.28 24.7041 232.421 23.1921 230.704C21.6988 228.987 20.9521 226.588 20.9521 223.508ZM26.9161 223.508C26.9161 226.289 27.8121 227.68 29.6041 227.68C30.6494 227.68 31.3588 227.307 31.7321 226.56C32.1241 225.813 32.3201 224.796 32.3201 223.508C32.3201 222.201 32.1241 221.175 31.7321 220.428C31.3588 219.663 30.6494 219.28 29.6041 219.28C28.5774 219.28 27.8681 219.663 27.4761 220.428C27.1028 221.175 26.9161 222.201 26.9161 223.508ZM56.1052 231.768C55.0599 230.741 54.5372 229.453 54.5372 227.904C54.5372 226.355 55.0599 225.067 56.1052 224.04C57.1692 222.995 58.4946 222.472 60.0812 222.472C61.6679 222.472 62.9932 222.995 64.0572 224.04C65.1212 225.067 65.6532 226.355 65.6532 227.904C65.6532 229.435 65.1212 230.713 64.0572 231.74C63.0119 232.767 61.6866 233.28 60.0812 233.28C58.4946 233.28 57.1692 232.776 56.1052 231.768ZM58.7372 226.56C58.4012 226.933 58.2332 227.381 58.2332 227.904C58.2332 228.427 58.4012 228.875 58.7372 229.248C59.0919 229.621 59.5399 229.808 60.0812 229.808C60.6039 229.808 61.0332 229.621 61.3692 229.248C61.7239 228.875 61.9012 228.427 61.9012 227.904C61.9012 227.363 61.7332 226.905 61.3972 226.532C61.0612 226.159 60.6226 225.972 60.0812 225.972C59.5399 225.972 59.0919 226.168 58.7372 226.56ZM46.4732 232.552L56.8332 213.96H59.6892V214.38L49.3852 233H46.4732V232.552ZM42.3572 222.976C41.3119 221.949 40.7892 220.661 40.7892 219.112C40.7892 217.563 41.3119 216.275 42.3572 215.248C43.4212 214.203 44.7466 213.68 46.3332 213.68C47.9199 213.68 49.2452 214.203 50.3092 215.248C51.3732 216.275 51.9052 217.563 51.9052 219.112C51.9052 220.643 51.3732 221.921 50.3092 222.948C49.2639 223.975 47.9386 224.488 46.3332 224.488C44.7466 224.488 43.4212 223.984 42.3572 222.976ZM44.9892 217.768C44.6532 218.141 44.4852 218.589 44.4852 219.112C44.4852 219.635 44.6532 220.083 44.9892 220.456C45.3439 220.829 45.7919 221.016 46.3332 221.016C46.8559 221.016 47.2852 220.829 47.6212 220.456C47.9759 220.083 48.1532 219.635 48.1532 219.112C48.1532 218.571 47.9852 218.113 47.6492 217.74C47.3132 217.367 46.8746 217.18 46.3332 217.18C45.7919 217.18 45.3439 217.376 44.9892 217.768Z" fill="white"/>
<path d="M336.145 356.552V352.072H340.093C341.418 352.072 342.081 351.661 342.081 350.84C342.081 350.168 341.418 349.832 340.093 349.832C338.637 349.832 336.929 350.159 334.969 350.812L333.625 345.604C334.297 345.38 335.277 345.175 336.565 344.988C337.871 344.783 339.047 344.68 340.093 344.68C345.562 344.68 348.297 346.519 348.297 350.196C348.297 351.092 348.026 351.885 347.485 352.576C346.943 353.267 346.187 353.761 345.217 354.06C347.718 354.751 348.969 356.309 348.969 358.736C348.969 360.453 348.231 361.807 346.757 362.796C345.301 363.785 343.079 364.28 340.093 364.28C338.077 364.28 335.967 363.935 333.765 363.244L335.221 358.204C336.789 358.801 338.413 359.1 340.093 359.1C340.914 359.1 341.539 358.979 341.969 358.736C342.417 358.493 342.641 358.167 342.641 357.756C342.641 357.327 342.435 357.019 342.025 356.832C341.614 356.645 340.97 356.552 340.093 356.552H336.145ZM351.979 354.508C351.979 351.391 352.726 348.973 354.219 347.256C355.731 345.539 357.869 344.68 360.631 344.68C363.431 344.68 365.578 345.539 367.071 347.256C368.583 348.973 369.339 351.391 369.339 354.508C369.339 357.588 368.583 359.987 367.071 361.704C365.578 363.421 363.431 364.28 360.631 364.28C357.869 364.28 355.731 363.421 354.219 361.704C352.726 359.987 351.979 357.588 351.979 354.508ZM357.943 354.508C357.943 357.289 358.839 358.68 360.631 358.68C361.677 358.68 362.386 358.307 362.759 357.56C363.151 356.813 363.347 355.796 363.347 354.508C363.347 353.201 363.151 352.175 362.759 351.428C362.386 350.663 361.677 350.28 360.631 350.28C359.605 350.28 358.895 350.663 358.503 351.428C358.13 352.175 357.943 353.201 357.943 354.508ZM387.133 362.768C386.087 361.741 385.565 360.453 385.565 358.904C385.565 357.355 386.087 356.067 387.133 355.04C388.197 353.995 389.522 353.472 391.109 353.472C392.695 353.472 394.021 353.995 395.085 355.04C396.149 356.067 396.681 357.355 396.681 358.904C396.681 360.435 396.149 361.713 395.085 362.74C394.039 363.767 392.714 364.28 391.109 364.28C389.522 364.28 388.197 363.776 387.133 362.768ZM389.765 357.56C389.429 357.933 389.261 358.381 389.261 358.904C389.261 359.427 389.429 359.875 389.765 360.248C390.119 360.621 390.567 360.808 391.109 360.808C391.631 360.808 392.061 360.621 392.397 360.248C392.751 359.875 392.929 359.427 392.929 358.904C392.929 358.363 392.761 357.905 392.425 357.532C392.089 357.159 391.65 356.972 391.109 356.972C390.567 356.972 390.119 357.168 389.765 357.56ZM377.501 363.552L387.861 344.96H390.717V345.38L380.413 364H377.501V363.552ZM373.385 353.976C372.339 352.949 371.817 351.661 371.817 350.112C371.817 348.563 372.339 347.275 373.385 346.248C374.449 345.203 375.774 344.68 377.361 344.68C378.947 344.68 380.273 345.203 381.337 346.248C382.401 347.275 382.933 348.563 382.933 350.112C382.933 351.643 382.401 352.921 381.337 353.948C380.291 354.975 378.966 355.488 377.361 355.488C375.774 355.488 374.449 354.984 373.385 353.976ZM376.017 348.768C375.681 349.141 375.513 349.589 375.513 350.112C375.513 350.635 375.681 351.083 376.017 351.456C376.371 351.829 376.819 352.016 377.361 352.016C377.883 352.016 378.313 351.829 378.649 351.456C379.003 351.083 379.181 350.635 379.181 350.112C379.181 349.571 379.013 349.113 378.677 348.74C378.341 348.367 377.902 348.18 377.361 348.18C376.819 348.18 376.371 348.376 376.017 348.768Z" fill="white"/>
<path d="M363.138 126.16L364.678 121.148C366.302 121.783 367.814 122.1 369.214 122.1C370.315 122.1 371.127 121.876 371.65 121.428C372.172 120.98 372.518 120.317 372.686 119.44C371.622 120.075 370.436 120.392 369.13 120.392C366.834 120.392 365.098 119.897 363.922 118.908C362.764 117.919 362.186 116.491 362.186 114.624C362.186 112.477 362.904 110.788 364.342 109.556C365.798 108.305 367.692 107.68 370.026 107.68C372.882 107.68 375.094 108.567 376.662 110.34C378.23 112.113 379.014 114.503 379.014 117.508C379.014 120.495 378.23 122.875 376.662 124.648C375.094 126.403 372.863 127.28 369.97 127.28C367.711 127.28 365.434 126.907 363.138 126.16ZM370.11 115.912C370.856 115.912 371.696 115.744 372.63 115.408C372.275 113.989 371.407 113.28 370.026 113.28C369.447 113.28 369.018 113.411 368.738 113.672C368.458 113.933 368.318 114.251 368.318 114.624C368.318 115.483 368.915 115.912 370.11 115.912ZM396.767 125.768C395.722 124.741 395.199 123.453 395.199 121.904C395.199 120.355 395.722 119.067 396.767 118.04C397.831 116.995 399.157 116.472 400.743 116.472C402.33 116.472 403.655 116.995 404.719 118.04C405.783 119.067 406.315 120.355 406.315 121.904C406.315 123.435 405.783 124.713 404.719 125.74C403.674 126.767 402.349 127.28 400.743 127.28C399.157 127.28 397.831 126.776 396.767 125.768ZM399.399 120.56C399.063 120.933 398.895 121.381 398.895 121.904C398.895 122.427 399.063 122.875 399.399 123.248C399.754 123.621 400.202 123.808 400.743 123.808C401.266 123.808 401.695 123.621 402.031 123.248C402.386 122.875 402.563 122.427 402.563 121.904C402.563 121.363 402.395 120.905 402.059 120.532C401.723 120.159 401.285 119.972 400.743 119.972C400.202 119.972 399.754 120.168 399.399 120.56ZM387.135 126.552L397.495 107.96H400.351V108.38L390.047 127H387.135V126.552ZM383.019 116.976C381.974 115.949 381.451 114.661 381.451 113.112C381.451 111.563 381.974 110.275 383.019 109.248C384.083 108.203 385.409 107.68 386.995 107.68C388.582 107.68 389.907 108.203 390.971 109.248C392.035 110.275 392.567 111.563 392.567 113.112C392.567 114.643 392.035 115.921 390.971 116.948C389.926 117.975 388.601 118.488 386.995 118.488C385.409 118.488 384.083 117.984 383.019 116.976ZM385.651 111.768C385.315 112.141 385.147 112.589 385.147 113.112C385.147 113.635 385.315 114.083 385.651 114.456C386.006 114.829 386.454 115.016 386.995 115.016C387.518 115.016 387.947 114.829 388.283 114.456C388.638 114.083 388.815 113.635 388.815 113.112C388.815 112.571 388.647 112.113 388.311 111.74C387.975 111.367 387.537 111.18 386.995 111.18C386.454 111.18 386.006 111.376 385.651 111.768Z" fill="white"/>
<path d="M314.146 47.8L312.606 52.812C310.982 52.1773 309.47 51.86 308.07 51.86C306.95 51.86 306.128 52.084 305.606 52.532C305.083 52.98 304.747 53.6427 304.598 54.52C305.699 53.8853 306.884 53.568 308.154 53.568C310.45 53.568 312.176 54.0627 313.334 55.052C314.51 56.0413 315.098 57.4693 315.098 59.336C315.098 61.4827 314.37 63.1813 312.914 64.432C311.476 65.664 309.591 66.28 307.258 66.28C304.402 66.28 302.19 65.3933 300.622 63.62C299.054 61.8467 298.27 59.4573 298.27 56.452C298.27 53.4653 299.054 51.0947 300.622 49.34C302.19 47.5667 304.42 46.68 307.314 46.68C309.572 46.68 311.85 47.0533 314.146 47.8ZM307.174 58.048C306.427 58.048 305.587 58.216 304.654 58.552C305.008 59.9707 305.876 60.68 307.258 60.68C307.836 60.68 308.266 60.5493 308.546 60.288C308.826 60.0267 308.966 59.7093 308.966 59.336C308.966 58.4773 308.368 58.048 307.174 58.048ZM332.767 64.768C331.722 63.7413 331.199 62.4533 331.199 60.904C331.199 59.3547 331.722 58.0667 332.767 57.04C333.831 55.9947 335.157 55.472 336.743 55.472C338.33 55.472 339.655 55.9947 340.719 57.04C341.783 58.0667 342.315 59.3547 342.315 60.904C342.315 62.4347 341.783 63.7133 340.719 64.74C339.674 65.7667 338.349 66.28 336.743 66.28C335.157 66.28 333.831 65.776 332.767 64.768ZM335.399 59.56C335.063 59.9333 334.895 60.3813 334.895 60.904C334.895 61.4267 335.063 61.8747 335.399 62.248C335.754 62.6213 336.202 62.808 336.743 62.808C337.266 62.808 337.695 62.6213 338.031 62.248C338.386 61.8747 338.563 61.4267 338.563 60.904C338.563 60.3627 338.395 59.9053 338.059 59.532C337.723 59.1587 337.285 58.972 336.743 58.972C336.202 58.972 335.754 59.168 335.399 59.56ZM323.135 65.552L333.495 46.96H336.351V47.38L326.047 66H323.135V65.552ZM319.019 55.976C317.974 54.9493 317.451 53.6613 317.451 52.112C317.451 50.5627 317.974 49.2747 319.019 48.248C320.083 47.2027 321.409 46.68 322.995 46.68C324.582 46.68 325.907 47.2027 326.971 48.248C328.035 49.2747 328.567 50.5627 328.567 52.112C328.567 53.6427 328.035 54.9213 326.971 55.948C325.926 56.9747 324.601 57.488 322.995 57.488C321.409 57.488 320.083 56.984 319.019 55.976ZM321.651 50.768C321.315 51.1413 321.147 51.5893 321.147 52.112C321.147 52.6347 321.315 53.0827 321.651 53.456C322.006 53.8293 322.454 54.016 322.995 54.016C323.518 54.016 323.947 53.8293 324.283 53.456C324.638 53.0827 324.815 52.6347 324.815 52.112C324.815 51.5707 324.647 51.1133 324.311 50.74C323.975 50.3667 323.537 50.18 322.995 50.18C322.454 50.18 322.006 50.376 321.651 50.768Z" fill="white"/>
<path d="M247.438 27.96V33.28H239.962L239.822 34.988H239.962C245.357 34.988 248.054 36.836 248.054 40.532C248.054 42.7533 247.317 44.4333 245.842 45.572C244.368 46.7107 242.249 47.28 239.486 47.28C237.302 47.28 235.09 46.9067 232.85 46.16L234.334 41.148C235.921 41.7827 237.526 42.1 239.15 42.1C239.99 42.1 240.634 41.9693 241.082 41.708C241.53 41.4467 241.754 41.1013 241.754 40.672C241.754 39.8507 241.026 39.44 239.57 39.44H234.082L233.83 39.216L234.81 27.96H247.438ZM265.879 45.768C264.833 44.7413 264.311 43.4533 264.311 41.904C264.311 40.3547 264.833 39.0667 265.879 38.04C266.943 36.9947 268.268 36.472 269.855 36.472C271.441 36.472 272.767 36.9947 273.831 38.04C274.895 39.0667 275.427 40.3547 275.427 41.904C275.427 43.4347 274.895 44.7133 273.831 45.74C272.785 46.7667 271.46 47.28 269.855 47.28C268.268 47.28 266.943 46.776 265.879 45.768ZM268.511 40.56C268.175 40.9333 268.007 41.3813 268.007 41.904C268.007 42.4267 268.175 42.8747 268.511 43.248C268.865 43.6213 269.313 43.808 269.855 43.808C270.377 43.808 270.807 43.6213 271.143 43.248C271.497 42.8747 271.675 42.4267 271.675 41.904C271.675 41.3627 271.507 40.9053 271.171 40.532C270.835 40.1587 270.396 39.972 269.855 39.972C269.313 39.972 268.865 40.168 268.511 40.56ZM256.247 46.552L266.607 27.96H269.463V28.38L259.159 47H256.247V46.552ZM252.131 36.976C251.085 35.9493 250.563 34.6613 250.563 33.112C250.563 31.5627 251.085 30.2747 252.131 29.248C253.195 28.2027 254.52 27.68 256.107 27.68C257.693 27.68 259.019 28.2027 260.083 29.248C261.147 30.2747 261.679 31.5627 261.679 33.112C261.679 34.6427 261.147 35.9213 260.083 36.948C259.037 37.9747 257.712 38.488 256.107 38.488C254.52 38.488 253.195 37.984 252.131 36.976ZM254.763 31.768C254.427 32.1413 254.259 32.5893 254.259 33.112C254.259 33.6347 254.427 34.0827 254.763 34.456C255.117 34.8293 255.565 35.016 256.107 35.016C256.629 35.016 257.059 34.8293 257.395 34.456C257.749 34.0827 257.927 33.6347 257.927 33.112C257.927 32.5707 257.759 32.1133 257.423 31.74C257.087 31.3667 256.648 31.18 256.107 31.18C255.565 31.18 255.117 31.376 254.763 31.768Z" fill="white"/>
</svg>
