<svg width="289" height="58" viewBox="0 0 289 58" fill="none" xmlns="http://www.w3.org/2000/svg">
<path d="M13.1263 29L6.56032 35.5502L0 29L6.56032 22.4498L13.1263 29ZM29.0447 13.0948L40.2869 24.3253L46.8472 17.7751L29.0447 0L11.2422 17.7751L17.8025 24.3253L29.0447 13.0948ZM51.5348 22.4498L44.9745 29L51.5348 35.5502L58.0894 29L51.5348 22.4498ZM29.0447 44.9052L17.8025 33.6803L11.2422 40.2249L29.0447 58L46.8472 40.2249L40.2869 33.6803L29.0447 44.9052ZM29.0447 35.5502L35.605 29L29.0447 22.4498L22.4844 29L29.0447 35.5502ZM98.2799 36.1792V36.0885C98.2799 31.8161 96.0099 29.68 92.3154 28.2747C94.5854 26.9998 96.5036 24.9996 96.5036 21.4129V21.3222C96.5036 16.3245 92.497 13.0948 85.9878 13.0948H71.2101V44.9052H86.3623C93.5526 44.9052 98.2912 41.9984 98.2912 36.1792H98.2799ZM89.5403 22.5801C89.5403 24.9429 87.5825 25.9459 84.4896 25.9459H78.0371V19.2313H84.9549C87.9116 19.2313 89.5517 20.4099 89.5517 22.5008L89.5403 22.5801ZM91.3166 35.3066C91.3166 37.6694 89.4495 38.7573 86.351 38.7573H78.0371V31.7708H86.1353C89.7333 31.7708 91.328 33.0911 91.328 35.2272L91.3166 35.3066ZM113.007 44.9052V13.0948H105.975V44.9052H113.007ZM150.683 44.9052V13.0948H143.742V32.6831L128.817 13.0948H122.353V44.9052H129.271V24.6823L144.696 44.9052H150.683ZM189.506 44.9052L175.829 12.8681H169.365L155.717 44.9052H162.862L165.784 37.7714H179.257L182.168 44.9052H189.506ZM176.765 31.5895H168.275L172.509 21.2769L176.765 31.5895ZM222.915 44.9052V13.0948H215.974V32.6831L201.043 13.0948H194.585V44.9052H201.497V24.6823L216.927 44.9052H222.915ZM259.093 39.7716L254.638 35.2726C252.135 37.5391 249.905 38.9953 246.261 38.9953C240.802 38.9953 237.023 34.4623 237.023 29V28.9093C237.023 23.4584 240.893 19.0047 246.261 19.0047C249.445 19.0047 251.937 20.3646 254.411 22.5914L258.854 17.4578C255.898 14.551 252.305 12.5508 246.296 12.5508C236.512 12.5508 229.685 19.9566 229.685 28.983V29.0737C229.685 38.2077 236.648 45.4322 246.023 45.4322C252.158 45.4492 255.796 43.2677 259.07 39.7716H259.093ZM289 44.9052V38.6723H271.68V31.9805H286.702V25.7476H271.68V19.322H288.75V13.0891H264.717V44.8996L289 44.9052Z" fill="#F4B521"/>
</svg>
